<svg xmlns="http://www.w3.org/2000/svg" xmlns:xlink="http://www.w3.org/1999/xlink" width="535" height="253" version="1"><defs><path id="a" d="M459 143c18 0 27 9 27 27v37c0 18-9 27-27 27H86c-18 0-27-9-27-27v-37c0-18 9-27 27-27h373z"/><path id="b" d="M199 42h100c3 0 6 1 8 3 3 4 5 9 5 14v26c-1 9-5 18-18 18l-92-1c-3 0-3 1-3 3v28h116c18-2 32-18 32-34V61 42c-1-17-17-31-35-31H199v31z"/><path id="c" d="M96 80l-2-2-41-65c-1-2-3-3-5-3l-29 1h-3l1 1 70 116c3 4 6 6 11 5 2 0 3 0 4-2l73-118 1-2h-33a8517 8517 0 0 1-48 70z"/><path id="d" d="M527 11l-28-1c-3 0-5 1-6 4l-42 64-1 2-3-3-41-64c0-2-2-3-3-2h-31-2l1 2 72 117c1 2 3 4 7 3h1c3 1 4-1 6-3l56-91 17-28h-3z"/><path id="e" d="M17 44v199h33v-3-140l-1-4-26-42-6-10z"/><path id="f" d="M529 43l-2 3-29 49-2 5v143h33V43z"/><path id="g" d="M175 43l-1 3-31 50-1 3v34h33V43z"/><path id="h" d="M371 133h33v-3-30l-1-5-30-49-2-3v90z"/><path id="i" d="M73 203c-1 9 4 16 12 17h11c7-1 12-5 13-12 2-7 0-13-6-17l-9-5-9-6a7 7 0 0 1-1-9c4-5 14-4 16 3l1 1h8c0-6-4-12-10-14-5-2-10-2-15 0-6 2-10 6-11 12-1 5 1 11 6 15l6 3 11 6 4 4c2 5-1 10-6 11-6 2-11 0-12-6l-1-3h-8z"/><path id="j" d="M234 86V57h-34v29h34z"/><path id="k" d="M171 199l-1-8c-2-13-13-20-26-15-8 4-11 10-12 19-2 17 10 28 26 25 4-1 8-3 10-7l1-3h-8l-2 1c-3 3-8 3-12 1-5-3-7-8-6-13h30z"/><path id="l" d="M474 199l-1-10c-2-9-8-14-16-14-9-1-17 4-20 12-3 7-3 15 0 22 5 11 21 15 30 8 3-1 4-4 5-7h-8l-2 1a11 11 0 0 1-18-12h30z"/><path id="m" d="M252 179l12 33c1 2 1 6 3 7 2 2 6 1 9 1 2 0 3-1 3-3l15-39v-2h-4c-3-1-4 0-5 3l-11 31-1 4-1-4-12-32-2-2h-7l1 3z"/><path id="n" d="M405 206c-2 0-2 0-3 2 0 4-3 5-7 5s-6-2-8-6c-2-6-2-12 0-18l1-3c2-4 6-4 9-4s5 2 6 5l1 1h7c0-5-2-9-6-11-10-5-22 0-26 10-2 7-2 15 0 22 3 7 8 11 15 11 10 1 17-5 17-14h-6z"/><path id="o" d="M201 175c-3 0-4 1-4 4v38l1 3h7v-5l1-20c0-5 2-9 5-11 5-4 10-2 11 4v1h8c0-5-1-10-6-12-7-4-13-2-19 3 0-5 0-4-4-5z"/><path id="p" d="M342 220v-44h-17c-5 0-4 0-5 4 0 3 1 4 4 4l7-1c2 0 3 1 3 3v34h8z"/><path id="q" d="M342 166v-10h-11v10h11z"/><path id="r" d="M199 42V11h113c18 0 34 14 35 31v57c0 16-14 32-32 34H199v-3-25c0-2 1-3 3-3l92 1c13 0 17-9 18-18V59c0-5-1-10-5-14-2-2-5-3-8-3H199z"/><path id="s" d="M111 56l29-43c0-2 2-3 3-2h33l-1 2a201705 201705 0 0 0-77 120c-5 1-8-1-11-5L17 12l-1-1h32c2-1 4 0 5 2l41 65 2 2 15-24z"/><path id="t" d="M530 11l-17 28-56 91c-2 3-3 4-6 3h-1c-4 1-5 0-7-3L371 13l-1-2h33c1-1 3 0 3 2l41 64 3 3 1-2 42-64c1-2 3-4 6-3h31z"/><path id="u" d="M17 44l6 10 26 42 1 4v142H17V44z"/><path id="v" d="M529 243h-33v-4-139l2-5 29-49 2-3v200z"/><path id="w" d="M175 133h-33v-2-32l1-3 31-50 1-3v90z"/><path id="x" d="M371 43l2 3 30 49 1 5v33h-33V43z"/><path id="y" d="M82 203v3c1 6 6 8 12 6 5-1 8-6 6-11l-4-4-11-6-6-3c-4-4-7-10-6-15 1-6 5-10 11-12 5-2 10-2 15 0 6 2 10 8 10 14h-8l-1-1c-2-7-12-8-16-3a7 7 0 0 0 1 9l9 6 9 5c6 4 8 10 6 17-1 7-6 11-13 12H85c-8-1-13-8-12-17h9z"/><path id="z" d="M234 86h-34V57h34v29z"/><path id="A" d="M155 175h3l1 1h1l1 1h1l1 1 1 1h1v1h1v1l1 1v1h1v1l1 1v2l1 1v3h1v8h-30v5l1 1v2l1 1 1 1v1h1v1h1l1 1h2v1h7l1-1h1l1-1h1v-1h9v2h-1v2h-1v2h-1l-1 1-1 1h-1l-1 1h-2v1h-14l-1-1h-1l-1-1h-1v-1h-1l-1-1h-1l-1-1v-1l-1-1h-1v-1l-1-1v-1l-1-1v-1l-1-1v-3l-1-2v-9h1v-4l1-1v-2h1v-2h1v-1l1-1v-1h1v-1h1v-1h1l1-1h1l1-1h1v-1h2l1-1h8zm-7 7l-1 1-2 1-1 1-1 1-1 2v1l-1 1v2h21v-4l-1-1-1-1-1-2-1-1h-1l-2-1h-7z"/><path id="B" d="M457 175h3l1 1h2l1 1h1v1h1l1 1h1v1h1v1l1 1v1h1v2l1 1v1l1 1v5h1v6h-30v6h1v2l1 1v1h1v1h1v1h1v1h2l1 1h7l1-1h1l1-1h1v-1h9v1h-1v3h-1v1l-1 1-1 1h-1l-1 1-1 1h-1l-1 1h-3l-1 1h-5l-1-1h-4l-1-1h-1l-1-1h-1l-1-1h-1v-1h-1l-1-1v-1h-1l-1-1v-1l-1-1v-1l-1-1v-1l-1-1v-3l-1-1v-11l1-1v-3h1v-2l1-1v-1h1v-1l1-1v-1h1v-1h1v-1h1l1-1h1v-1h2l1-1h2l1-1h6zm-5 7l-2 1-1 1-2 1-1 1-1 1v2l-1 1v2h21v-3l-1-2-1-1-1-1-1-1-1-1-2-1h-6z"/><path id="C" d="M258 176l2 2 12 32 1 4 1-4 11-31c1-3 2-4 5-3h4l-1 2-14 39c0 2-1 3-3 3-3 0-7 1-9-1-2-1-2-5-3-7l-12-33-1-3h7z"/><path id="D" d="M394 220c-7 0-12-4-15-11-2-7-2-15 0-22 4-10 16-15 26-10 4 2 6 6 6 11h-7l-1-1c-1-3-3-5-6-5s-7 0-9 4l-1 3c-2 6-2 12 0 18 2 4 4 6 8 6s7-1 8-5c0-2 0-2 2-2h6c0 9-7 15-17 14z"/><path id="E" d="M224 177c5 2 6 7 6 12h-8v-1c-1-6-6-8-11-4-3 2-5 6-5 11l-1 21v4h-7l-1-3v-38c0-3 1-4 4-3 4 0 4-1 4 4 6-5 12-7 19-3z"/><path id="F" d="M342 220h-8v-4-30c0-2-1-3-3-3l-8 1c-2 0-3-1-3-4 1-4 0-4 5-4h17v44z"/><path id="G" d="M342 166h-11v-10h11v10z"/><path id="H" d="M141 192c0-5 5-10 11-10s10 3 10 10h-21z"/><path id="I" d="M444 192c0-6 5-10 11-10s10 4 10 10h-21z"/></defs><use fill="red" xlink:href="#a"/><use fill-opacity="0" stroke="#000" stroke-opacity="0" xlink:href="#a"/><use fill="#fff" xlink:href="#b"/><use fill-opacity="0" stroke="#000" xlink:href="#b"/><use fill="#fff" xlink:href="#c"/><use fill-opacity="0" stroke="#000" xlink:href="#c"/><use fill="#fff" xlink:href="#d"/><use fill-opacity="0" stroke="#000" xlink:href="#d"/><use fill="#fff" xlink:href="#e"/><use fill-opacity="0" stroke="#000" xlink:href="#e"/><use fill="#fff" xlink:href="#f"/><use fill-opacity="0" stroke="#000" xlink:href="#f"/><use fill="#fff" xlink:href="#g"/><use fill-opacity="0" stroke="#000" xlink:href="#g"/><use fill="#fff" xlink:href="#h"/><use fill-opacity="0" stroke="#000" xlink:href="#h"/><use fill="#fff" xlink:href="#i"/><use fill-opacity="0" stroke="#000" stroke-opacity="0" xlink:href="#i"/><use fill="#fff" xlink:href="#j"/><use fill-opacity="0" stroke="#000" xlink:href="#j"/><use fill="#fff" xlink:href="#k"/><use fill-opacity="0" stroke="#000" stroke-opacity="0" xlink:href="#k"/><use fill="#fff" xlink:href="#l"/><use fill-opacity="0" stroke="#000" stroke-opacity="0" xlink:href="#l"/><use fill="#fff" xlink:href="#m"/><use fill-opacity="0" stroke="#000" stroke-opacity="0" xlink:href="#m"/><use fill="#fff" xlink:href="#n"/><use fill-opacity="0" stroke="#000" stroke-opacity="0" xlink:href="#n"/><use fill="#fff" xlink:href="#o"/><use fill-opacity="0" stroke="#000" stroke-opacity="0" xlink:href="#o"/><use fill="#fff" xlink:href="#p"/><use fill-opacity="0" stroke="#000" stroke-opacity="0" xlink:href="#p"/><use fill="#fff" xlink:href="#q"/><use fill-opacity="0" stroke="#000" stroke-opacity="0" xlink:href="#q"/><use fill="#fff" xlink:href="#r"/><use fill-opacity="0" stroke="#000" xlink:href="#r"/><g><use fill="#fff" xlink:href="#s"/><use fill-opacity="0" stroke="#000" xlink:href="#s"/></g><g><use fill="#fff" xlink:href="#t"/><use fill-opacity="0" stroke="#000" xlink:href="#t"/></g><g><use fill="#fff" xlink:href="#u"/><use fill-opacity="0" stroke="#000" xlink:href="#u"/></g><g><use fill="#fff" xlink:href="#v"/><use fill-opacity="0" stroke="#000" xlink:href="#v"/></g><g><use fill="#fff" xlink:href="#w"/><use fill-opacity="0" stroke="#000" xlink:href="#w"/></g><g><use fill="#fff" xlink:href="#x"/><use fill-opacity="0" stroke="#000" xlink:href="#x"/></g><g><use fill="#fff" xlink:href="#y"/><use fill-opacity="0" stroke="#000" stroke-opacity="0" xlink:href="#y"/></g><g><use fill="#fff" xlink:href="#z"/><use fill-opacity="0" stroke="#000" xlink:href="#z"/></g><g><use fill="#fff" xlink:href="#A"/><use fill-opacity="0" stroke="#000" stroke-opacity="0" xlink:href="#A"/></g><g><use fill="#fff" xlink:href="#B"/><use fill-opacity="0" stroke="#000" stroke-opacity="0" xlink:href="#B"/></g><g><use fill="#fff" xlink:href="#C"/><use fill-opacity="0" stroke="#000" stroke-opacity="0" xlink:href="#C"/></g><g><use fill="#fff" xlink:href="#D"/><use fill-opacity="0" stroke="#000" stroke-opacity="0" xlink:href="#D"/></g><g><use fill="#fff" xlink:href="#E"/><use fill-opacity="0" stroke="#000" stroke-opacity="0" xlink:href="#E"/></g><g><use fill="#fff" xlink:href="#F"/><use fill-opacity="0" stroke="#000" stroke-opacity="0" xlink:href="#F"/></g><g><use fill="#fff" xlink:href="#G"/><use fill-opacity="0" stroke="#000" stroke-opacity="0" xlink:href="#G"/></g><g><use fill="red" xlink:href="#H"/><use fill-opacity="0" stroke="#000" stroke-opacity="0" xlink:href="#H"/></g><g><use fill="red" xlink:href="#I"/><use fill-opacity="0" stroke="#000" stroke-opacity="0" xlink:href="#I"/></g><g><use fill-opacity="0" stroke="#000" xlink:href="#J"/></g></svg>