<svg id="Слой_1" data-name="Слой 1" xmlns="http://www.w3.org/2000/svg" viewBox="0 0 543.86 245.4"><defs><style>.cls-1{fill:#fff;}</style></defs><title>MDM.logo (blachtyhtyhk)</title><rect class="cls-1" x="45.3" y="140.34" width="452" height="96" rx="28.5" ry="28.5"/><path class="cls-1" d="M451.18,271.12h3.69q50.64,0,101.28,0a10.91,10.91,0,0,1,8.33,3.53c4.09,4.23,5.46,9.51,5.63,15,.29,9,.46,18,0,27-.54,9.92-4.8,19.12-18.88,18.88-32.48-.55-65-.14-97.47-.22-2.58,0-3.33.7-3.28,3.29.15,8.71.05,17.42.06,26.13,0,.94.12,1.87.21,3.08h4q55.94,0,111.86,0a65.86,65.86,0,0,0,7-.34c19.28-2,33.74-18.29,33.22-36.19-.39-13.2-.08-26.42-.08-39.63,0-6.66.19-13.32,0-20-.65-18.22-17.42-33.37-36.94-33.4q-58-.08-116,0c-.85,0-1.69.12-2.64.18Z" transform="translate(-257.2 -238.16)"/><path class="cls-1" d="M341.49,311.91c-.68-.9-1.11-1.41-1.47-2q-22-34.33-44-68.69a5.72,5.72,0,0,0-5.6-3.08c-10.07.18-20.16.07-30.24.08-.91,0-1.82.1-3,.17.42.83.64,1.35.94,1.84C283,280.87,308,321.41,332.7,362.16c2.85,4.71,5.81,6.62,11.08,6,2-.24,3.3-.59,4.44-2.44q38.37-62.51,76.87-124.95c.43-.7.75-1.46,1.27-2.48-11.76,0-23.11.05-34.45,0a4.1,4.1,0,0,0-4,2.2q-14.87,23.06-29.86,46Z" transform="translate(-257.2 -238.16)"/><path class="cls-1" d="M801.06,238.26h-3.48c-9.78,0-19.58.16-29.36-.09-3.36-.09-5.2,1.05-7,3.83-14.41,22.47-29,44.83-43.53,67.23-.55.85-1.18,1.66-1.9,2.67-.94-1.41-1.66-2.45-2.35-3.52q-21.78-33.94-43.52-67.93a4,4,0,0,0-3.93-2.24c-10.67.1-21.34,0-32,0-.72,0-1.44.11-2.41.19.55,1,.9,1.66,1.3,2.32q37.8,61.65,75.52,123.34c1.9,3.12,3.91,4.51,7.39,3.94a3.29,3.29,0,0,1,1.17,0c3.13.6,4.85-.84,6.48-3.51q29.44-48.18,59.12-96.22C788.62,258.5,794.65,248.68,801.06,238.26Z" transform="translate(-257.2 -238.16)"/><path class="cls-1" d="M258.63,273.34l-.52.27v210H293c.06-1.12.14-2.08.14-3q0-73.83-.05-147.66a9.5,9.5,0,0,0-1.28-4.65C283,313.37,274,298.58,265,283.78,262.88,280.29,260.76,276.82,258.63,273.34Z" transform="translate(-257.2 -238.16)"/><path class="cls-1" d="M799.85,272.69c-.93,1.39-1.44,2.09-1.88,2.82-10.5,17.31-21,34.61-31.42,52a11.11,11.11,0,0,0-1.54,5.44q-.12,73.54-.07,147.1v3.52h34.91Z" transform="translate(-257.2 -238.16)"/><path class="cls-1" d="M425.52,272.6c-.86,1.25-1.36,1.9-1.78,2.59q-16.15,26.6-32.24,53.21a7.89,7.89,0,0,0-1.06,3.82c-.08,11.06-.05,22.12,0,33.18,0,.83.15,1.66.22,2.45h34.9Z" transform="translate(-257.2 -238.16)"/><path class="cls-1" d="M632.52,272.67v95.2H667.6v-3.32c0-10.46.07-20.93-.07-31.39A11.47,11.47,0,0,0,666,327.7c-10.39-17.36-20.9-34.64-31.39-51.94C634.08,274.89,633.47,274.07,632.52,272.67Z" transform="translate(-257.2 -238.16)"/><path class="cls-1" d="M317.26,442.16c-.85,8.64,4.67,16.19,13,17.43a35.94,35.94,0,0,0,11.34-.09c7-1.24,12.45-5,14.05-12.41s-.53-13.83-7-18.26c-3-2-6.27-3.58-9.39-5.4s-6.43-3.4-9.25-5.61a6.93,6.93,0,0,1-.81-10.39c4.16-4.66,14.85-3.95,16.33,3.22.14.68.94,1.7,1.49,1.73,2.69.19,5.39.09,8,.09a15,15,0,0,0-10.47-15.05,24,24,0,0,0-15.86.19c-5.85,2-10,5.88-11,12.24a15.54,15.54,0,0,0,6.16,15.55,42.45,42.45,0,0,0,6,3.68c3.86,2.1,7.89,3.93,11.63,6.23a10.81,10.81,0,0,1,4,4.42c2.2,4.84-.67,10-6.1,11.65-6.25,1.88-11.26-.59-12.42-6.13-.21-1-.39-2-.6-3.09Z" transform="translate(-257.2 -238.16)"/><path class="cls-1" d="M487.25,318.09V287.76H451.33v30.33Z" transform="translate(-257.2 -238.16)"/><path class="cls-1" d="M421.39,437.68c-.34-3.32-.42-6.24-1-9.08-2.6-13.74-14.38-20.22-27.42-15-8.67,3.46-12,10.62-12.91,19.37-1.93,18.22,9.87,29.87,27.23,26.75,4.52-.81,8.36-2.82,10.55-7.09a18,18,0,0,0,.95-3.54c-3.07,0-5.51-.07-7.94,0a3.51,3.51,0,0,0-2,.87c-3.41,3-9.22,3.4-13.64.82a12.17,12.17,0,0,1-5.49-13.11Z" transform="translate(-257.2 -238.16)"/><path class="cls-1" d="M741.77,437.65c-.57-4-.77-7.59-1.63-11-2.25-9-8.17-14.05-16.53-14.57-9.93-.6-17.93,3.92-21.23,12.38a31,31,0,0,0,.09,23.48c4.72,11.67,21.62,16.36,31.87,9a10,10,0,0,0,4.64-7.89c-2.86,0-5.39-.05-7.92,0a3.14,3.14,0,0,0-1.78.72,12.07,12.07,0,0,1-14.09.8,12.26,12.26,0,0,1-5.23-13Z" transform="translate(-257.2 -238.16)"/><path class="cls-1" d="M505.65,412.74c.51,1.58.86,2.77,1.28,3.93q6.21,17.08,12.47,34.16c1,2.82,1.54,6.63,3.62,8.05s5.83.39,8.84.59c2.06.14,3.12-.55,3.85-2.6,4.89-13.72,9.92-27.39,14.9-41.08.32-.88.57-1.78,1-3.08a36,36,0,0,1-4.81,0c-2.78-.43-3.9.85-4.76,3.37-3.82,11.2-7.85,22.33-11.81,33.47-.34,1-.75,1.9-1.41,3.54-.65-1.7-1-2.67-1.39-3.66-4-11.33-8-22.67-12.13-34-.37-1-1.34-2.42-2.2-2.56A49.88,49.88,0,0,0,505.65,412.74Z" transform="translate(-257.2 -238.16)"/><path class="cls-1" d="M675.21,444.59c-2.38,0-4.61.06-6.84,0-1.58-.06-2.15.6-2.51,2.13-1,4.08-3.45,5.86-7.61,5.86s-7.12-2.15-8.57-6.69a34.91,34.91,0,0,1-.51-18.83,11.25,11.25,0,0,1,1.72-3.7c2.26-3.28,5.64-3.94,9.35-3.6A6.07,6.07,0,0,1,666,424.4a2.17,2.17,0,0,0,1.55,1.26c2.4.14,4.81.06,7.38.06-.31-5.31-2.3-9.1-6.65-11.45-10.15-5.49-23.45-.38-27,10.52a35.94,35.94,0,0,0,.17,23.09C644,455.21,649,459.53,657,460.06,667.71,460.78,675.08,454.78,675.21,444.59Z" transform="translate(-257.2 -238.16)"/><path class="cls-1" d="M457.38,417.37c-.65-4.69-.66-4.54-5.13-4.71-2.58-.1-3.33.68-3.3,3.28.12,13.49.05,27,.07,40.47,0,.93.13,1.86.21,2.81h7.82c0-1.57,0-2.92,0-4.27.14-7.32.07-14.66.53-22a14.78,14.78,0,0,1,6.06-11.59c5.46-3.87,10.46-1.76,11.47,4.74a1.9,1.9,0,0,0,.3.52h7.84c-.11-5.44-1.32-10.19-6.21-12.71C470,410.3,463.43,412,457.38,417.37Z" transform="translate(-257.2 -238.16)"/><path class="cls-1" d="M601.85,459.23V413.36H583.51c-4.4,0-4.27,0-4.42,4.5-.08,2.49.55,3.58,3.24,3.36s5.48.07,8.21-.09c2.27-.13,3,.59,3,3-.12,10.56-.06,21.13,0,31.69,0,1.13.11,2.26.17,3.45Z" transform="translate(-257.2 -238.16)"/><path class="cls-1" d="M602.08,402.64V392.26H590.57v10.38Z" transform="translate(-257.2 -238.16)"/><path class="cls-1" d="M451.18,271.12V238.44c.95-.06,1.79-.18,2.64-.18q58,0,116,0c19.52,0,36.29,15.18,36.94,33.4.24,6.65,0,13.31,0,20,0,13.21-.31,26.43.08,39.63.52,17.9-13.94,34.15-33.22,36.19a65.86,65.86,0,0,1-7,.34q-55.93,0-111.86,0h-4c-.09-1.21-.2-2.14-.21-3.08,0-8.71.09-17.42-.06-26.13,0-2.59.7-3.3,3.28-3.29,32.49.08,65-.33,97.47.22,14.08.24,18.34-9,18.88-18.88.48-9,.31-18,0-27-.17-5.52-1.54-10.8-5.63-15a10.91,10.91,0,0,0-8.33-3.53q-50.64.09-101.28,0Z" transform="translate(-257.2 -238.16)"/><path class="cls-1" d="M341.49,311.91l16.57-25.46q15-23,29.86-46a4.1,4.1,0,0,1,4-2.2c11.34.1,22.69,0,34.45,0-.52,1-.84,1.78-1.27,2.48q-38.44,62.47-76.87,125c-1.14,1.85-2.43,2.2-4.44,2.44-5.27.65-8.23-1.26-11.08-6C308,321.41,283,280.87,258.14,240.27c-.3-.49-.52-1-.94-1.84,1.17-.07,2.08-.17,3-.17,10.08,0,20.17.1,30.24-.08a5.72,5.72,0,0,1,5.6,3.08q21.9,34.39,44,68.69C340.38,310.5,340.81,311,341.49,311.91Z" transform="translate(-257.2 -238.16)"/><path class="cls-1" d="M801.06,238.26c-6.41,10.42-12.44,20.24-18.49,30.06Q753,316.41,723.45,364.54c-1.63,2.67-3.35,4.11-6.48,3.51a3.29,3.29,0,0,0-1.17,0c-3.48.57-5.49-.82-7.39-3.94q-37.6-61.77-75.52-123.34c-.4-.66-.75-1.34-1.3-2.32,1-.08,1.69-.19,2.41-.19,10.66,0,21.33.05,32,0a4,4,0,0,1,3.93,2.24q21.69,34,43.52,67.93c.69,1.07,1.41,2.11,2.35,3.52.72-1,1.35-1.82,1.9-2.67,14.54-22.4,29.12-44.76,43.53-67.23,1.79-2.78,3.63-3.92,7-3.83,9.78.25,19.58.09,29.36.09Z" transform="translate(-257.2 -238.16)"/><path class="cls-1" d="M258.63,273.34c2.13,3.48,4.25,7,6.37,10.44,9,14.8,18,29.59,26.85,44.44a9.5,9.5,0,0,1,1.28,4.65q.09,73.83.05,147.66c0,1-.08,1.91-.14,3H258.11V273.61Z" transform="translate(-257.2 -238.16)"/><path class="cls-1" d="M799.85,272.69V483.55H764.94V480q0-73.54.07-147.1a11.11,11.11,0,0,1,1.54-5.44c10.4-17.37,20.92-34.67,31.42-52C798.41,274.78,798.92,274.08,799.85,272.69Z" transform="translate(-257.2 -238.16)"/><path class="cls-1" d="M425.52,272.6v95.25h-34.9c-.07-.79-.22-1.62-.22-2.45,0-11.06,0-22.12,0-33.18a7.89,7.89,0,0,1,1.06-3.82q16-26.65,32.24-53.21C424.16,274.5,424.66,273.85,425.52,272.6Z" transform="translate(-257.2 -238.16)"/><path class="cls-1" d="M632.52,272.67c1,1.4,1.56,2.22,2.09,3.09,10.49,17.3,21,34.58,31.39,51.94a11.47,11.47,0,0,1,1.53,5.46c.14,10.46.07,20.93.07,31.39v3.32H632.52Z" transform="translate(-257.2 -238.16)"/><path class="cls-1" d="M317.26,442.16h9.2c.21,1,.39,2.08.6,3.09,1.16,5.54,6.17,8,12.42,6.13,5.43-1.63,8.3-6.81,6.1-11.65a10.81,10.81,0,0,0-4-4.42c-3.74-2.3-7.77-4.13-11.63-6.23a42.45,42.45,0,0,1-6-3.68,15.54,15.54,0,0,1-6.16-15.55c1-6.36,5.12-10.21,11-12.24a24,24,0,0,1,15.86-.19,15,15,0,0,1,10.47,15.05c-2.65,0-5.35.1-8-.09-.55,0-1.35-1.05-1.49-1.73-1.48-7.17-12.17-7.88-16.33-3.22a6.93,6.93,0,0,0,.81,10.39c2.82,2.21,6.13,3.8,9.25,5.61s6.42,3.37,9.39,5.4c6.45,4.43,8.59,10.81,7,18.26s-7,11.17-14.05,12.41a35.94,35.94,0,0,1-11.34.09C321.93,458.35,316.41,450.8,317.26,442.16Z" transform="translate(-257.2 -238.16)"/><path class="cls-1" d="M487.25,318.09H451.33V287.76h35.92Z" transform="translate(-257.2 -238.16)"/><path class="cls-1" d="M421.39,437.68H389.75a12.17,12.17,0,0,0,5.49,13.11c4.42,2.58,10.23,2.2,13.64-.82a3.51,3.51,0,0,1,2-.87c2.43-.11,4.87,0,7.94,0a18,18,0,0,1-.95,3.54c-2.19,4.27-6,6.28-10.55,7.09-17.36,3.12-29.16-8.53-27.23-26.75.93-8.75,4.24-15.91,12.91-19.37,13-5.19,24.82,1.29,27.42,15C421,431.44,421.05,434.36,421.39,437.68ZM412,430.07c-.44-6.83-5.06-11-11.42-10.69-6.11.31-11.11,5.17-10.92,10.69Z" transform="translate(-257.2 -238.16)"/><path class="cls-1" d="M741.77,437.65H710a12.26,12.26,0,0,0,5.23,13,12.07,12.07,0,0,0,14.09-.8,3.14,3.14,0,0,1,1.78-.72c2.53-.08,5.06,0,7.92,0a10,10,0,0,1-4.64,7.89c-10.25,7.32-27.15,2.63-31.87-9a31,31,0,0,1-.09-23.48c3.3-8.46,11.3-13,21.23-12.38,8.36.52,14.28,5.58,16.53,14.57C741,430.06,741.2,433.67,741.77,437.65Zm-9.53-7.57c-.2-6.5-4.55-10.67-10.79-10.71s-11.51,4.79-11.59,10.71Z" transform="translate(-257.2 -238.16)"/><path class="cls-1" d="M505.65,412.74a49.88,49.88,0,0,1,7.43.12c.86.14,1.83,1.54,2.2,2.56,4.11,11.31,8.1,22.65,12.13,34,.35,1,.74,2,1.39,3.66.66-1.64,1.07-2.58,1.41-3.54,4-11.14,8-22.27,11.81-33.47.86-2.52,2-3.8,4.76-3.37a36,36,0,0,0,4.81,0c-.41,1.3-.66,2.2-1,3.08-5,13.69-10,27.36-14.9,41.08-.73,2.05-1.79,2.74-3.85,2.6-3-.2-6.75.85-8.84-.59s-2.58-5.23-3.62-8.05q-6.28-17.07-12.47-34.16C506.51,415.51,506.16,414.32,505.65,412.74Z" transform="translate(-257.2 -238.16)"/><path class="cls-1" d="M675.21,444.59c-.13,10.19-7.5,16.19-18.18,15.47-8-.53-13.07-4.85-15.58-12.18a35.94,35.94,0,0,1-.17-23.09c3.52-10.9,16.82-16,27-10.52,4.35,2.35,6.34,6.14,6.65,11.45-2.57,0-5,.08-7.38-.06A2.17,2.17,0,0,1,666,424.4a6.07,6.07,0,0,0-5.73-4.66c-3.71-.34-7.09.32-9.35,3.6a11.25,11.25,0,0,0-1.72,3.7,34.91,34.91,0,0,0,.51,18.83c1.45,4.54,4.39,6.68,8.57,6.69s6.63-1.78,7.61-5.86c.36-1.53.93-2.19,2.51-2.13C670.6,444.65,672.83,444.59,675.21,444.59Z" transform="translate(-257.2 -238.16)"/><path class="cls-1" d="M457.38,417.37c6.05-5.37,12.57-7.07,19.67-3.43,4.89,2.52,6.1,7.27,6.21,12.71h-7.84a1.9,1.9,0,0,1-.3-.52c-1-6.5-6-8.61-11.47-4.74A14.78,14.78,0,0,0,457.59,433c-.46,7.31-.39,14.65-.53,22,0,1.35,0,2.7,0,4.27h-7.82c-.08-1-.21-1.88-.21-2.81,0-13.49.05-27-.07-40.47,0-2.6.72-3.38,3.3-3.28C456.72,412.83,456.73,412.68,457.38,417.37Z" transform="translate(-257.2 -238.16)"/><path class="cls-1" d="M601.85,459.23h-8.17c-.06-1.19-.17-2.32-.17-3.45,0-10.56-.07-21.13,0-31.69,0-2.37-.75-3.09-3-3-2.73.16-5.49-.14-8.21.09s-3.32-.87-3.24-3.36c.15-4.5,0-4.5,4.42-4.5h18.34Z" transform="translate(-257.2 -238.16)"/><path class="cls-1" d="M602.08,402.64H590.57V392.26h11.51Z" transform="translate(-257.2 -238.16)"/><path class="cls-1" d="M412,430.07H389.7c-.19-5.52,4.81-10.38,10.92-10.69C407,419.06,411.6,423.24,412,430.07Z" transform="translate(-257.2 -238.16)"/><path class="cls-1" d="M732.24,430.08H709.86c.08-5.92,5.34-10.76,11.59-10.71S732,423.58,732.24,430.08Z" transform="translate(-257.2 -238.16)"/></svg>