<?xml version="1.0" encoding="UTF-8" standalone="no"?>
<!DOCTYPE svg PUBLIC "-//W3C//DTD SVG 1.1//EN" "http://www.w3.org/Graphics/SVG/1.1/DTD/svg11.dtd">
<svg version="1.1" xmlns="http://www.w3.org/2000/svg" xmlns:xlink="http://www.w3.org/1999/xlink" preserveAspectRatio="xMidYMid meet" viewBox="0 0 250 250" width="250" height="250"><defs><path d="M226.56 124.46L226.56 130.93L151.19 130.93L151.19 124.46L158.04 124.46L158.04 117.99L164.89 117.99L164.89 124.46L171.74 124.46L171.74 111.52L178.6 111.52L178.6 124.46L185.45 124.46L185.45 101.81L192.3 101.81L192.3 124.46L199.15 124.46L199.15 92.1L206.01 92.1L206.01 124.46L212.86 124.46L212.86 85.63L219.71 85.63L219.71 124.46L226.56 124.46Z" id="bk3rRCy2"></path><path d="M201.87 27.53L203.2 27.68L204.51 27.9L205.8 28.17L207.06 28.5L208.3 28.88L209.51 29.32L210.7 29.81L211.85 30.35L212.98 30.94L214.07 31.58L215.12 32.26L216.14 32.99L217.13 33.76L218.07 34.57L218.97 35.42L219.83 36.31L220.65 37.24L221.42 38.2L222.14 39.2L222.81 40.23L223.44 41.29L224.01 42.38L224.53 43.5L224.99 44.65L225.4 45.82L225.75 47.01L226.04 48.23L226.26 49.46L226.43 50.72L226.53 51.99L226.56 53.28L226.53 54.57L226.43 55.85L226.26 57.1L226.04 58.34L225.75 59.56L225.4 60.75L224.99 61.92L224.53 63.07L224.01 64.18L223.44 65.27L222.81 66.34L222.14 67.37L221.42 68.36L220.65 69.33L219.83 70.25L218.97 71.14L218.07 72L217.13 72.81L216.14 73.58L215.12 74.31L214.07 74.99L212.98 75.63L211.85 76.21L210.7 76.75L209.51 77.24L208.3 77.68L207.06 78.07L205.8 78.4L204.51 78.67L203.2 78.88L201.87 79.04L200.52 79.13L199.15 79.16L197.79 79.13L196.44 79.04L195.11 78.88L193.8 78.67L192.51 78.4L191.25 78.07L190.01 77.68L188.79 77.24L187.61 76.75L186.45 76.21L185.33 75.63L184.24 74.99L183.18 74.31L182.16 73.58L181.18 72.81L180.24 72L179.34 71.14L178.48 70.25L177.66 69.33L176.89 68.36L176.17 67.37L175.49 66.34L174.87 65.27L174.3 64.18L173.78 63.07L173.31 61.92L172.91 60.75L172.56 59.56L172.27 58.34L172.04 57.1L171.88 55.85L171.78 54.57L171.74 53.28L171.78 51.99L171.88 50.72L172.04 49.46L172.27 48.23L172.56 47.01L172.91 45.82L173.31 44.65L173.78 43.5L174.3 42.38L174.87 41.29L175.49 40.23L176.17 39.2L176.89 38.2L177.66 37.24L178.48 36.31L179.34 35.42L180.24 34.57L181.18 33.76L182.16 32.99L183.18 32.26L184.24 31.58L185.33 30.94L186.45 30.35L187.61 29.81L188.79 29.32L190.01 28.88L191.25 28.5L192.51 28.17L193.8 27.9L195.11 27.68L196.44 27.53L197.79 27.43L199.15 27.4L200.52 27.43L201.87 27.53ZM195.73 37.7L195.33 37.84L194.95 38L194.57 38.17L194.2 38.35L193.84 38.55L193.49 38.76L193.15 38.98L192.81 39.22L192.49 39.47L192.18 39.72L191.88 39.99L191.6 40.28L191.32 40.57L191.06 40.87L190.81 41.18L190.57 41.5L190.35 41.83L190.14 42.17L189.95 42.52L189.77 42.88L189.6 43.24L189.45 43.61L189.32 43.99L189.21 44.38L189.11 44.77L189.02 45.17L188.96 45.57L188.91 45.98L188.88 46.39L188.87 46.81L188.89 47.34L188.94 47.87L189.01 48.38L189.11 48.89L189.24 49.39L189.4 49.88L189.58 50.35L189.79 50.82L190.02 51.27L190.28 51.71L190.56 52.13L190.86 52.54L191.18 52.93L191.53 53.31L191.89 53.67L192.27 54.01L192.67 54.34L193.09 54.64L193.52 54.93L193.97 55.19L194.43 55.43L194.91 55.65L195.4 55.85L195.91 56.02L196.42 56.17L196.95 56.29L197.49 56.39L198.04 56.46L198.59 56.5L199.15 56.52L199.34 56.52L199.53 56.54L199.71 56.56L199.89 56.59L200.06 56.63L200.24 56.68L200.4 56.74L200.57 56.81L200.73 56.88L200.88 56.96L201.03 57.05L201.18 57.14L201.32 57.24L201.45 57.35L201.58 57.47L201.7 57.59L201.81 57.71L201.92 57.84L202.02 57.98L202.11 58.12L202.2 58.27L202.27 58.42L202.34 58.57L202.4 58.73L202.46 58.89L202.5 59.06L202.53 59.23L202.56 59.4L202.57 59.58L202.58 59.75L202.57 59.93L202.56 60.11L202.53 60.28L202.5 60.45L202.46 60.61L202.4 60.78L202.34 60.93L202.27 61.09L202.2 61.24L202.11 61.39L202.02 61.53L201.92 61.66L201.81 61.79L201.7 61.92L201.58 62.04L201.45 62.15L201.32 62.26L201.18 62.36L201.03 62.46L200.88 62.55L200.73 62.63L200.57 62.7L200.4 62.77L200.24 62.82L200.06 62.87L199.89 62.91L199.71 62.95L199.53 62.97L199.34 62.98L199.15 62.99L198.97 62.98L198.78 62.97L198.6 62.95L198.42 62.91L198.24 62.87L198.07 62.82L197.9 62.77L197.74 62.7L197.58 62.63L197.42 62.55L197.28 62.46L197.13 62.36L196.99 62.26L196.86 62.15L196.73 62.04L196.61 61.92L196.5 61.79L196.39 61.66L196.29 61.53L196.2 61.39L196.11 61.24L196.03 61.09L195.96 60.93L195.9 60.78L195.85 60.61L195.81 60.45L195.77 60.28L195.75 60.11L195.73 59.93L195.73 59.75L188.87 59.75L188.88 60.17L188.91 60.59L188.96 61L189.02 61.4L189.11 61.8L189.21 62.19L189.32 62.57L189.45 62.95L189.6 63.33L189.77 63.69L189.95 64.05L190.14 64.39L190.35 64.73L190.57 65.06L190.81 65.39L191.06 65.7L191.32 66L191.6 66.29L191.88 66.57L192.18 66.84L192.49 67.1L192.81 67.35L193.15 67.58L193.49 67.81L193.84 68.02L194.2 68.21L194.57 68.4L194.95 68.57L195.33 68.72L195.73 68.86L195.73 72.69L202.58 72.69L202.58 68.86L202.97 68.72L203.36 68.57L203.74 68.4L204.11 68.21L204.47 68.02L204.82 67.81L205.16 67.58L205.49 67.35L205.81 67.1L206.12 66.84L206.42 66.57L206.71 66.29L206.99 66L207.25 65.7L207.5 65.39L207.73 65.06L207.96 64.73L208.17 64.39L208.36 64.05L208.54 63.69L208.7 63.33L208.85 62.95L208.98 62.57L209.1 62.19L209.2 61.8L209.28 61.4L209.35 61L209.39 60.59L209.42 60.17L209.43 59.75L209.42 59.22L209.37 58.7L209.3 58.18L209.19 57.67L209.06 57.18L208.91 56.69L208.72 56.21L208.52 55.75L208.28 55.3L208.03 54.86L207.75 54.44L207.45 54.03L207.12 53.63L206.78 53.25L206.42 52.89L206.04 52.55L205.64 52.23L205.22 51.92L204.79 51.64L204.34 51.38L203.87 51.13L203.39 50.91L202.9 50.72L202.4 50.54L201.88 50.4L201.36 50.27L200.82 50.18L200.27 50.11L199.72 50.06L199.15 50.05L198.97 50.04L198.78 50.03L198.6 50.01L198.42 49.97L198.24 49.93L198.07 49.88L197.9 49.83L197.74 49.76L197.58 49.69L197.42 49.61L197.28 49.52L197.13 49.42L196.99 49.32L196.86 49.21L196.73 49.1L196.61 48.98L196.5 48.85L196.39 48.72L196.29 48.59L196.2 48.45L196.11 48.3L196.03 48.15L195.96 47.99L195.9 47.83L195.85 47.67L195.81 47.51L195.77 47.34L195.75 47.17L195.73 46.99L195.73 46.81L195.73 46.64L195.75 46.46L195.77 46.29L195.81 46.12L195.85 45.95L195.9 45.79L195.96 45.63L196.03 45.48L196.11 45.33L196.2 45.18L196.29 45.04L196.39 44.9L196.5 44.77L196.61 44.65L196.73 44.53L196.86 44.41L196.99 44.3L197.13 44.2L197.28 44.11L197.42 44.02L197.58 43.94L197.74 43.87L197.9 43.8L198.07 43.74L198.24 43.69L198.42 43.65L198.6 43.62L198.78 43.6L198.97 43.58L199.15 43.58L199.34 43.58L199.53 43.6L199.71 43.62L199.89 43.65L200.06 43.69L200.24 43.74L200.4 43.8L200.57 43.87L200.73 43.94L200.88 44.02L201.03 44.11L201.18 44.2L201.32 44.3L201.45 44.41L201.58 44.53L201.7 44.65L201.81 44.77L201.92 44.9L202.02 45.04L202.11 45.18L202.2 45.33L202.27 45.48L202.34 45.63L202.4 45.79L202.46 45.95L202.5 46.12L202.53 46.29L202.56 46.46L202.57 46.64L202.58 46.81L209.43 46.81L209.42 46.39L209.39 45.98L209.35 45.57L209.28 45.17L209.2 44.77L209.1 44.38L208.98 43.99L208.85 43.61L208.7 43.24L208.54 42.88L208.36 42.52L208.17 42.17L207.96 41.83L207.73 41.5L207.5 41.18L207.25 40.87L206.99 40.57L206.71 40.28L206.42 39.99L206.12 39.72L205.81 39.47L205.49 39.22L205.16 38.98L204.82 38.76L204.47 38.55L204.11 38.35L203.74 38.17L203.36 38L202.97 37.84L202.58 37.7L202.58 33.87L195.73 33.87L195.73 37.7Z" id="d7tvyXndR"></path><path d="M134.06 160.04L134.06 153.57L138.99 153.57L143.21 160.04L134.06 160.04Z" id="cDHLQ1UI"></path><path d="M127 200.68L126.79 200.66L126.58 200.65L126.37 200.63L126.17 200.61L125.96 200.59L125.75 200.58L125.54 200.56L125.33 200.54L125.13 200.52L124.92 200.51L124.71 200.49L124.5 200.47L124.3 200.45L124.09 200.43L123.88 200.42L123.67 200.4L123.47 200.38L123.26 200.36L123.05 200.34L122.84 200.32L122.63 200.3L122.43 200.28L122.22 200.27L122.01 200.25L121.8 200.23L121.6 200.21L121.39 200.19L121.18 200.17L120.97 200.15L120.77 200.13L120.56 200.1L120.35 200.08L120.35 124.46L127.2 124.46L127.2 200.7L127 200.68Z" id="dHHc00EJg"></path><path d="M81.57 37.3L82.69 37.52L83.78 37.84L84.83 38.23L85.83 38.7L86.78 39.25L87.68 39.86L88.52 40.54L89.31 41.28L90.03 42.08L90.68 42.93L91.25 43.83L91.75 44.77L92.17 45.76L92.5 46.78L92.74 47.84L92.89 48.93L92.94 50.05L92.94 56.52L92.89 57.63L92.74 58.72L92.5 59.78L92.17 60.81L91.75 61.79L91.25 62.74L90.68 63.64L90.03 64.49L89.31 65.29L88.52 66.03L87.68 66.71L86.78 67.32L85.83 67.86L84.83 68.33L83.78 68.73L82.69 69.04L81.57 69.27L80.42 69.41L79.24 69.46L78.06 69.41L76.9 69.27L75.78 69.04L74.7 68.73L73.65 68.33L72.65 67.86L71.7 67.32L70.79 66.71L69.95 66.03L69.17 65.29L68.45 64.49L67.8 63.64L67.22 62.74L66.72 61.79L66.31 60.81L65.97 59.78L65.73 58.72L65.58 57.63L65.53 56.52L65.53 50.05L65.58 48.93L65.73 47.84L65.97 46.78L66.31 45.76L66.72 44.77L67.22 43.83L67.8 42.93L68.45 42.08L69.17 41.28L69.95 40.54L70.79 39.86L71.7 39.25L72.65 38.7L73.65 38.23L74.7 37.84L75.78 37.52L76.9 37.3L78.06 37.16L79.24 37.11L80.42 37.16L81.57 37.3Z" id="bwYUJr2M9"></path><path d="M84.18 92.12L84.37 92.14L84.57 92.17L84.76 92.21L84.95 92.25L85.14 92.31L85.32 92.36L85.5 92.43L85.68 92.5L85.86 92.58L86.03 92.67L86.19 92.76L86.35 92.86L86.51 92.97L86.66 93.08L86.81 93.2L86.95 93.33L87.08 93.46L87.21 93.59L87.34 93.73L87.45 93.88L87.56 94.03L87.67 94.19L87.77 94.35L87.86 94.51L87.94 94.69L88.02 94.86L88.08 95.04L93.9 111.52L127.2 111.52L127.66 111.52L128.12 111.55L128.57 111.6L129.01 111.67L129.45 111.75L129.88 111.85L130.3 111.96L130.72 112.1L131.12 112.25L131.52 112.41L131.91 112.59L132.29 112.79L132.66 113L133.02 113.22L133.37 113.46L133.71 113.71L134.03 113.97L134.35 114.25L134.65 114.54L134.94 114.84L135.22 115.15L135.48 115.47L135.73 115.8L135.96 116.14L136.18 116.49L136.38 116.85L136.57 117.22L136.74 117.6L136.9 117.99L88.35 117.99L79.6 98.72L79.58 98.66L79.55 98.61L79.53 98.55L79.51 98.5L79.49 98.44L79.47 98.38L79.45 98.33L79.43 98.27L79.41 98.21L79.39 98.16L79.38 98.1L79.36 98.04L79.35 97.98L79.34 97.93L79.32 97.87L79.31 97.81L79.3 97.75L79.29 97.69L79.28 97.63L79.27 97.57L79.27 97.51L79.26 97.45L79.25 97.39L79.25 97.33L79.24 97.27L79.24 97.21L79.24 97.15L79.24 97.09L79.24 97.03L79.24 96.39L79.24 96.15L79.27 95.91L79.3 95.67L79.35 95.44L79.41 95.22L79.49 95L79.57 94.78L79.67 94.57L79.78 94.36L79.9 94.17L80.03 93.98L80.17 93.79L80.32 93.61L80.48 93.45L80.65 93.29L80.83 93.13L81.02 92.99L81.22 92.86L81.42 92.73L81.63 92.62L81.84 92.52L82.07 92.42L82.3 92.34L82.53 92.27L82.77 92.21L83.02 92.17L83.26 92.13L83.52 92.11L83.77 92.11L83.98 92.11L84.18 92.12Z" id="a2sdu1o4Ue"></path><path d="M142.56 137.41L142.76 137.42L142.96 137.44L143.16 137.47L143.36 137.5L143.56 137.53L143.76 137.58L143.95 137.62L144.15 137.68L144.34 137.73L144.53 137.8L144.71 137.86L144.9 137.94L145.08 138.02L145.26 138.1L145.43 138.19L145.6 138.28L145.78 138.38L145.94 138.48L146.11 138.58L146.27 138.7L146.43 138.81L146.58 138.93L146.73 139.06L146.88 139.19L147.02 139.32L147.16 139.46L147.3 139.6L147.43 139.74L147.56 139.89L147.68 140.05L147.8 140.21L147.91 140.37L176.5 182.36L190.52 185L190.61 185.02L190.7 185.05L190.78 185.07L190.87 185.1L190.95 185.13L191.03 185.17L191.12 185.21L191.19 185.25L191.27 185.29L191.34 185.34L191.42 185.39L191.49 185.44L191.55 185.49L191.62 185.55L191.68 185.61L191.74 185.67L191.8 185.73L191.85 185.8L191.9 185.86L191.95 185.93L192 186.01L192.04 186.08L192.08 186.15L192.12 186.23L192.15 186.31L192.18 186.39L192.21 186.47L192.23 186.55L192.25 186.63L192.27 186.72L192.28 186.8L192.29 186.89L192.3 186.97L192.3 187.06L192.3 187.16L192.29 187.26L192.28 187.36L192.26 187.46L192.24 187.56L192.21 187.65L192.18 187.74L192.15 187.83L192.11 187.92L192.06 188.01L192.01 188.09L191.96 188.17L191.91 188.25L191.85 188.33L191.78 188.4L191.72 188.47L191.65 188.54L191.58 188.61L191.5 188.67L191.42 188.73L191.34 188.79L191.26 188.84L191.17 188.89L191.08 188.93L190.99 188.97L190.9 189.01L190.8 189.04L190.7 189.07L190.6 189.1L190.5 189.12L190.4 189.14L190.29 189.15L190.19 189.16L190.08 189.16L170.23 189.16L142.82 147.1L134.06 147.1L134.06 137.4L142.14 137.4L142.35 137.4L142.56 137.41Z" id="a4r7F7Geaa"></path><path d="M47.28 192.39L47.31 192.39L47.34 192.4L47.38 192.4L47.41 192.4L47.44 192.4L47.48 192.4L47.51 192.4L47.54 192.41L47.57 192.41L47.61 192.41L47.64 192.41L47.67 192.42L47.71 192.42L47.74 192.42L47.77 192.43L47.8 192.43L47.84 192.44L47.87 192.44L47.9 192.45L47.93 192.45L47.97 192.46L48 192.46L48.03 192.47L48.06 192.47L48.1 192.48L48.13 192.49L48.16 192.49L48.19 192.5L48.23 192.51L48.26 192.51L48.29 192.52L48.32 192.53L48.36 192.54L48.39 192.55L48.42 192.55L48.45 192.56L48.48 192.57L48.52 192.58L51.22 193.37L53.92 194.13L56.63 194.88L59.34 195.61L62.06 196.31L64.79 197L67.51 197.67L70.25 198.32L72.98 198.95L75.72 199.55L78.47 200.14L81.22 200.71L83.97 201.26L86.73 201.79L89.49 202.3L92.26 202.79L95.02 203.26L97.8 203.71L100.57 204.14L103.35 204.55L106.13 204.94L108.92 205.31L111.7 205.67L114.5 206L117.29 206.31L120.09 206.6L122.88 206.87L125.69 207.12L128.49 207.35L131.3 207.56L134.1 207.75L136.91 207.92L139.73 208.08L142.54 208.21L145.36 208.32L148.18 208.41L151 208.48L153.82 208.53L156.64 208.56L159.46 208.57L182.02 208.57L182.16 208.57L182.3 208.58L182.44 208.59L182.58 208.61L182.71 208.63L182.85 208.66L182.98 208.7L183.11 208.73L183.23 208.78L183.36 208.82L183.48 208.88L183.6 208.93L183.71 208.99L183.83 209.05L183.94 209.12L184.05 209.19L184.15 209.27L184.25 209.35L184.35 209.43L184.45 209.52L184.54 209.61L184.62 209.7L184.71 209.8L184.79 209.9L184.86 210L184.94 210.1L185 210.21L185.07 210.32L185.13 210.43L185.18 210.55L185.23 210.67L185.27 210.79L185.31 210.91L185.35 211.03L185.38 211.16L185.4 211.28L185.42 211.41L185.44 211.54L185.45 211.67L185.45 211.81L185.45 211.94L185.44 212.07L185.42 212.2L185.4 212.33L185.38 212.46L185.35 212.58L185.31 212.71L185.27 212.83L185.23 212.95L185.18 213.07L185.13 213.18L185.07 213.29L185 213.4L184.94 213.51L184.86 213.62L184.79 213.72L184.71 213.82L184.62 213.91L184.54 214.01L184.45 214.09L184.35 214.18L184.25 214.26L184.15 214.34L184.05 214.42L183.94 214.49L183.83 214.56L183.71 214.62L183.6 214.68L183.48 214.74L183.36 214.79L183.23 214.84L183.11 214.88L182.98 214.92L182.85 214.95L182.71 214.98L182.58 215L182.44 215.02L182.3 215.03L182.16 215.04L182.02 215.04L150.03 215.04L147.55 215.03L145.08 215.01L142.6 214.97L140.13 214.92L137.65 214.84L135.18 214.76L132.71 214.65L130.24 214.54L127.77 214.4L125.3 214.25L122.84 214.08L120.37 213.9L117.91 213.7L115.45 213.49L112.99 213.26L110.53 213.02L108.07 212.76L105.62 212.48L103.17 212.19L100.72 211.88L98.27 211.56L95.83 211.22L93.38 210.87L90.94 210.5L88.5 210.11L86.07 209.71L83.64 209.29L81.21 208.86L78.78 208.41L76.36 207.95L73.94 207.47L71.52 206.97L69.11 206.46L66.7 205.94L64.29 205.4L61.89 204.84L59.49 204.27L57.09 203.68L54.7 203.08L52.31 202.46L44.74 200.48L44.6 200.44L44.46 200.4L44.33 200.35L44.19 200.3L44.06 200.24L43.94 200.18L43.81 200.12L43.69 200.05L43.57 199.98L43.45 199.91L43.33 199.83L43.22 199.75L43.11 199.67L43.01 199.58L42.91 199.49L42.81 199.4L42.71 199.3L42.62 199.21L42.53 199.1L42.44 199L42.36 198.89L42.28 198.79L42.2 198.67L42.13 198.56L42.06 198.45L42 198.33L41.94 198.21L41.88 198.09L41.83 197.96L41.78 197.84L41.74 197.71L41.7 197.58L41.67 197.45L41.64 197.32L41.61 197.19L41.59 197.06L41.57 196.92L41.56 196.79L41.55 196.65L41.55 196.51L41.55 196.34L41.56 196.17L41.58 196.01L41.61 195.85L41.64 195.68L41.68 195.52L41.72 195.37L41.77 195.21L41.83 195.06L41.89 194.91L41.96 194.76L42.04 194.62L42.12 194.48L42.2 194.34L42.3 194.21L42.39 194.08L42.49 193.96L42.6 193.83L42.71 193.72L42.83 193.6L42.95 193.49L43.07 193.39L43.2 193.29L43.34 193.19L43.47 193.1L43.61 193.01L43.76 192.93L43.91 192.85L44.06 192.78L44.21 192.72L44.37 192.66L44.53 192.6L44.7 192.56L44.86 192.51L45.03 192.48L45.2 192.45L45.38 192.42L45.55 192.41L45.73 192.4L45.91 192.39L47.21 192.39L47.25 192.39L47.28 192.39Z" id="k1URZ1qGG1"></path><path d="M73.86 192.45L73.15 192.29L72.44 192.13L71.73 191.97L71.02 191.8L70.31 191.64L69.6 191.47L68.9 191.3L68.19 191.13L67.48 190.96L66.77 190.79L66.06 190.61L65.36 190.44L64.65 190.26L74.71 166.51L84.63 166.51L74.58 192.61L73.86 192.45Z" id="b1g2kXNWWZ"></path><path d="M87.09 78.22L87.58 78.68L88.06 79.15L88.54 79.62L89.01 80.09L89.47 80.57L89.93 81.05L90.38 81.54L90.83 82.03L91.28 82.52L91.72 83.02L92.15 83.52L92.58 84.02L93 84.53L93.42 85.04L93.83 85.55L94.24 86.07L94.64 86.59L95.04 87.12L95.43 87.65L95.81 88.18L96.19 88.72L96.57 89.26L96.94 89.8L97.3 90.34L97.66 90.89L98.01 91.45L98.36 92L98.7 92.56L99.04 93.12L99.37 93.69L99.7 94.26L100.01 94.83L100.33 95.41L100.64 95.98L100.94 96.57L101.24 97.15L101.53 97.74L101.82 98.33L102.1 98.93L102.37 99.52L104.88 105.05L98.84 105.05L94.58 92.99L94.46 92.66L94.33 92.34L94.18 92.03L94.03 91.72L93.87 91.41L93.7 91.11L93.52 90.82L93.33 90.54L93.13 90.26L92.93 89.99L92.71 89.72L92.49 89.46L92.26 89.21L92.02 88.97L91.77 88.73L91.52 88.5L91.26 88.28L90.99 88.07L90.72 87.86L90.44 87.67L90.15 87.48L89.86 87.3L89.56 87.12L89.25 86.96L88.94 86.81L88.63 86.66L88.31 86.52L87.98 86.4L87.65 86.28L87.32 86.17L86.98 86.07L86.64 85.98L86.29 85.9L85.94 85.83L85.59 85.77L85.23 85.72L84.87 85.69L84.51 85.66L84.14 85.64L83.77 85.64L83.31 85.65L82.84 85.67L82.38 85.72L81.93 85.78L81.48 85.86L81.04 85.95L80.61 86.06L80.18 86.19L79.76 86.33L79.35 86.48L78.94 86.65L78.55 86.84L78.16 87.04L77.78 87.25L77.41 87.48L77.05 87.72L76.7 87.97L76.37 88.23L76.04 88.5L75.73 88.79L75.42 89.09L75.13 89.4L74.85 89.72L74.59 90.04L74.33 90.38L74.09 90.73L73.87 91.09L73.66 91.45L73.46 91.83L73.28 92.21L73.12 92.6L72.97 93L72.83 93.4L72.72 93.81L72.62 94.23L72.53 94.65L72.47 95.08L72.42 95.51L72.39 95.95L72.39 96.39L72.39 97.03L72.39 97.14L72.39 97.25L72.39 97.36L72.39 97.47L72.4 97.58L72.41 97.69L72.41 97.8L72.42 97.91L72.43 98.02L72.44 98.12L72.46 98.23L72.47 98.34L72.48 98.45L72.5 98.56L72.52 98.66L72.53 98.77L72.55 98.88L72.57 98.98L72.59 99.09L72.62 99.2L72.64 99.3L72.67 99.41L72.69 99.52L72.72 99.62L72.75 99.73L72.78 99.83L72.81 99.93L72.84 100.04L72.87 100.14L72.91 100.25L72.94 100.35L72.98 100.45L73.01 100.56L73.05 100.66L73.09 100.76L73.13 100.86L73.17 100.96L73.22 101.07L73.26 101.17L73.31 101.27L83.83 124.46L113.5 124.46L113.5 147.1L84.97 147.1L62.65 95.38L72.39 80.06L72.39 74.8L72.55 74.85L72.71 74.9L72.87 74.95L73.03 75L73.2 75.05L73.36 75.1L73.53 75.15L73.69 75.19L73.86 75.23L74.02 75.28L74.19 75.32L74.36 75.36L74.53 75.4L74.69 75.43L74.86 75.47L75.03 75.51L75.2 75.54L75.37 75.57L75.54 75.6L75.72 75.63L75.89 75.66L76.06 75.69L76.23 75.71L76.41 75.74L76.58 75.76L76.75 75.78L76.93 75.8L77.1 75.82L77.28 75.84L77.45 75.85L77.63 75.87L77.81 75.88L77.98 75.89L78.16 75.9L78.34 75.91L78.52 75.92L78.7 75.92L78.88 75.93L79.06 75.93L79.24 75.93L79.42 75.93L79.6 75.93L79.78 75.92L79.96 75.92L80.13 75.91L80.31 75.9L80.49 75.89L80.67 75.88L80.84 75.87L81.02 75.85L81.2 75.84L81.37 75.82L81.55 75.8L81.72 75.78L81.9 75.76L82.07 75.74L82.24 75.71L82.42 75.69L82.59 75.66L82.76 75.63L82.93 75.6L83.1 75.57L83.27 75.54L83.44 75.51L83.61 75.47L83.78 75.44L83.95 75.4L84.12 75.36L84.28 75.32L84.45 75.28L84.62 75.24L84.78 75.19L84.95 75.15L85.11 75.1L85.28 75.05L85.44 75L85.6 74.95L85.77 74.9L85.93 74.85L86.09 74.8L86.09 77.27L87.09 78.22Z" id="a3ag4Akkd"></path><path d="M37.36 53.79L38.53 54.39L39.54 55.18L40.38 56.14L41.01 57.24L41.41 58.45L41.55 59.75L41.41 61.06L41.01 62.27L40.38 63.37L39.54 64.33L38.53 65.12L37.36 65.72L36.08 66.09L34.7 66.22L33.32 66.09L32.03 65.72L30.87 65.12L29.85 64.33L29.02 63.37L28.38 62.27L27.98 61.06L27.85 59.75L27.98 58.45L28.38 57.24L29.02 56.14L29.85 55.18L30.87 54.39L32.03 53.79L33.32 53.41L34.7 53.28L36.08 53.41L37.36 53.79Z" id="ft1OgcbQX"></path><path d="M113.5 153.57L113.5 160.04L74.67 160.04L36.33 72.54L36.55 72.51L36.77 72.48L36.98 72.45L37.2 72.41L37.41 72.37L37.63 72.33L37.84 72.29L38.05 72.24L38.26 72.19L38.47 72.13L38.68 72.08L38.88 72.02L39.09 71.95L39.29 71.89L39.49 71.82L39.69 71.75L39.89 71.67L40.09 71.6L40.28 71.52L40.48 71.43L40.67 71.35L40.86 71.26L41.05 71.17L41.23 71.07L41.42 70.98L41.6 70.88L41.78 70.78L41.96 70.67L42.14 70.57L42.32 70.46L42.49 70.35L42.66 70.23L42.83 70.11L43 69.99L43.17 69.87L43.33 69.75L43.5 69.62L43.66 69.49L43.81 69.36L43.97 69.23L80.36 153.57L113.5 153.57Z" id="f4Uq8krPd"></path></defs><g><g><g><g><filter id="shadow11347016" x="139.19" y="73.63" width="99.38" height="69.29" filterUnits="userSpaceOnUse" primitiveUnits="userSpaceOnUse"><feFlood></feFlood><feComposite in2="SourceAlpha" operator="in"></feComposite><feGaussianBlur stdDeviation="1.73"></feGaussianBlur><feOffset dx="0" dy="0" result="afterOffset"></feOffset><feFlood flood-color="#000000" flood-opacity="0.9"></feFlood><feComposite in2="afterOffset" operator="in"></feComposite><feMorphology operator="dilate" radius="1"></feMorphology><feComposite in2="SourceAlpha" operator="out"></feComposite></filter><path d="M226.56 124.46L226.56 130.93L151.19 130.93L151.19 124.46L158.04 124.46L158.04 117.99L164.89 117.99L164.89 124.46L171.74 124.46L171.74 111.52L178.6 111.52L178.6 124.46L185.45 124.46L185.45 101.81L192.3 101.81L192.3 124.46L199.15 124.46L199.15 92.1L206.01 92.1L206.01 124.46L212.86 124.46L212.86 85.63L219.71 85.63L219.71 124.46L226.56 124.46Z" id="cThRdPKaN" fill="white" fill-opacity="1" filter="url(#shadow11347016)"></path></g><g><filter id="shadow9529266" x="92.19" y="26.63" width="193.38" height="163.29" filterUnits="userSpaceOnUse" primitiveUnits="userSpaceOnUse"><feFlood></feFlood><feComposite in2="SourceAlpha" operator="in"></feComposite><feGaussianBlur stdDeviation="5"></feGaussianBlur><feOffset dx="0" dy="0" result="afterOffset"></feOffset><feFlood flood-color="#98c1c8" flood-opacity="1"></feFlood><feComposite in2="afterOffset" operator="in"></feComposite><feMorphology operator="dilate" radius="4"></feMorphology><feComposite in2="SourceAlpha" operator="out"></feComposite></filter><path d="M226.56 124.46L226.56 130.93L151.19 130.93L151.19 124.46L158.04 124.46L158.04 117.99L164.89 117.99L164.89 124.46L171.74 124.46L171.74 111.52L178.6 111.52L178.6 124.46L185.45 124.46L185.45 101.81L192.3 101.81L192.3 124.46L199.15 124.46L199.15 92.1L206.01 92.1L206.01 124.46L212.86 124.46L212.86 85.63L219.71 85.63L219.71 124.46L226.56 124.46Z" id="b2YfukWXo" fill="white" fill-opacity="1" filter="url(#shadow9529266)"></path></g><use xlink:href="#bk3rRCy2" opacity="1" fill="#ffffff" fill-opacity="1"></use></g><g><g><filter id="shadow16534924" x="159.74" y="15.4" width="78.82" height="75.76" filterUnits="userSpaceOnUse" primitiveUnits="userSpaceOnUse"><feFlood></feFlood><feComposite in2="SourceAlpha" operator="in"></feComposite><feGaussianBlur stdDeviation="1.73"></feGaussianBlur><feOffset dx="0" dy="0" result="afterOffset"></feOffset><feFlood flood-color="#000000" flood-opacity="0.9"></feFlood><feComposite in2="afterOffset" operator="in"></feComposite><feMorphology operator="dilate" radius="1"></feMorphology><feComposite in2="SourceAlpha" operator="out"></feComposite></filter><path d="M201.87 27.53L203.2 27.68L204.51 27.9L205.8 28.17L207.06 28.5L208.3 28.88L209.51 29.32L210.7 29.81L211.85 30.35L212.98 30.94L214.07 31.58L215.12 32.26L216.14 32.99L217.13 33.76L218.07 34.57L218.97 35.42L219.83 36.31L220.65 37.24L221.42 38.2L222.14 39.2L222.81 40.23L223.44 41.29L224.01 42.38L224.53 43.5L224.99 44.65L225.4 45.82L225.75 47.01L226.04 48.23L226.26 49.46L226.43 50.72L226.53 51.99L226.56 53.28L226.53 54.57L226.43 55.85L226.26 57.1L226.04 58.34L225.75 59.56L225.4 60.75L224.99 61.92L224.53 63.07L224.01 64.18L223.44 65.27L222.81 66.34L222.14 67.37L221.42 68.36L220.65 69.33L219.83 70.25L218.97 71.14L218.07 72L217.13 72.81L216.14 73.58L215.12 74.31L214.07 74.99L212.98 75.63L211.85 76.21L210.7 76.75L209.51 77.24L208.3 77.68L207.06 78.07L205.8 78.4L204.51 78.67L203.2 78.88L201.87 79.04L200.52 79.13L199.15 79.16L197.79 79.13L196.44 79.04L195.11 78.88L193.8 78.67L192.51 78.4L191.25 78.07L190.01 77.68L188.79 77.24L187.61 76.75L186.45 76.21L185.33 75.63L184.24 74.99L183.18 74.31L182.16 73.58L181.18 72.81L180.24 72L179.34 71.14L178.48 70.25L177.66 69.33L176.89 68.36L176.17 67.37L175.49 66.34L174.87 65.27L174.3 64.18L173.78 63.07L173.31 61.92L172.91 60.75L172.56 59.56L172.27 58.34L172.04 57.1L171.88 55.85L171.78 54.57L171.74 53.28L171.78 51.99L171.88 50.72L172.04 49.46L172.27 48.23L172.56 47.01L172.91 45.82L173.31 44.65L173.78 43.5L174.3 42.38L174.87 41.29L175.49 40.23L176.17 39.2L176.89 38.2L177.66 37.24L178.48 36.31L179.34 35.42L180.24 34.57L181.18 33.76L182.16 32.99L183.18 32.26L184.24 31.58L185.33 30.94L186.45 30.35L187.61 29.81L188.79 29.32L190.01 28.88L191.25 28.5L192.51 28.17L193.8 27.9L195.11 27.68L196.44 27.53L197.79 27.43L199.15 27.4L200.52 27.43L201.87 27.53ZM195.73 37.7L195.33 37.84L194.95 38L194.57 38.17L194.2 38.35L193.84 38.55L193.49 38.76L193.15 38.98L192.81 39.22L192.49 39.47L192.18 39.72L191.88 39.99L191.6 40.28L191.32 40.57L191.06 40.87L190.81 41.18L190.57 41.5L190.35 41.83L190.14 42.17L189.95 42.52L189.77 42.88L189.6 43.24L189.45 43.61L189.32 43.99L189.21 44.38L189.11 44.77L189.02 45.17L188.96 45.57L188.91 45.98L188.88 46.39L188.87 46.81L188.89 47.34L188.94 47.87L189.01 48.38L189.11 48.89L189.24 49.39L189.4 49.88L189.58 50.35L189.79 50.82L190.02 51.27L190.28 51.71L190.56 52.13L190.86 52.54L191.18 52.93L191.53 53.31L191.89 53.67L192.27 54.01L192.67 54.34L193.09 54.64L193.52 54.93L193.97 55.19L194.43 55.43L194.91 55.65L195.4 55.85L195.91 56.02L196.42 56.17L196.95 56.29L197.49 56.39L198.04 56.46L198.59 56.5L199.15 56.52L199.34 56.52L199.53 56.54L199.71 56.56L199.89 56.59L200.06 56.63L200.24 56.68L200.4 56.74L200.57 56.81L200.73 56.88L200.88 56.96L201.03 57.05L201.18 57.14L201.32 57.24L201.45 57.35L201.58 57.47L201.7 57.59L201.81 57.71L201.92 57.84L202.02 57.98L202.11 58.12L202.2 58.27L202.27 58.42L202.34 58.57L202.4 58.73L202.46 58.89L202.5 59.06L202.53 59.23L202.56 59.4L202.57 59.58L202.58 59.75L202.57 59.93L202.56 60.11L202.53 60.28L202.5 60.45L202.46 60.61L202.4 60.78L202.34 60.93L202.27 61.09L202.2 61.24L202.11 61.39L202.02 61.53L201.92 61.66L201.81 61.79L201.7 61.92L201.58 62.04L201.45 62.15L201.32 62.26L201.18 62.36L201.03 62.46L200.88 62.55L200.73 62.63L200.57 62.7L200.4 62.77L200.24 62.82L200.06 62.87L199.89 62.91L199.71 62.95L199.53 62.97L199.34 62.98L199.15 62.99L198.97 62.98L198.78 62.97L198.6 62.95L198.42 62.91L198.24 62.87L198.07 62.82L197.9 62.77L197.74 62.7L197.58 62.63L197.42 62.55L197.28 62.46L197.13 62.36L196.99 62.26L196.86 62.15L196.73 62.04L196.61 61.92L196.5 61.79L196.39 61.66L196.29 61.53L196.2 61.39L196.11 61.24L196.03 61.09L195.96 60.93L195.9 60.78L195.85 60.61L195.81 60.45L195.77 60.28L195.75 60.11L195.73 59.93L195.73 59.75L188.87 59.75L188.88 60.17L188.91 60.59L188.96 61L189.02 61.4L189.11 61.8L189.21 62.19L189.32 62.57L189.45 62.95L189.6 63.33L189.77 63.69L189.95 64.05L190.14 64.39L190.35 64.73L190.57 65.06L190.81 65.39L191.06 65.7L191.32 66L191.6 66.29L191.88 66.57L192.18 66.84L192.49 67.1L192.81 67.35L193.15 67.58L193.49 67.81L193.84 68.02L194.2 68.21L194.57 68.4L194.95 68.57L195.33 68.72L195.73 68.86L195.73 72.69L202.58 72.69L202.58 68.86L202.97 68.72L203.36 68.57L203.74 68.4L204.11 68.21L204.47 68.02L204.82 67.81L205.16 67.58L205.49 67.35L205.81 67.1L206.12 66.84L206.42 66.57L206.71 66.29L206.99 66L207.25 65.7L207.5 65.39L207.73 65.06L207.96 64.73L208.17 64.39L208.36 64.05L208.54 63.69L208.7 63.33L208.85 62.95L208.98 62.57L209.1 62.19L209.2 61.8L209.28 61.4L209.35 61L209.39 60.59L209.42 60.17L209.43 59.75L209.42 59.22L209.37 58.7L209.3 58.18L209.19 57.67L209.06 57.18L208.91 56.69L208.72 56.21L208.52 55.75L208.28 55.3L208.03 54.86L207.75 54.44L207.45 54.03L207.12 53.63L206.78 53.25L206.42 52.89L206.04 52.55L205.64 52.23L205.22 51.92L204.79 51.64L204.34 51.38L203.87 51.13L203.39 50.91L202.9 50.72L202.4 50.54L201.88 50.4L201.36 50.27L200.82 50.18L200.27 50.11L199.72 50.06L199.15 50.05L198.97 50.04L198.78 50.03L198.6 50.01L198.42 49.97L198.24 49.93L198.07 49.88L197.9 49.83L197.74 49.76L197.58 49.69L197.42 49.61L197.28 49.52L197.13 49.42L196.99 49.32L196.86 49.21L196.73 49.1L196.61 48.98L196.5 48.85L196.39 48.72L196.29 48.59L196.2 48.45L196.11 48.3L196.03 48.15L195.96 47.99L195.9 47.83L195.85 47.67L195.81 47.51L195.77 47.34L195.75 47.17L195.73 46.99L195.73 46.81L195.73 46.64L195.75 46.46L195.77 46.29L195.81 46.12L195.85 45.95L195.9 45.79L195.96 45.63L196.03 45.48L196.11 45.33L196.2 45.18L196.29 45.04L196.39 44.9L196.5 44.77L196.61 44.65L196.73 44.53L196.86 44.41L196.99 44.3L197.13 44.2L197.28 44.11L197.42 44.02L197.58 43.94L197.74 43.87L197.9 43.8L198.07 43.74L198.24 43.69L198.42 43.65L198.6 43.62L198.78 43.6L198.97 43.58L199.15 43.58L199.34 43.58L199.53 43.6L199.71 43.62L199.89 43.65L200.06 43.69L200.24 43.74L200.4 43.8L200.57 43.87L200.73 43.94L200.88 44.02L201.03 44.11L201.18 44.2L201.32 44.3L201.45 44.41L201.58 44.53L201.7 44.65L201.81 44.77L201.92 44.9L202.02 45.04L202.11 45.18L202.2 45.33L202.27 45.48L202.34 45.63L202.4 45.79L202.46 45.95L202.5 46.12L202.53 46.29L202.56 46.46L202.57 46.64L202.58 46.81L209.43 46.81L209.42 46.39L209.39 45.98L209.35 45.57L209.28 45.17L209.2 44.77L209.1 44.38L208.98 43.99L208.85 43.61L208.7 43.24L208.54 42.88L208.36 42.52L208.17 42.17L207.96 41.83L207.73 41.5L207.5 41.18L207.25 40.87L206.99 40.57L206.71 40.28L206.42 39.99L206.12 39.72L205.81 39.47L205.49 39.22L205.16 38.98L204.82 38.76L204.47 38.55L204.11 38.35L203.74 38.17L203.36 38L202.97 37.84L202.58 37.7L202.58 33.87L195.73 33.87L195.73 37.7Z" id="a567VWVlK5" fill="white" fill-opacity="1" filter="url(#shadow16534924)"></path></g><g><filter id="shadow16682043" x="112.74" y="-31.6" width="172.82" height="169.76" filterUnits="userSpaceOnUse" primitiveUnits="userSpaceOnUse"><feFlood></feFlood><feComposite in2="SourceAlpha" operator="in"></feComposite><feGaussianBlur stdDeviation="5"></feGaussianBlur><feOffset dx="0" dy="0" result="afterOffset"></feOffset><feFlood flood-color="#98c1c8" flood-opacity="1"></feFlood><feComposite in2="afterOffset" operator="in"></feComposite><feMorphology operator="dilate" radius="4"></feMorphology><feComposite in2="SourceAlpha" operator="out"></feComposite></filter><path d="M201.87 27.53L203.2 27.68L204.51 27.9L205.8 28.17L207.06 28.5L208.3 28.88L209.51 29.32L210.7 29.81L211.85 30.35L212.98 30.94L214.07 31.58L215.12 32.26L216.14 32.99L217.13 33.76L218.07 34.57L218.97 35.42L219.83 36.31L220.65 37.24L221.42 38.2L222.14 39.2L222.81 40.23L223.44 41.29L224.01 42.38L224.53 43.5L224.99 44.65L225.4 45.82L225.75 47.01L226.04 48.23L226.26 49.46L226.43 50.72L226.53 51.99L226.56 53.28L226.53 54.57L226.43 55.85L226.26 57.1L226.04 58.34L225.75 59.56L225.4 60.75L224.99 61.92L224.53 63.07L224.01 64.18L223.44 65.27L222.81 66.34L222.14 67.37L221.42 68.36L220.65 69.33L219.83 70.25L218.97 71.14L218.07 72L217.13 72.81L216.14 73.58L215.12 74.31L214.07 74.99L212.98 75.63L211.85 76.21L210.7 76.75L209.51 77.24L208.3 77.68L207.06 78.07L205.8 78.4L204.51 78.67L203.2 78.88L201.87 79.04L200.52 79.13L199.15 79.16L197.79 79.13L196.44 79.04L195.11 78.88L193.8 78.67L192.51 78.4L191.25 78.07L190.01 77.68L188.79 77.24L187.61 76.75L186.45 76.21L185.33 75.63L184.24 74.99L183.18 74.31L182.16 73.58L181.18 72.81L180.24 72L179.34 71.14L178.48 70.25L177.66 69.33L176.89 68.36L176.17 67.37L175.49 66.34L174.87 65.27L174.3 64.18L173.78 63.07L173.31 61.92L172.91 60.75L172.56 59.56L172.27 58.34L172.04 57.1L171.88 55.85L171.78 54.57L171.74 53.28L171.78 51.99L171.88 50.72L172.04 49.46L172.27 48.23L172.56 47.01L172.91 45.82L173.31 44.65L173.78 43.5L174.3 42.38L174.87 41.29L175.49 40.23L176.17 39.2L176.89 38.2L177.66 37.24L178.48 36.31L179.34 35.42L180.24 34.57L181.18 33.76L182.16 32.99L183.18 32.26L184.24 31.58L185.33 30.94L186.45 30.35L187.61 29.81L188.79 29.32L190.01 28.88L191.25 28.5L192.51 28.17L193.8 27.9L195.11 27.68L196.44 27.53L197.79 27.43L199.15 27.4L200.52 27.43L201.87 27.53ZM195.73 37.7L195.33 37.84L194.95 38L194.57 38.17L194.2 38.35L193.84 38.55L193.49 38.76L193.15 38.98L192.81 39.22L192.49 39.47L192.18 39.72L191.88 39.99L191.6 40.28L191.32 40.57L191.06 40.87L190.81 41.18L190.57 41.5L190.35 41.83L190.14 42.17L189.95 42.52L189.77 42.88L189.6 43.24L189.45 43.61L189.32 43.99L189.21 44.38L189.11 44.77L189.02 45.17L188.96 45.57L188.91 45.98L188.88 46.39L188.87 46.81L188.89 47.34L188.94 47.87L189.01 48.38L189.11 48.89L189.24 49.39L189.4 49.88L189.58 50.35L189.79 50.82L190.02 51.27L190.28 51.71L190.56 52.13L190.86 52.54L191.18 52.93L191.53 53.31L191.89 53.67L192.27 54.01L192.67 54.34L193.09 54.64L193.52 54.93L193.97 55.19L194.43 55.43L194.91 55.65L195.4 55.85L195.91 56.02L196.42 56.17L196.95 56.29L197.49 56.39L198.04 56.46L198.59 56.5L199.15 56.52L199.34 56.52L199.53 56.54L199.71 56.56L199.89 56.59L200.06 56.63L200.24 56.68L200.4 56.74L200.57 56.81L200.73 56.88L200.88 56.96L201.03 57.05L201.18 57.14L201.32 57.24L201.45 57.35L201.58 57.47L201.7 57.59L201.81 57.71L201.92 57.84L202.02 57.98L202.11 58.12L202.2 58.27L202.27 58.42L202.34 58.57L202.4 58.73L202.46 58.89L202.5 59.06L202.53 59.23L202.56 59.4L202.57 59.58L202.58 59.75L202.57 59.93L202.56 60.11L202.53 60.28L202.5 60.45L202.46 60.61L202.4 60.78L202.34 60.93L202.27 61.09L202.2 61.24L202.11 61.39L202.02 61.53L201.92 61.66L201.81 61.79L201.7 61.92L201.58 62.04L201.45 62.15L201.32 62.26L201.18 62.36L201.03 62.46L200.88 62.55L200.73 62.63L200.57 62.7L200.4 62.77L200.24 62.82L200.06 62.87L199.89 62.91L199.71 62.95L199.53 62.97L199.34 62.98L199.15 62.99L198.97 62.98L198.78 62.97L198.6 62.95L198.42 62.91L198.24 62.87L198.07 62.82L197.9 62.77L197.74 62.7L197.58 62.63L197.42 62.55L197.28 62.46L197.13 62.36L196.99 62.26L196.86 62.15L196.73 62.04L196.61 61.92L196.5 61.79L196.39 61.66L196.29 61.53L196.2 61.39L196.11 61.24L196.03 61.09L195.96 60.93L195.9 60.78L195.85 60.61L195.81 60.45L195.77 60.28L195.75 60.11L195.73 59.93L195.73 59.75L188.87 59.75L188.88 60.17L188.91 60.59L188.96 61L189.02 61.4L189.11 61.8L189.21 62.19L189.32 62.57L189.45 62.95L189.6 63.33L189.77 63.69L189.95 64.05L190.14 64.39L190.35 64.73L190.57 65.06L190.81 65.39L191.06 65.7L191.32 66L191.6 66.29L191.88 66.57L192.18 66.84L192.49 67.1L192.81 67.35L193.15 67.58L193.49 67.81L193.84 68.02L194.2 68.21L194.57 68.4L194.95 68.57L195.33 68.72L195.73 68.86L195.73 72.69L202.58 72.69L202.58 68.86L202.97 68.72L203.36 68.57L203.74 68.4L204.11 68.21L204.47 68.02L204.82 67.81L205.16 67.58L205.49 67.35L205.81 67.1L206.12 66.84L206.42 66.57L206.71 66.29L206.99 66L207.25 65.7L207.5 65.39L207.73 65.06L207.96 64.73L208.17 64.39L208.36 64.05L208.54 63.69L208.7 63.33L208.85 62.95L208.98 62.57L209.1 62.19L209.2 61.8L209.28 61.4L209.35 61L209.39 60.59L209.42 60.17L209.43 59.75L209.42 59.22L209.37 58.7L209.3 58.18L209.19 57.67L209.06 57.18L208.91 56.69L208.72 56.21L208.52 55.75L208.28 55.3L208.03 54.86L207.75 54.44L207.45 54.03L207.12 53.63L206.78 53.25L206.42 52.89L206.04 52.55L205.64 52.23L205.22 51.92L204.79 51.64L204.34 51.38L203.87 51.13L203.39 50.91L202.9 50.72L202.4 50.54L201.88 50.4L201.36 50.27L200.82 50.18L200.27 50.11L199.72 50.06L199.15 50.05L198.97 50.04L198.78 50.03L198.6 50.01L198.42 49.97L198.24 49.93L198.07 49.88L197.9 49.83L197.74 49.76L197.58 49.69L197.42 49.61L197.28 49.52L197.13 49.42L196.99 49.32L196.86 49.21L196.73 49.1L196.61 48.98L196.5 48.85L196.39 48.72L196.29 48.59L196.2 48.45L196.11 48.3L196.03 48.15L195.96 47.99L195.9 47.83L195.85 47.67L195.81 47.51L195.77 47.34L195.75 47.17L195.73 46.99L195.73 46.81L195.73 46.64L195.75 46.46L195.77 46.29L195.81 46.12L195.85 45.95L195.9 45.79L195.96 45.63L196.03 45.48L196.11 45.33L196.2 45.18L196.29 45.04L196.39 44.9L196.5 44.77L196.61 44.65L196.73 44.53L196.86 44.41L196.99 44.3L197.13 44.2L197.28 44.11L197.42 44.02L197.58 43.94L197.74 43.87L197.9 43.8L198.07 43.74L198.24 43.69L198.42 43.65L198.6 43.62L198.78 43.6L198.97 43.58L199.15 43.58L199.34 43.58L199.53 43.6L199.71 43.62L199.89 43.65L200.06 43.69L200.24 43.74L200.4 43.8L200.57 43.87L200.73 43.94L200.88 44.02L201.03 44.11L201.18 44.2L201.32 44.3L201.45 44.41L201.58 44.53L201.7 44.65L201.81 44.77L201.92 44.9L202.02 45.04L202.11 45.18L202.2 45.33L202.27 45.48L202.34 45.63L202.4 45.79L202.46 45.95L202.5 46.12L202.53 46.29L202.56 46.46L202.57 46.64L202.58 46.81L209.43 46.81L209.42 46.39L209.39 45.98L209.35 45.57L209.28 45.17L209.2 44.77L209.1 44.38L208.98 43.99L208.85 43.61L208.7 43.24L208.54 42.88L208.36 42.52L208.17 42.17L207.96 41.83L207.73 41.5L207.5 41.18L207.25 40.87L206.99 40.57L206.71 40.28L206.42 39.99L206.12 39.72L205.81 39.47L205.49 39.22L205.16 38.98L204.82 38.76L204.47 38.55L204.11 38.35L203.74 38.17L203.36 38L202.97 37.84L202.58 37.7L202.58 33.87L195.73 33.87L195.73 37.7Z" id="a23CfgS2D" fill="white" fill-opacity="1" filter="url(#shadow16682043)"></path></g><use xlink:href="#d7tvyXndR" opacity="1" fill="#ffffff" fill-opacity="1"></use></g><g><g><filter id="shadow11059364" x="122.06" y="141.57" width="33.15" height="30.47" filterUnits="userSpaceOnUse" primitiveUnits="userSpaceOnUse"><feFlood></feFlood><feComposite in2="SourceAlpha" operator="in"></feComposite><feGaussianBlur stdDeviation="1.73"></feGaussianBlur><feOffset dx="0" dy="0" result="afterOffset"></feOffset><feFlood flood-color="#000000" flood-opacity="0.9"></feFlood><feComposite in2="afterOffset" operator="in"></feComposite><feMorphology operator="dilate" radius="1"></feMorphology><feComposite in2="SourceAlpha" operator="out"></feComposite></filter><path d="M134.06 160.04L134.06 153.57L138.99 153.57L143.21 160.04L134.06 160.04Z" id="cS0WUIurI" fill="white" fill-opacity="1" filter="url(#shadow11059364)"></path></g><g><filter id="shadow11179612" x="75.06" y="94.57" width="127.15" height="124.47" filterUnits="userSpaceOnUse" primitiveUnits="userSpaceOnUse"><feFlood></feFlood><feComposite in2="SourceAlpha" operator="in"></feComposite><feGaussianBlur stdDeviation="5"></feGaussianBlur><feOffset dx="0" dy="0" result="afterOffset"></feOffset><feFlood flood-color="#98c1c8" flood-opacity="1"></feFlood><feComposite in2="afterOffset" operator="in"></feComposite><feMorphology operator="dilate" radius="4"></feMorphology><feComposite in2="SourceAlpha" operator="out"></feComposite></filter><path d="M134.06 160.04L134.06 153.57L138.99 153.57L143.21 160.04L134.06 160.04Z" id="b2zjIQVukW" fill="white" fill-opacity="1" filter="url(#shadow11179612)"></path></g><use xlink:href="#cDHLQ1UI" opacity="1" fill="#ffffff" fill-opacity="1"></use></g><g><g><filter id="shadow11294324" x="108.35" y="112.46" width="30.85" height="100.24" filterUnits="userSpaceOnUse" primitiveUnits="userSpaceOnUse"><feFlood></feFlood><feComposite in2="SourceAlpha" operator="in"></feComposite><feGaussianBlur stdDeviation="1.73"></feGaussianBlur><feOffset dx="0" dy="0" result="afterOffset"></feOffset><feFlood flood-color="#000000" flood-opacity="0.9"></feFlood><feComposite in2="afterOffset" operator="in"></feComposite><feMorphology operator="dilate" radius="1"></feMorphology><feComposite in2="SourceAlpha" operator="out"></feComposite></filter><path d="M127 200.68L126.79 200.66L126.58 200.65L126.37 200.63L126.17 200.61L125.96 200.59L125.75 200.58L125.54 200.56L125.33 200.54L125.13 200.52L124.92 200.51L124.71 200.49L124.5 200.47L124.3 200.45L124.09 200.43L123.88 200.42L123.67 200.4L123.47 200.38L123.26 200.36L123.05 200.34L122.84 200.32L122.63 200.3L122.43 200.28L122.22 200.27L122.01 200.25L121.8 200.23L121.6 200.21L121.39 200.19L121.18 200.17L120.97 200.15L120.77 200.13L120.56 200.1L120.35 200.08L120.35 124.46L127.2 124.46L127.2 200.7L127 200.68Z" id="c6W4OlBbCL" fill="white" fill-opacity="1" filter="url(#shadow11294324)"></path></g><g><filter id="shadow2467352" x="61.35" y="65.46" width="124.85" height="194.24" filterUnits="userSpaceOnUse" primitiveUnits="userSpaceOnUse"><feFlood></feFlood><feComposite in2="SourceAlpha" operator="in"></feComposite><feGaussianBlur stdDeviation="5"></feGaussianBlur><feOffset dx="0" dy="0" result="afterOffset"></feOffset><feFlood flood-color="#98c1c8" flood-opacity="1"></feFlood><feComposite in2="afterOffset" operator="in"></feComposite><feMorphology operator="dilate" radius="4"></feMorphology><feComposite in2="SourceAlpha" operator="out"></feComposite></filter><path d="M127 200.68L126.79 200.66L126.58 200.65L126.37 200.63L126.17 200.61L125.96 200.59L125.75 200.58L125.54 200.56L125.33 200.54L125.13 200.52L124.92 200.51L124.71 200.49L124.5 200.47L124.3 200.45L124.09 200.43L123.88 200.42L123.67 200.4L123.47 200.38L123.26 200.36L123.05 200.34L122.84 200.32L122.63 200.3L122.43 200.28L122.22 200.27L122.01 200.25L121.8 200.23L121.6 200.21L121.39 200.19L121.18 200.17L120.97 200.15L120.77 200.13L120.56 200.1L120.35 200.08L120.35 124.46L127.2 124.46L127.2 200.7L127 200.68Z" id="a1j3y23uQQ" fill="white" fill-opacity="1" filter="url(#shadow2467352)"></path></g><use xlink:href="#dHHc00EJg" opacity="1" fill="#ffffff" fill-opacity="1"></use></g><g><g><filter id="shadow6879578" x="53.53" y="25.11" width="51.41" height="56.35" filterUnits="userSpaceOnUse" primitiveUnits="userSpaceOnUse"><feFlood></feFlood><feComposite in2="SourceAlpha" operator="in"></feComposite><feGaussianBlur stdDeviation="1.73"></feGaussianBlur><feOffset dx="0" dy="0" result="afterOffset"></feOffset><feFlood flood-color="#000000" flood-opacity="0.9"></feFlood><feComposite in2="afterOffset" operator="in"></feComposite><feMorphology operator="dilate" radius="1"></feMorphology><feComposite in2="SourceAlpha" operator="out"></feComposite></filter><path d="M81.57 37.3L82.69 37.52L83.78 37.84L84.83 38.23L85.83 38.7L86.78 39.25L87.68 39.86L88.52 40.54L89.31 41.28L90.03 42.08L90.68 42.93L91.25 43.83L91.75 44.77L92.17 45.76L92.5 46.78L92.74 47.84L92.89 48.93L92.94 50.05L92.94 56.52L92.89 57.63L92.74 58.72L92.5 59.78L92.17 60.81L91.75 61.79L91.25 62.74L90.68 63.64L90.03 64.49L89.31 65.29L88.52 66.03L87.68 66.71L86.78 67.32L85.83 67.86L84.83 68.33L83.78 68.73L82.69 69.04L81.57 69.27L80.42 69.41L79.24 69.46L78.06 69.41L76.9 69.27L75.78 69.04L74.7 68.73L73.65 68.33L72.65 67.86L71.7 67.32L70.79 66.71L69.95 66.03L69.17 65.29L68.45 64.49L67.8 63.64L67.22 62.74L66.72 61.79L66.31 60.81L65.97 59.78L65.73 58.72L65.58 57.63L65.53 56.52L65.53 50.05L65.58 48.93L65.73 47.84L65.97 46.78L66.31 45.76L66.72 44.77L67.22 43.83L67.8 42.93L68.45 42.08L69.17 41.28L69.95 40.54L70.79 39.86L71.7 39.25L72.65 38.7L73.65 38.23L74.7 37.84L75.78 37.52L76.9 37.3L78.06 37.16L79.24 37.11L80.42 37.16L81.57 37.3Z" id="gYyJK65uw" fill="white" fill-opacity="1" filter="url(#shadow6879578)"></path></g><g><filter id="shadow15641848" x="6.53" y="-21.89" width="145.41" height="150.35" filterUnits="userSpaceOnUse" primitiveUnits="userSpaceOnUse"><feFlood></feFlood><feComposite in2="SourceAlpha" operator="in"></feComposite><feGaussianBlur stdDeviation="5"></feGaussianBlur><feOffset dx="0" dy="0" result="afterOffset"></feOffset><feFlood flood-color="#98c1c8" flood-opacity="1"></feFlood><feComposite in2="afterOffset" operator="in"></feComposite><feMorphology operator="dilate" radius="4"></feMorphology><feComposite in2="SourceAlpha" operator="out"></feComposite></filter><path d="M81.57 37.3L82.69 37.52L83.78 37.84L84.83 38.23L85.83 38.7L86.78 39.25L87.68 39.86L88.52 40.54L89.31 41.28L90.03 42.08L90.68 42.93L91.25 43.83L91.75 44.77L92.17 45.76L92.5 46.78L92.74 47.84L92.89 48.93L92.94 50.05L92.94 56.52L92.89 57.63L92.74 58.72L92.5 59.78L92.17 60.81L91.75 61.79L91.25 62.74L90.68 63.64L90.03 64.49L89.31 65.29L88.52 66.03L87.68 66.71L86.78 67.32L85.83 67.86L84.83 68.33L83.78 68.73L82.69 69.04L81.57 69.27L80.42 69.41L79.24 69.46L78.06 69.41L76.9 69.27L75.78 69.04L74.7 68.73L73.65 68.33L72.65 67.86L71.7 67.32L70.79 66.71L69.95 66.03L69.17 65.29L68.45 64.49L67.8 63.64L67.22 62.74L66.72 61.79L66.31 60.81L65.97 59.78L65.73 58.72L65.58 57.63L65.53 56.52L65.53 50.05L65.58 48.93L65.73 47.84L65.97 46.78L66.31 45.76L66.72 44.77L67.22 43.83L67.8 42.93L68.45 42.08L69.17 41.28L69.95 40.54L70.79 39.86L71.7 39.25L72.65 38.7L73.65 38.23L74.7 37.84L75.78 37.52L76.9 37.3L78.06 37.16L79.24 37.11L80.42 37.16L81.57 37.3Z" id="a35yClrKU6" fill="white" fill-opacity="1" filter="url(#shadow15641848)"></path></g><use xlink:href="#bwYUJr2M9" opacity="1" fill="#ffffff" fill-opacity="1"></use></g><g><g><filter id="shadow5204373" x="67.24" y="80.11" width="81.66" height="49.88" filterUnits="userSpaceOnUse" primitiveUnits="userSpaceOnUse"><feFlood></feFlood><feComposite in2="SourceAlpha" operator="in"></feComposite><feGaussianBlur stdDeviation="1.73"></feGaussianBlur><feOffset dx="0" dy="0" result="afterOffset"></feOffset><feFlood flood-color="#000000" flood-opacity="0.9"></feFlood><feComposite in2="afterOffset" operator="in"></feComposite><feMorphology operator="dilate" radius="1"></feMorphology><feComposite in2="SourceAlpha" operator="out"></feComposite></filter><path d="M84.18 92.12L84.37 92.14L84.57 92.17L84.76 92.21L84.95 92.25L85.14 92.31L85.32 92.36L85.5 92.43L85.68 92.5L85.86 92.58L86.03 92.67L86.19 92.76L86.35 92.86L86.51 92.97L86.66 93.08L86.81 93.2L86.95 93.33L87.08 93.46L87.21 93.59L87.34 93.73L87.45 93.88L87.56 94.03L87.67 94.19L87.77 94.35L87.86 94.51L87.94 94.69L88.02 94.86L88.08 95.04L93.9 111.52L127.2 111.52L127.66 111.52L128.12 111.55L128.57 111.6L129.01 111.67L129.45 111.75L129.88 111.85L130.3 111.96L130.72 112.1L131.12 112.25L131.52 112.41L131.91 112.59L132.29 112.79L132.66 113L133.02 113.22L133.37 113.46L133.71 113.71L134.03 113.97L134.35 114.25L134.65 114.54L134.94 114.84L135.22 115.15L135.48 115.47L135.73 115.8L135.96 116.14L136.18 116.49L136.38 116.85L136.57 117.22L136.74 117.6L136.9 117.99L88.35 117.99L79.6 98.72L79.58 98.66L79.55 98.61L79.53 98.55L79.51 98.5L79.49 98.44L79.47 98.38L79.45 98.33L79.43 98.27L79.41 98.21L79.39 98.16L79.38 98.1L79.36 98.04L79.35 97.98L79.34 97.93L79.32 97.87L79.31 97.81L79.3 97.75L79.29 97.69L79.28 97.63L79.27 97.57L79.27 97.51L79.26 97.45L79.25 97.39L79.25 97.33L79.24 97.27L79.24 97.21L79.24 97.15L79.24 97.09L79.24 97.03L79.24 96.39L79.24 96.15L79.27 95.91L79.3 95.67L79.35 95.44L79.41 95.22L79.49 95L79.57 94.78L79.67 94.57L79.78 94.36L79.9 94.17L80.03 93.98L80.17 93.79L80.32 93.61L80.48 93.45L80.65 93.29L80.83 93.13L81.02 92.99L81.22 92.86L81.42 92.73L81.63 92.62L81.84 92.52L82.07 92.42L82.3 92.34L82.53 92.27L82.77 92.21L83.02 92.17L83.26 92.13L83.52 92.11L83.77 92.11L83.98 92.11L84.18 92.12Z" id="b5GMvSBKgD" fill="white" fill-opacity="1" filter="url(#shadow5204373)"></path></g><g><filter id="shadow16200362" x="20.24" y="33.11" width="175.66" height="143.88" filterUnits="userSpaceOnUse" primitiveUnits="userSpaceOnUse"><feFlood></feFlood><feComposite in2="SourceAlpha" operator="in"></feComposite><feGaussianBlur stdDeviation="5"></feGaussianBlur><feOffset dx="0" dy="0" result="afterOffset"></feOffset><feFlood flood-color="#98c1c8" flood-opacity="1"></feFlood><feComposite in2="afterOffset" operator="in"></feComposite><feMorphology operator="dilate" radius="4"></feMorphology><feComposite in2="SourceAlpha" operator="out"></feComposite></filter><path d="M84.18 92.12L84.37 92.14L84.57 92.17L84.76 92.21L84.95 92.25L85.14 92.31L85.32 92.36L85.5 92.43L85.68 92.5L85.86 92.58L86.03 92.67L86.19 92.76L86.35 92.86L86.51 92.97L86.66 93.08L86.81 93.2L86.95 93.33L87.08 93.46L87.21 93.59L87.34 93.73L87.45 93.88L87.56 94.03L87.67 94.19L87.77 94.35L87.86 94.51L87.94 94.69L88.02 94.86L88.08 95.04L93.9 111.52L127.2 111.52L127.66 111.52L128.12 111.55L128.57 111.6L129.01 111.67L129.45 111.75L129.88 111.85L130.3 111.96L130.72 112.1L131.12 112.25L131.52 112.41L131.91 112.59L132.29 112.79L132.66 113L133.02 113.22L133.37 113.46L133.71 113.71L134.03 113.97L134.35 114.25L134.65 114.54L134.94 114.84L135.22 115.15L135.48 115.47L135.73 115.8L135.96 116.14L136.18 116.49L136.38 116.85L136.57 117.22L136.74 117.6L136.9 117.99L88.35 117.99L79.6 98.72L79.58 98.66L79.55 98.61L79.53 98.55L79.51 98.5L79.49 98.44L79.47 98.38L79.45 98.33L79.43 98.27L79.41 98.21L79.39 98.16L79.38 98.1L79.36 98.04L79.35 97.98L79.34 97.93L79.32 97.87L79.31 97.81L79.3 97.75L79.29 97.69L79.28 97.63L79.27 97.57L79.27 97.51L79.26 97.45L79.25 97.39L79.25 97.33L79.24 97.27L79.24 97.21L79.24 97.15L79.24 97.09L79.24 97.03L79.24 96.39L79.24 96.15L79.27 95.91L79.3 95.67L79.35 95.44L79.41 95.22L79.49 95L79.57 94.78L79.67 94.57L79.78 94.36L79.9 94.17L80.03 93.98L80.17 93.79L80.32 93.61L80.48 93.45L80.65 93.29L80.83 93.13L81.02 92.99L81.22 92.86L81.42 92.73L81.63 92.62L81.84 92.52L82.07 92.42L82.3 92.34L82.53 92.27L82.77 92.21L83.02 92.17L83.26 92.13L83.52 92.11L83.77 92.11L83.98 92.11L84.18 92.12Z" id="abwaSV7TJ" fill="white" fill-opacity="1" filter="url(#shadow16200362)"></path></g><use xlink:href="#a2sdu1o4Ue" opacity="1" fill="#ffffff" fill-opacity="1"></use></g><g><g><filter id="shadow2837144" x="122.06" y="125.4" width="82.24" height="75.76" filterUnits="userSpaceOnUse" primitiveUnits="userSpaceOnUse"><feFlood></feFlood><feComposite in2="SourceAlpha" operator="in"></feComposite><feGaussianBlur stdDeviation="1.73"></feGaussianBlur><feOffset dx="0" dy="0" result="afterOffset"></feOffset><feFlood flood-color="#000000" flood-opacity="0.9"></feFlood><feComposite in2="afterOffset" operator="in"></feComposite><feMorphology operator="dilate" radius="1"></feMorphology><feComposite in2="SourceAlpha" operator="out"></feComposite></filter><path d="M142.56 137.41L142.76 137.42L142.96 137.44L143.16 137.47L143.36 137.5L143.56 137.53L143.76 137.58L143.95 137.62L144.15 137.68L144.34 137.73L144.53 137.8L144.71 137.86L144.9 137.94L145.08 138.02L145.26 138.1L145.43 138.19L145.6 138.28L145.78 138.38L145.94 138.48L146.11 138.58L146.27 138.7L146.43 138.81L146.58 138.93L146.73 139.06L146.88 139.19L147.02 139.32L147.16 139.46L147.3 139.6L147.43 139.74L147.56 139.89L147.68 140.05L147.8 140.21L147.91 140.37L176.5 182.36L190.52 185L190.61 185.02L190.7 185.05L190.78 185.07L190.87 185.1L190.95 185.13L191.03 185.17L191.12 185.21L191.19 185.25L191.27 185.29L191.34 185.34L191.42 185.39L191.49 185.44L191.55 185.49L191.62 185.55L191.68 185.61L191.74 185.67L191.8 185.73L191.85 185.8L191.9 185.86L191.95 185.93L192 186.01L192.04 186.08L192.08 186.15L192.12 186.23L192.15 186.31L192.18 186.39L192.21 186.47L192.23 186.55L192.25 186.63L192.27 186.72L192.28 186.8L192.29 186.89L192.3 186.97L192.3 187.06L192.3 187.16L192.29 187.26L192.28 187.36L192.26 187.46L192.24 187.56L192.21 187.65L192.18 187.74L192.15 187.83L192.11 187.92L192.06 188.01L192.01 188.09L191.96 188.17L191.91 188.25L191.85 188.33L191.78 188.4L191.72 188.47L191.65 188.54L191.58 188.61L191.5 188.67L191.42 188.73L191.34 188.79L191.26 188.84L191.17 188.89L191.08 188.93L190.99 188.97L190.9 189.01L190.8 189.04L190.7 189.07L190.6 189.1L190.5 189.12L190.4 189.14L190.29 189.15L190.19 189.16L190.08 189.16L170.23 189.16L142.82 147.1L134.06 147.1L134.06 137.4L142.14 137.4L142.35 137.4L142.56 137.41Z" id="b2LjrP2ooh" fill="white" fill-opacity="1" filter="url(#shadow2837144)"></path></g><g><filter id="shadow11170408" x="75.06" y="78.4" width="176.24" height="169.76" filterUnits="userSpaceOnUse" primitiveUnits="userSpaceOnUse"><feFlood></feFlood><feComposite in2="SourceAlpha" operator="in"></feComposite><feGaussianBlur stdDeviation="5"></feGaussianBlur><feOffset dx="0" dy="0" result="afterOffset"></feOffset><feFlood flood-color="#98c1c8" flood-opacity="1"></feFlood><feComposite in2="afterOffset" operator="in"></feComposite><feMorphology operator="dilate" radius="4"></feMorphology><feComposite in2="SourceAlpha" operator="out"></feComposite></filter><path d="M142.56 137.41L142.76 137.42L142.96 137.44L143.16 137.47L143.36 137.5L143.56 137.53L143.76 137.58L143.95 137.62L144.15 137.68L144.34 137.73L144.53 137.8L144.71 137.86L144.9 137.94L145.08 138.02L145.26 138.1L145.43 138.19L145.6 138.28L145.78 138.38L145.94 138.48L146.11 138.58L146.27 138.7L146.43 138.81L146.58 138.93L146.73 139.06L146.88 139.19L147.02 139.32L147.16 139.46L147.3 139.6L147.43 139.74L147.56 139.89L147.68 140.05L147.8 140.21L147.91 140.37L176.5 182.36L190.52 185L190.61 185.02L190.7 185.05L190.78 185.07L190.87 185.1L190.95 185.13L191.03 185.17L191.12 185.21L191.19 185.25L191.27 185.29L191.34 185.34L191.42 185.39L191.49 185.44L191.55 185.49L191.62 185.55L191.68 185.61L191.74 185.67L191.8 185.73L191.85 185.8L191.9 185.86L191.95 185.93L192 186.01L192.04 186.08L192.08 186.15L192.12 186.23L192.15 186.31L192.18 186.39L192.21 186.47L192.23 186.55L192.25 186.63L192.27 186.72L192.28 186.8L192.29 186.89L192.3 186.97L192.3 187.06L192.3 187.16L192.29 187.26L192.28 187.36L192.26 187.46L192.24 187.56L192.21 187.65L192.18 187.74L192.15 187.83L192.11 187.92L192.06 188.01L192.01 188.09L191.96 188.17L191.91 188.25L191.85 188.33L191.78 188.4L191.72 188.47L191.65 188.54L191.58 188.61L191.5 188.67L191.42 188.73L191.34 188.79L191.26 188.84L191.17 188.89L191.08 188.93L190.99 188.97L190.9 189.01L190.8 189.04L190.7 189.07L190.6 189.1L190.5 189.12L190.4 189.14L190.29 189.15L190.19 189.16L190.08 189.16L170.23 189.16L142.82 147.1L134.06 147.1L134.06 137.4L142.14 137.4L142.35 137.4L142.56 137.41Z" id="c1GsCrko0K" fill="white" fill-opacity="1" filter="url(#shadow11170408)"></path></g><use xlink:href="#a4r7F7Geaa" opacity="1" fill="#ffffff" fill-opacity="1"></use></g><g><g><filter id="shadow14693720" x="29.55" y="180.39" width="167.9" height="46.65" filterUnits="userSpaceOnUse" primitiveUnits="userSpaceOnUse"><feFlood></feFlood><feComposite in2="SourceAlpha" operator="in"></feComposite><feGaussianBlur stdDeviation="1.73"></feGaussianBlur><feOffset dx="0" dy="0" result="afterOffset"></feOffset><feFlood flood-color="#000000" flood-opacity="0.9"></feFlood><feComposite in2="afterOffset" operator="in"></feComposite><feMorphology operator="dilate" radius="1"></feMorphology><feComposite in2="SourceAlpha" operator="out"></feComposite></filter><path d="M47.28 192.39L47.31 192.39L47.34 192.4L47.38 192.4L47.41 192.4L47.44 192.4L47.48 192.4L47.51 192.4L47.54 192.41L47.57 192.41L47.61 192.41L47.64 192.41L47.67 192.42L47.71 192.42L47.74 192.42L47.77 192.43L47.8 192.43L47.84 192.44L47.87 192.44L47.9 192.45L47.93 192.45L47.97 192.46L48 192.46L48.03 192.47L48.06 192.47L48.1 192.48L48.13 192.49L48.16 192.49L48.19 192.5L48.23 192.51L48.26 192.51L48.29 192.52L48.32 192.53L48.36 192.54L48.39 192.55L48.42 192.55L48.45 192.56L48.48 192.57L48.52 192.58L51.22 193.37L53.92 194.13L56.63 194.88L59.34 195.61L62.06 196.31L64.79 197L67.51 197.67L70.25 198.32L72.98 198.95L75.72 199.55L78.47 200.14L81.22 200.71L83.97 201.26L86.73 201.79L89.49 202.3L92.26 202.79L95.02 203.26L97.8 203.71L100.57 204.14L103.35 204.55L106.13 204.94L108.92 205.31L111.7 205.67L114.5 206L117.29 206.31L120.09 206.6L122.88 206.87L125.69 207.12L128.49 207.35L131.3 207.56L134.1 207.75L136.91 207.92L139.73 208.08L142.54 208.21L145.36 208.32L148.18 208.41L151 208.48L153.82 208.53L156.64 208.56L159.46 208.57L182.02 208.57L182.16 208.57L182.3 208.58L182.44 208.59L182.58 208.61L182.71 208.63L182.85 208.66L182.98 208.7L183.11 208.73L183.23 208.78L183.36 208.82L183.48 208.88L183.6 208.93L183.71 208.99L183.83 209.05L183.94 209.12L184.05 209.19L184.15 209.27L184.25 209.35L184.35 209.43L184.45 209.52L184.54 209.61L184.62 209.7L184.71 209.8L184.79 209.9L184.86 210L184.94 210.1L185 210.21L185.07 210.32L185.13 210.43L185.18 210.55L185.23 210.67L185.27 210.79L185.31 210.91L185.35 211.03L185.38 211.16L185.4 211.28L185.42 211.41L185.44 211.54L185.45 211.67L185.45 211.81L185.45 211.94L185.44 212.07L185.42 212.2L185.4 212.33L185.38 212.46L185.35 212.58L185.31 212.71L185.27 212.83L185.23 212.95L185.18 213.07L185.13 213.18L185.07 213.29L185 213.4L184.94 213.51L184.86 213.62L184.79 213.72L184.71 213.82L184.62 213.91L184.54 214.01L184.45 214.09L184.35 214.18L184.25 214.26L184.15 214.34L184.05 214.42L183.94 214.49L183.83 214.56L183.71 214.62L183.6 214.68L183.48 214.74L183.36 214.79L183.23 214.84L183.11 214.88L182.98 214.92L182.85 214.95L182.71 214.98L182.58 215L182.44 215.02L182.3 215.03L182.16 215.04L182.02 215.04L150.03 215.04L147.55 215.03L145.08 215.01L142.6 214.97L140.13 214.92L137.65 214.84L135.18 214.76L132.71 214.65L130.24 214.54L127.77 214.4L125.3 214.25L122.84 214.08L120.37 213.9L117.91 213.7L115.45 213.49L112.99 213.26L110.53 213.02L108.07 212.76L105.62 212.48L103.17 212.19L100.72 211.88L98.27 211.56L95.83 211.22L93.38 210.87L90.94 210.5L88.5 210.11L86.07 209.71L83.64 209.29L81.21 208.86L78.78 208.41L76.36 207.95L73.94 207.47L71.52 206.97L69.11 206.46L66.7 205.94L64.29 205.4L61.89 204.84L59.49 204.27L57.09 203.68L54.7 203.08L52.31 202.46L44.74 200.48L44.6 200.44L44.46 200.4L44.33 200.35L44.19 200.3L44.06 200.24L43.94 200.18L43.81 200.12L43.69 200.05L43.57 199.98L43.45 199.91L43.33 199.83L43.22 199.75L43.11 199.67L43.01 199.58L42.91 199.49L42.81 199.4L42.71 199.3L42.62 199.21L42.53 199.1L42.44 199L42.36 198.89L42.28 198.79L42.2 198.67L42.13 198.56L42.06 198.45L42 198.33L41.94 198.21L41.88 198.09L41.83 197.96L41.78 197.84L41.74 197.71L41.7 197.58L41.67 197.45L41.64 197.32L41.61 197.19L41.59 197.06L41.57 196.92L41.56 196.79L41.55 196.65L41.55 196.51L41.55 196.34L41.56 196.17L41.58 196.01L41.61 195.85L41.64 195.68L41.68 195.52L41.72 195.37L41.77 195.21L41.83 195.06L41.89 194.91L41.96 194.76L42.04 194.62L42.12 194.48L42.2 194.34L42.3 194.21L42.39 194.08L42.49 193.96L42.6 193.83L42.71 193.72L42.83 193.6L42.95 193.49L43.07 193.39L43.2 193.29L43.34 193.19L43.47 193.1L43.61 193.01L43.76 192.93L43.91 192.85L44.06 192.78L44.21 192.72L44.37 192.66L44.53 192.6L44.7 192.56L44.86 192.51L45.03 192.48L45.2 192.45L45.38 192.42L45.55 192.41L45.73 192.4L45.91 192.39L47.21 192.39L47.25 192.39L47.28 192.39Z" id="a1ZRclE98F" fill="white" fill-opacity="1" filter="url(#shadow14693720)"></path></g><g><filter id="shadow8390456" x="-17.45" y="133.39" width="261.9" height="140.65" filterUnits="userSpaceOnUse" primitiveUnits="userSpaceOnUse"><feFlood></feFlood><feComposite in2="SourceAlpha" operator="in"></feComposite><feGaussianBlur stdDeviation="5"></feGaussianBlur><feOffset dx="0" dy="0" result="afterOffset"></feOffset><feFlood flood-color="#98c1c8" flood-opacity="1"></feFlood><feComposite in2="afterOffset" operator="in"></feComposite><feMorphology operator="dilate" radius="4"></feMorphology><feComposite in2="SourceAlpha" operator="out"></feComposite></filter><path d="M47.28 192.39L47.31 192.39L47.34 192.4L47.38 192.4L47.41 192.4L47.44 192.4L47.48 192.4L47.51 192.4L47.54 192.41L47.57 192.41L47.61 192.41L47.64 192.41L47.67 192.42L47.71 192.42L47.74 192.42L47.77 192.43L47.8 192.43L47.84 192.44L47.87 192.44L47.9 192.45L47.93 192.45L47.97 192.46L48 192.46L48.03 192.47L48.06 192.47L48.1 192.48L48.13 192.49L48.16 192.49L48.19 192.5L48.23 192.51L48.26 192.51L48.29 192.52L48.32 192.53L48.36 192.54L48.39 192.55L48.42 192.55L48.45 192.56L48.48 192.57L48.52 192.58L51.22 193.37L53.92 194.13L56.63 194.88L59.34 195.61L62.06 196.31L64.79 197L67.51 197.67L70.25 198.32L72.98 198.95L75.72 199.55L78.47 200.14L81.22 200.71L83.97 201.26L86.73 201.79L89.49 202.3L92.26 202.79L95.02 203.26L97.8 203.71L100.57 204.14L103.35 204.55L106.13 204.94L108.92 205.31L111.7 205.67L114.5 206L117.29 206.31L120.09 206.6L122.88 206.87L125.69 207.12L128.49 207.35L131.3 207.56L134.1 207.75L136.91 207.92L139.73 208.08L142.54 208.21L145.36 208.32L148.18 208.41L151 208.48L153.82 208.53L156.64 208.56L159.46 208.57L182.02 208.57L182.16 208.57L182.3 208.58L182.44 208.59L182.58 208.61L182.71 208.63L182.85 208.66L182.98 208.7L183.11 208.73L183.23 208.78L183.36 208.82L183.48 208.88L183.6 208.93L183.71 208.99L183.83 209.05L183.94 209.12L184.05 209.19L184.15 209.27L184.25 209.35L184.35 209.43L184.45 209.52L184.54 209.61L184.62 209.7L184.71 209.8L184.79 209.9L184.86 210L184.94 210.1L185 210.21L185.07 210.32L185.13 210.43L185.18 210.55L185.23 210.67L185.27 210.79L185.31 210.91L185.35 211.03L185.38 211.16L185.4 211.28L185.42 211.41L185.44 211.54L185.45 211.67L185.45 211.81L185.45 211.94L185.44 212.07L185.42 212.2L185.4 212.33L185.38 212.46L185.35 212.58L185.31 212.71L185.27 212.83L185.23 212.95L185.18 213.07L185.13 213.18L185.07 213.29L185 213.4L184.94 213.51L184.86 213.62L184.79 213.72L184.71 213.82L184.62 213.91L184.54 214.01L184.45 214.09L184.35 214.18L184.25 214.26L184.15 214.34L184.05 214.42L183.94 214.49L183.83 214.56L183.71 214.62L183.6 214.68L183.48 214.74L183.36 214.79L183.23 214.84L183.11 214.88L182.98 214.92L182.85 214.95L182.71 214.98L182.58 215L182.44 215.02L182.3 215.03L182.16 215.04L182.02 215.04L150.03 215.04L147.55 215.03L145.08 215.01L142.6 214.97L140.13 214.92L137.65 214.84L135.18 214.76L132.71 214.65L130.24 214.54L127.77 214.4L125.3 214.25L122.84 214.08L120.37 213.9L117.91 213.7L115.45 213.49L112.99 213.26L110.53 213.02L108.07 212.76L105.62 212.48L103.17 212.19L100.72 211.88L98.27 211.56L95.83 211.22L93.38 210.87L90.94 210.5L88.5 210.11L86.07 209.71L83.64 209.29L81.21 208.86L78.78 208.41L76.36 207.95L73.94 207.47L71.52 206.97L69.11 206.46L66.7 205.94L64.29 205.4L61.89 204.84L59.49 204.27L57.09 203.68L54.7 203.08L52.31 202.46L44.74 200.48L44.6 200.44L44.46 200.4L44.33 200.35L44.19 200.3L44.06 200.24L43.94 200.18L43.81 200.12L43.69 200.05L43.57 199.98L43.45 199.91L43.33 199.83L43.22 199.75L43.11 199.67L43.01 199.58L42.91 199.49L42.81 199.4L42.71 199.3L42.62 199.21L42.53 199.1L42.44 199L42.36 198.89L42.28 198.79L42.2 198.67L42.13 198.56L42.06 198.45L42 198.33L41.94 198.21L41.88 198.09L41.83 197.96L41.78 197.84L41.74 197.71L41.7 197.58L41.67 197.45L41.64 197.32L41.61 197.19L41.59 197.06L41.57 196.92L41.56 196.79L41.55 196.65L41.55 196.51L41.55 196.34L41.56 196.17L41.58 196.01L41.61 195.85L41.64 195.68L41.68 195.52L41.72 195.37L41.77 195.21L41.83 195.06L41.89 194.91L41.96 194.76L42.04 194.62L42.12 194.48L42.2 194.34L42.3 194.21L42.39 194.08L42.49 193.96L42.6 193.83L42.71 193.72L42.83 193.6L42.95 193.49L43.07 193.39L43.2 193.29L43.34 193.19L43.47 193.1L43.61 193.01L43.76 192.93L43.91 192.85L44.06 192.78L44.21 192.72L44.37 192.66L44.53 192.6L44.7 192.56L44.86 192.51L45.03 192.48L45.2 192.45L45.38 192.42L45.55 192.41L45.73 192.4L45.91 192.39L47.21 192.39L47.25 192.39L47.28 192.39Z" id="dpVdGbW3i" fill="white" fill-opacity="1" filter="url(#shadow8390456)"></path></g><use xlink:href="#k1URZ1qGG1" opacity="1" fill="#ffffff" fill-opacity="1"></use></g><g><g><filter id="shadow4988512" x="52.65" y="154.51" width="43.98" height="50.1" filterUnits="userSpaceOnUse" primitiveUnits="userSpaceOnUse"><feFlood></feFlood><feComposite in2="SourceAlpha" operator="in"></feComposite><feGaussianBlur stdDeviation="1.73"></feGaussianBlur><feOffset dx="0" dy="0" result="afterOffset"></feOffset><feFlood flood-color="#000000" flood-opacity="0.9"></feFlood><feComposite in2="afterOffset" operator="in"></feComposite><feMorphology operator="dilate" radius="1"></feMorphology><feComposite in2="SourceAlpha" operator="out"></feComposite></filter><path d="M73.86 192.45L73.15 192.29L72.44 192.13L71.73 191.97L71.02 191.8L70.31 191.64L69.6 191.47L68.9 191.3L68.19 191.13L67.48 190.96L66.77 190.79L66.06 190.61L65.36 190.44L64.65 190.26L74.71 166.51L84.63 166.51L74.58 192.61L73.86 192.45Z" id="aotjjSGmD" fill="white" fill-opacity="1" filter="url(#shadow4988512)"></path></g><g><filter id="shadow4327890" x="5.65" y="107.51" width="137.98" height="144.1" filterUnits="userSpaceOnUse" primitiveUnits="userSpaceOnUse"><feFlood></feFlood><feComposite in2="SourceAlpha" operator="in"></feComposite><feGaussianBlur stdDeviation="5"></feGaussianBlur><feOffset dx="0" dy="0" result="afterOffset"></feOffset><feFlood flood-color="#98c1c8" flood-opacity="1"></feFlood><feComposite in2="afterOffset" operator="in"></feComposite><feMorphology operator="dilate" radius="4"></feMorphology><feComposite in2="SourceAlpha" operator="out"></feComposite></filter><path d="M73.86 192.45L73.15 192.29L72.44 192.13L71.73 191.97L71.02 191.8L70.31 191.64L69.6 191.47L68.9 191.3L68.19 191.13L67.48 190.96L66.77 190.79L66.06 190.61L65.36 190.44L64.65 190.26L74.71 166.51L84.63 166.51L74.58 192.61L73.86 192.45Z" id="a15Sh6lWiz" fill="white" fill-opacity="1" filter="url(#shadow4327890)"></path></g><use xlink:href="#b1g2kXNWWZ" opacity="1" fill="#ffffff" fill-opacity="1"></use></g><g><g><filter id="shadow6036695" x="50.65" y="62.8" width="74.85" height="96.31" filterUnits="userSpaceOnUse" primitiveUnits="userSpaceOnUse"><feFlood></feFlood><feComposite in2="SourceAlpha" operator="in"></feComposite><feGaussianBlur stdDeviation="1.73"></feGaussianBlur><feOffset dx="0" dy="0" result="afterOffset"></feOffset><feFlood flood-color="#000000" flood-opacity="0.9"></feFlood><feComposite in2="afterOffset" operator="in"></feComposite><feMorphology operator="dilate" radius="1"></feMorphology><feComposite in2="SourceAlpha" operator="out"></feComposite></filter><path d="M87.09 78.22L87.58 78.68L88.06 79.15L88.54 79.62L89.01 80.09L89.47 80.57L89.93 81.05L90.38 81.54L90.83 82.03L91.28 82.52L91.72 83.02L92.15 83.52L92.58 84.02L93 84.53L93.42 85.04L93.83 85.55L94.24 86.07L94.64 86.59L95.04 87.12L95.43 87.65L95.81 88.18L96.19 88.72L96.57 89.26L96.94 89.8L97.3 90.34L97.66 90.89L98.01 91.45L98.36 92L98.7 92.56L99.04 93.12L99.37 93.69L99.7 94.26L100.01 94.83L100.33 95.41L100.64 95.98L100.94 96.57L101.24 97.15L101.53 97.74L101.82 98.33L102.1 98.93L102.37 99.52L104.88 105.05L98.84 105.05L94.58 92.99L94.46 92.66L94.33 92.34L94.18 92.03L94.03 91.72L93.87 91.41L93.7 91.11L93.52 90.82L93.33 90.54L93.13 90.26L92.93 89.99L92.71 89.72L92.49 89.46L92.26 89.21L92.02 88.97L91.77 88.73L91.52 88.5L91.26 88.28L90.99 88.07L90.72 87.86L90.44 87.67L90.15 87.48L89.86 87.3L89.56 87.12L89.25 86.96L88.94 86.81L88.63 86.66L88.31 86.52L87.98 86.4L87.65 86.28L87.32 86.17L86.98 86.07L86.64 85.98L86.29 85.9L85.94 85.83L85.59 85.77L85.23 85.72L84.87 85.69L84.51 85.66L84.14 85.64L83.77 85.64L83.31 85.65L82.84 85.67L82.38 85.72L81.93 85.78L81.48 85.86L81.04 85.95L80.61 86.06L80.18 86.19L79.76 86.33L79.35 86.48L78.94 86.65L78.55 86.84L78.16 87.04L77.78 87.25L77.41 87.48L77.05 87.72L76.7 87.97L76.37 88.23L76.04 88.5L75.73 88.79L75.42 89.09L75.13 89.4L74.85 89.72L74.59 90.04L74.33 90.38L74.09 90.73L73.87 91.09L73.66 91.45L73.46 91.83L73.28 92.21L73.12 92.6L72.97 93L72.83 93.4L72.72 93.81L72.62 94.23L72.53 94.65L72.47 95.08L72.42 95.51L72.39 95.95L72.39 96.39L72.39 97.03L72.39 97.14L72.39 97.25L72.39 97.36L72.39 97.47L72.4 97.58L72.41 97.69L72.41 97.8L72.42 97.91L72.43 98.02L72.44 98.12L72.46 98.23L72.47 98.34L72.48 98.45L72.5 98.56L72.52 98.66L72.53 98.77L72.55 98.88L72.57 98.98L72.59 99.09L72.62 99.2L72.64 99.3L72.67 99.41L72.69 99.52L72.72 99.62L72.75 99.73L72.78 99.83L72.81 99.93L72.84 100.04L72.87 100.14L72.91 100.25L72.94 100.35L72.98 100.45L73.01 100.56L73.05 100.66L73.09 100.76L73.13 100.86L73.17 100.96L73.22 101.07L73.26 101.17L73.31 101.27L83.83 124.46L113.5 124.46L113.5 147.1L84.97 147.1L62.65 95.38L72.39 80.06L72.39 74.8L72.55 74.85L72.71 74.9L72.87 74.95L73.03 75L73.2 75.05L73.36 75.1L73.53 75.15L73.69 75.19L73.86 75.23L74.02 75.28L74.19 75.32L74.36 75.36L74.53 75.4L74.69 75.43L74.86 75.47L75.03 75.51L75.2 75.54L75.37 75.57L75.54 75.6L75.72 75.63L75.89 75.66L76.06 75.69L76.23 75.71L76.41 75.74L76.58 75.76L76.75 75.78L76.93 75.8L77.1 75.82L77.28 75.84L77.45 75.85L77.63 75.87L77.81 75.88L77.98 75.89L78.16 75.9L78.34 75.91L78.52 75.92L78.7 75.92L78.88 75.93L79.06 75.93L79.24 75.93L79.42 75.93L79.6 75.93L79.78 75.92L79.96 75.92L80.13 75.91L80.31 75.9L80.49 75.89L80.67 75.88L80.84 75.87L81.02 75.85L81.2 75.84L81.37 75.82L81.55 75.8L81.72 75.78L81.9 75.76L82.07 75.74L82.24 75.71L82.42 75.69L82.59 75.66L82.76 75.63L82.93 75.6L83.1 75.57L83.27 75.54L83.44 75.51L83.61 75.47L83.78 75.44L83.95 75.4L84.12 75.36L84.28 75.32L84.45 75.28L84.62 75.24L84.78 75.19L84.95 75.15L85.11 75.1L85.28 75.05L85.44 75L85.6 74.95L85.77 74.9L85.93 74.85L86.09 74.8L86.09 77.27L87.09 78.22Z" id="boI6ytvsp" fill="white" fill-opacity="1" filter="url(#shadow6036695)"></path></g><g><filter id="shadow15904945" x="3.65" y="15.8" width="168.85" height="190.31" filterUnits="userSpaceOnUse" primitiveUnits="userSpaceOnUse"><feFlood></feFlood><feComposite in2="SourceAlpha" operator="in"></feComposite><feGaussianBlur stdDeviation="5"></feGaussianBlur><feOffset dx="0" dy="0" result="afterOffset"></feOffset><feFlood flood-color="#98c1c8" flood-opacity="1"></feFlood><feComposite in2="afterOffset" operator="in"></feComposite><feMorphology operator="dilate" radius="4"></feMorphology><feComposite in2="SourceAlpha" operator="out"></feComposite></filter><path d="M87.09 78.22L87.58 78.68L88.06 79.15L88.54 79.62L89.01 80.09L89.47 80.57L89.93 81.05L90.38 81.54L90.83 82.03L91.28 82.52L91.72 83.02L92.15 83.52L92.58 84.02L93 84.53L93.42 85.04L93.83 85.55L94.24 86.07L94.64 86.59L95.04 87.12L95.43 87.65L95.81 88.18L96.19 88.72L96.57 89.26L96.94 89.8L97.3 90.34L97.66 90.89L98.01 91.45L98.36 92L98.7 92.56L99.04 93.12L99.37 93.69L99.7 94.26L100.01 94.83L100.33 95.41L100.64 95.98L100.94 96.57L101.24 97.15L101.53 97.74L101.82 98.33L102.1 98.93L102.37 99.52L104.88 105.05L98.84 105.05L94.58 92.99L94.46 92.66L94.33 92.34L94.18 92.03L94.03 91.72L93.87 91.41L93.7 91.11L93.52 90.82L93.33 90.54L93.13 90.26L92.93 89.99L92.71 89.72L92.49 89.46L92.26 89.21L92.02 88.97L91.77 88.73L91.52 88.5L91.26 88.28L90.99 88.07L90.72 87.86L90.44 87.67L90.15 87.48L89.86 87.3L89.56 87.12L89.25 86.96L88.94 86.81L88.63 86.66L88.31 86.52L87.98 86.4L87.65 86.28L87.32 86.17L86.98 86.07L86.64 85.98L86.29 85.9L85.94 85.83L85.59 85.77L85.23 85.72L84.87 85.69L84.51 85.66L84.14 85.64L83.77 85.64L83.31 85.65L82.84 85.67L82.38 85.72L81.93 85.78L81.48 85.86L81.04 85.95L80.61 86.06L80.18 86.19L79.76 86.33L79.35 86.48L78.94 86.65L78.55 86.84L78.16 87.04L77.78 87.25L77.41 87.48L77.05 87.72L76.7 87.97L76.37 88.23L76.04 88.5L75.73 88.79L75.42 89.09L75.13 89.4L74.85 89.72L74.59 90.04L74.33 90.38L74.09 90.73L73.87 91.09L73.66 91.45L73.46 91.83L73.28 92.21L73.12 92.6L72.97 93L72.83 93.4L72.72 93.81L72.62 94.23L72.53 94.65L72.47 95.08L72.42 95.51L72.39 95.95L72.39 96.39L72.39 97.03L72.39 97.14L72.39 97.25L72.39 97.36L72.39 97.47L72.4 97.58L72.41 97.69L72.41 97.8L72.42 97.91L72.43 98.02L72.44 98.12L72.46 98.23L72.47 98.34L72.48 98.45L72.5 98.56L72.52 98.66L72.53 98.77L72.55 98.88L72.57 98.98L72.59 99.09L72.62 99.2L72.64 99.3L72.67 99.41L72.69 99.52L72.72 99.62L72.75 99.73L72.78 99.83L72.81 99.93L72.84 100.04L72.87 100.14L72.91 100.25L72.94 100.35L72.98 100.45L73.01 100.56L73.05 100.66L73.09 100.76L73.13 100.86L73.17 100.96L73.22 101.07L73.26 101.17L73.31 101.27L83.83 124.46L113.5 124.46L113.5 147.1L84.97 147.1L62.65 95.38L72.39 80.06L72.39 74.8L72.55 74.85L72.71 74.9L72.87 74.95L73.03 75L73.2 75.05L73.36 75.1L73.53 75.15L73.69 75.19L73.86 75.23L74.02 75.28L74.19 75.32L74.36 75.36L74.53 75.4L74.69 75.43L74.86 75.47L75.03 75.51L75.2 75.54L75.37 75.57L75.54 75.6L75.72 75.63L75.89 75.66L76.06 75.69L76.23 75.71L76.41 75.74L76.58 75.76L76.75 75.78L76.93 75.8L77.1 75.82L77.28 75.84L77.45 75.85L77.63 75.87L77.81 75.88L77.98 75.89L78.16 75.9L78.34 75.91L78.52 75.92L78.7 75.92L78.88 75.93L79.06 75.93L79.24 75.93L79.42 75.93L79.6 75.93L79.78 75.92L79.96 75.92L80.13 75.91L80.31 75.9L80.49 75.89L80.67 75.88L80.84 75.87L81.02 75.85L81.2 75.84L81.37 75.82L81.55 75.8L81.72 75.78L81.9 75.76L82.07 75.74L82.24 75.71L82.42 75.69L82.59 75.66L82.76 75.63L82.93 75.6L83.1 75.57L83.27 75.54L83.44 75.51L83.61 75.47L83.78 75.44L83.95 75.4L84.12 75.36L84.28 75.32L84.45 75.28L84.62 75.24L84.78 75.19L84.95 75.15L85.11 75.1L85.28 75.05L85.44 75L85.6 74.95L85.77 74.9L85.93 74.85L86.09 74.8L86.09 77.27L87.09 78.22Z" id="c3ana3MQxF" fill="white" fill-opacity="1" filter="url(#shadow15904945)"></path></g><use xlink:href="#a3ag4Akkd" opacity="1" fill="#ffffff" fill-opacity="1"></use></g><g><g><filter id="shadow4551782" x="15.85" y="41.28" width="37.7" height="36.94" filterUnits="userSpaceOnUse" primitiveUnits="userSpaceOnUse"><feFlood></feFlood><feComposite in2="SourceAlpha" operator="in"></feComposite><feGaussianBlur stdDeviation="1.73"></feGaussianBlur><feOffset dx="0" dy="0" result="afterOffset"></feOffset><feFlood flood-color="#000000" flood-opacity="0.9"></feFlood><feComposite in2="afterOffset" operator="in"></feComposite><feMorphology operator="dilate" radius="1"></feMorphology><feComposite in2="SourceAlpha" operator="out"></feComposite></filter><path d="M37.36 53.79L38.53 54.39L39.54 55.18L40.38 56.14L41.01 57.24L41.41 58.45L41.55 59.75L41.41 61.06L41.01 62.27L40.38 63.37L39.54 64.33L38.53 65.12L37.36 65.72L36.08 66.09L34.7 66.22L33.32 66.09L32.03 65.72L30.87 65.12L29.85 64.33L29.02 63.37L28.38 62.27L27.98 61.06L27.85 59.75L27.98 58.45L28.38 57.24L29.02 56.14L29.85 55.18L30.87 54.39L32.03 53.79L33.32 53.41L34.7 53.28L36.08 53.41L37.36 53.79Z" id="d307ybiTyo" fill="white" fill-opacity="1" filter="url(#shadow4551782)"></path></g><g><filter id="shadow4801850" x="-31.15" y="-5.72" width="131.7" height="130.94" filterUnits="userSpaceOnUse" primitiveUnits="userSpaceOnUse"><feFlood></feFlood><feComposite in2="SourceAlpha" operator="in"></feComposite><feGaussianBlur stdDeviation="5"></feGaussianBlur><feOffset dx="0" dy="0" result="afterOffset"></feOffset><feFlood flood-color="#98c1c8" flood-opacity="1"></feFlood><feComposite in2="afterOffset" operator="in"></feComposite><feMorphology operator="dilate" radius="4"></feMorphology><feComposite in2="SourceAlpha" operator="out"></feComposite></filter><path d="M37.36 53.79L38.53 54.39L39.54 55.18L40.38 56.14L41.01 57.24L41.41 58.45L41.55 59.75L41.41 61.06L41.01 62.27L40.38 63.37L39.54 64.33L38.53 65.12L37.36 65.72L36.08 66.09L34.7 66.22L33.32 66.09L32.03 65.72L30.87 65.12L29.85 64.33L29.02 63.37L28.38 62.27L27.98 61.06L27.85 59.75L27.98 58.45L28.38 57.24L29.02 56.14L29.85 55.18L30.87 54.39L32.03 53.79L33.32 53.41L34.7 53.28L36.08 53.41L37.36 53.79Z" id="ilWoTYIKM" fill="white" fill-opacity="1" filter="url(#shadow4801850)"></path></g><use xlink:href="#ft1OgcbQX" opacity="1" fill="#ffffff" fill-opacity="1"></use></g><g><g><filter id="shadow10206037" x="24.33" y="57.23" width="101.17" height="114.82" filterUnits="userSpaceOnUse" primitiveUnits="userSpaceOnUse"><feFlood></feFlood><feComposite in2="SourceAlpha" operator="in"></feComposite><feGaussianBlur stdDeviation="1.73"></feGaussianBlur><feOffset dx="0" dy="0" result="afterOffset"></feOffset><feFlood flood-color="#000000" flood-opacity="0.9"></feFlood><feComposite in2="afterOffset" operator="in"></feComposite><feMorphology operator="dilate" radius="1"></feMorphology><feComposite in2="SourceAlpha" operator="out"></feComposite></filter><path d="M113.5 153.57L113.5 160.04L74.67 160.04L36.33 72.54L36.55 72.51L36.77 72.48L36.98 72.45L37.2 72.41L37.41 72.37L37.63 72.33L37.84 72.29L38.05 72.24L38.26 72.19L38.47 72.13L38.68 72.08L38.88 72.02L39.09 71.95L39.29 71.89L39.49 71.82L39.69 71.75L39.89 71.67L40.09 71.6L40.28 71.52L40.48 71.43L40.67 71.35L40.86 71.26L41.05 71.17L41.23 71.07L41.42 70.98L41.6 70.88L41.78 70.78L41.96 70.67L42.14 70.57L42.32 70.46L42.49 70.35L42.66 70.23L42.83 70.11L43 69.99L43.17 69.87L43.33 69.75L43.5 69.62L43.66 69.49L43.81 69.36L43.97 69.23L80.36 153.57L113.5 153.57Z" id="ag0L1lham" fill="white" fill-opacity="1" filter="url(#shadow10206037)"></path></g><g><filter id="shadow1632649" x="-22.67" y="10.23" width="195.17" height="208.82" filterUnits="userSpaceOnUse" primitiveUnits="userSpaceOnUse"><feFlood></feFlood><feComposite in2="SourceAlpha" operator="in"></feComposite><feGaussianBlur stdDeviation="5"></feGaussianBlur><feOffset dx="0" dy="0" result="afterOffset"></feOffset><feFlood flood-color="#98c1c8" flood-opacity="1"></feFlood><feComposite in2="afterOffset" operator="in"></feComposite><feMorphology operator="dilate" radius="4"></feMorphology><feComposite in2="SourceAlpha" operator="out"></feComposite></filter><path d="M113.5 153.57L113.5 160.04L74.67 160.04L36.33 72.54L36.55 72.51L36.77 72.48L36.98 72.45L37.2 72.41L37.41 72.37L37.63 72.33L37.84 72.29L38.05 72.24L38.26 72.19L38.47 72.13L38.68 72.08L38.88 72.02L39.09 71.95L39.29 71.89L39.49 71.82L39.69 71.75L39.89 71.67L40.09 71.6L40.28 71.52L40.48 71.43L40.67 71.35L40.86 71.26L41.05 71.17L41.23 71.07L41.42 70.98L41.6 70.88L41.78 70.78L41.96 70.67L42.14 70.57L42.32 70.46L42.49 70.35L42.66 70.23L42.83 70.11L43 69.99L43.17 69.87L43.33 69.75L43.5 69.62L43.66 69.49L43.81 69.36L43.97 69.23L80.36 153.57L113.5 153.57Z" id="c2fVFDCy0T" fill="white" fill-opacity="1" filter="url(#shadow1632649)"></path></g><use xlink:href="#f4Uq8krPd" opacity="1" fill="#ffffff" fill-opacity="1"></use></g></g></g></svg>