<?xml version="1.0" encoding="UTF-8" standalone="no"?>
<!DOCTYPE svg PUBLIC "-//W3C//DTD SVG 1.1//EN" "http://www.w3.org/Graphics/SVG/1.1/DTD/svg11.dtd">
<svg version="1.1" xmlns="http://www.w3.org/2000/svg" xmlns:xlink="http://www.w3.org/1999/xlink" preserveAspectRatio="xMidYMid meet" viewBox="0 0 250 250" width="250" height="250"><defs><path d="M133.03 31.37L134.37 31.51L135.7 31.72L137.01 31.97L138.29 32.28L139.55 32.65L140.79 33.06L142 33.52L143.18 34.03L144.33 34.59L145.45 35.19L146.54 35.84L147.6 36.53L148.63 37.26L149.61 38.03L150.56 38.84L151.47 39.69L152.34 40.57L153.17 41.49L153.96 42.45L154.7 43.43L155.39 44.45L156.04 45.49L156.64 46.57L157.19 47.67L157.68 48.79L158.13 49.94L158.52 51.12L158.85 52.31L159.12 53.53L159.34 54.76L159.5 56.02L159.59 57.29L159.63 58.57L159.59 59.85L159.5 61.12L159.34 62.38L159.12 63.61L158.85 64.83L158.52 66.02L158.13 67.2L157.68 68.35L157.19 69.47L156.64 70.57L156.04 71.65L155.39 72.69L154.7 73.71L153.96 74.69L153.17 75.65L152.34 76.57L151.47 77.45L150.56 78.3L149.61 79.11L148.63 79.88L147.6 80.61L146.54 81.3L145.45 81.95L144.33 82.55L143.18 83.11L142 83.62L140.79 84.08L139.55 84.5L138.29 84.86L137.01 85.17L135.7 85.42L134.37 85.63L133.03 85.77L131.67 85.86L130.29 85.89L128.91 85.86L127.54 85.77L126.2 85.63L124.87 85.42L123.57 85.17L122.28 84.86L121.02 84.5L119.79 84.08L118.58 83.62L117.39 83.11L116.24 82.55L115.12 81.95L114.03 81.3L112.97 80.61L111.95 79.88L110.96 79.11L110.01 78.3L109.1 77.45L108.23 76.57L107.4 75.65L106.62 74.69L105.87 73.71L105.18 72.69L104.53 71.65L103.93 70.57L103.39 69.47L102.89 68.35L102.45 67.2L102.06 66.02L101.72 64.83L101.45 63.61L101.23 62.38L101.07 61.12L100.98 59.85L100.95 58.57L100.98 57.29L101.07 56.02L101.23 54.76L101.45 53.53L101.72 52.31L102.06 51.12L102.45 49.94L102.89 48.79L103.39 47.67L103.93 46.57L104.53 45.49L105.18 44.45L105.87 43.43L106.62 42.45L107.4 41.49L108.23 40.57L109.1 39.69L110.01 38.84L110.96 38.03L111.95 37.26L112.97 36.53L114.03 35.84L115.12 35.19L116.24 34.59L117.39 34.03L118.58 33.52L119.79 33.06L121.02 32.65L122.28 32.28L123.57 31.97L124.87 31.72L126.2 31.51L127.54 31.37L128.91 31.28L130.29 31.25L131.67 31.28L133.03 31.37ZM124.82 37.59L123.66 37.89L122.53 38.23L121.42 38.63L120.34 39.08L119.29 39.58L118.27 40.12L117.28 40.71L116.33 41.35L115.41 42.03L114.54 42.75L113.7 43.51L112.91 44.3L112.15 45.14L111.45 46L110.79 46.91L110.18 47.84L109.61 48.8L109.11 49.8L108.65 50.81L108.25 51.86L107.91 52.93L107.62 54.02L107.4 55.13L107.23 56.26L107.14 57.41L107.1 58.57L107.14 59.73L107.23 60.88L107.4 62.01L107.62 63.12L107.91 64.21L108.25 65.28L108.65 66.33L109.11 67.35L109.61 68.34L110.18 69.3L110.79 70.24L111.45 71.14L112.15 72.01L112.91 72.84L113.7 73.64L114.54 74.39L115.41 75.11L116.33 75.79L117.28 76.43L118.27 77.02L119.29 77.56L120.34 78.06L121.42 78.51L122.53 78.91L123.66 79.25L124.82 79.55L126 79.78L127.21 79.96L127.21 76.72L120.44 76.72L120.26 76.72L120.08 76.7L119.9 76.68L119.73 76.64L119.56 76.6L119.4 76.55L119.24 76.5L119.08 76.43L118.93 76.36L118.79 76.27L118.65 76.19L118.51 76.09L118.38 75.99L118.26 75.88L118.15 75.77L118.04 75.65L117.93 75.52L117.84 75.39L117.75 75.26L117.67 75.12L117.6 74.97L117.54 74.82L117.49 74.67L117.44 74.51L117.41 74.35L117.38 74.19L117.37 74.02L117.36 73.85L117.37 73.69L117.38 73.52L117.41 73.36L117.44 73.2L117.49 73.04L117.54 72.89L117.6 72.74L117.67 72.59L117.75 72.45L117.84 72.32L117.93 72.19L118.04 72.06L118.15 71.94L118.26 71.83L118.38 71.72L118.51 71.62L118.65 71.52L118.79 71.43L118.93 71.35L119.08 71.28L119.24 71.21L119.4 71.16L119.56 71.11L119.73 71.06L119.9 71.03L120.08 71.01L120.26 70.99L120.44 70.99L127.21 70.99L127.21 64.49L120.44 64.49L120.26 64.49L120.08 64.47L119.9 64.45L119.73 64.42L119.56 64.38L119.4 64.33L119.24 64.27L119.08 64.2L118.93 64.13L118.79 64.05L118.65 63.96L118.51 63.86L118.38 63.76L118.26 63.65L118.15 63.54L118.04 63.42L117.93 63.29L117.84 63.16L117.75 63.03L117.67 62.89L117.6 62.74L117.54 62.59L117.49 62.44L117.44 62.28L117.41 62.12L117.38 61.96L117.37 61.8L117.36 61.63L117.36 46.34L117.37 46.17L117.38 46.01L117.41 45.85L117.44 45.69L117.49 45.53L117.54 45.38L117.6 45.23L117.67 45.08L117.75 44.94L117.84 44.81L117.93 44.68L118.04 44.55L118.15 44.43L118.26 44.32L118.38 44.21L118.51 44.11L118.65 44.01L118.79 43.92L118.93 43.84L119.08 43.77L119.24 43.7L119.4 43.64L119.56 43.59L119.73 43.55L119.9 43.52L120.08 43.5L120.26 43.48L120.44 43.48L127.21 43.48L127.21 37.18L126 37.36L124.82 37.59ZM140.13 43.48L140.32 43.48L140.49 43.5L140.67 43.52L140.84 43.55L141.01 43.59L141.17 43.64L141.33 43.7L141.49 43.77L141.64 43.84L141.78 43.92L141.92 44.01L142.06 44.11L142.19 44.21L142.31 44.32L142.43 44.43L142.54 44.55L142.64 44.68L142.73 44.81L142.82 44.94L142.9 45.08L142.97 45.23L143.03 45.38L143.09 45.53L143.13 45.69L143.17 45.85L143.19 46.01L143.21 46.17L143.21 46.34L143.21 46.51L143.19 46.68L143.17 46.84L143.13 47L143.09 47.16L143.03 47.31L142.97 47.46L142.9 47.6L142.82 47.74L142.73 47.88L142.64 48.01L142.54 48.14L142.43 48.26L142.31 48.37L142.19 48.48L142.06 48.58L141.92 48.67L141.78 48.76L141.64 48.84L141.49 48.92L141.33 48.98L141.17 49.04L141.01 49.09L140.84 49.13L140.67 49.17L140.49 49.19L140.32 49.2L140.13 49.21L133.36 49.21L133.36 58.76L140.13 58.76L140.32 58.77L140.49 58.78L140.67 58.8L140.84 58.84L141.01 58.88L141.17 58.93L141.33 58.99L141.49 59.05L141.64 59.13L141.78 59.21L141.92 59.3L142.06 59.39L142.19 59.49L142.31 59.6L142.43 59.71L142.54 59.83L142.64 59.96L142.73 60.09L142.82 60.23L142.9 60.37L142.97 60.51L143.03 60.66L143.09 60.81L143.13 60.97L143.17 61.13L143.19 61.29L143.21 61.46L143.21 61.63L143.21 73.85L143.21 74.02L143.19 74.19L143.17 74.35L143.13 74.51L143.09 74.67L143.03 74.82L142.97 74.97L142.9 75.11L142.82 75.25L142.73 75.39L142.64 75.52L142.54 75.65L142.43 75.77L142.31 75.88L142.19 75.99L142.06 76.09L141.92 76.19L141.78 76.27L141.64 76.35L141.49 76.43L141.33 76.49L141.17 76.55L141.01 76.6L140.84 76.64L140.67 76.68L140.49 76.7L140.32 76.71L140.13 76.72L133.36 76.72L133.36 79.96L134.57 79.78L135.75 79.55L136.91 79.25L138.05 78.91L139.15 78.51L140.24 78.06L141.29 77.56L142.31 77.02L143.29 76.43L144.24 75.79L145.16 75.11L146.04 74.39L146.87 73.64L147.67 72.84L148.42 72L149.13 71.14L149.78 70.23L150.4 69.3L150.96 68.34L151.47 67.35L151.92 66.33L152.32 65.28L152.67 64.21L152.95 63.12L153.18 62.01L153.34 60.88L153.44 59.73L153.47 58.57L153.44 57.41L153.34 56.26L153.18 55.13L152.95 54.02L152.67 52.93L152.32 51.86L151.92 50.81L151.47 49.79L150.96 48.8L150.4 47.84L149.78 46.91L149.13 46L148.42 45.14L147.67 44.3L146.87 43.51L146.04 42.75L145.16 42.03L144.24 41.35L143.29 40.71L142.31 40.12L141.29 39.58L140.24 39.08L139.15 38.63L138.05 38.23L136.91 37.89L135.75 37.59L134.57 37.36L133.36 37.18L133.36 43.48L140.13 43.48ZM133.36 70.99L137.06 70.99L137.06 64.49L133.36 64.49L133.36 70.99ZM123.52 58.76L127.21 58.76L127.21 49.21L123.52 49.21L123.52 58.76Z" id="f29FewLJJM"></path><path d="M183.82 167.38C179.58 175.68 170.49 181.03 160.65 181.03C158.95 181.03 157.57 182.32 157.57 183.9C157.57 185.48 158.95 186.76 160.65 186.76C172.85 186.76 184.12 180.12 189.38 169.85C190.11 168.42 189.46 166.71 187.92 166.03C186.39 165.35 184.55 165.95 183.82 167.38Z" id="aRpDo6OPn"></path><path d="M186.3 128.88C186.3 130.71 186.3 145.38 186.3 147.22C186.3 148.8 187.67 150.08 189.37 150.08C191.07 150.08 192.45 148.8 192.45 147.22C192.45 145.38 192.45 130.71 192.45 128.88C192.45 127.29 191.07 126.01 189.37 126.01C187.68 126.01 186.3 127.29 186.3 128.88Z" id="i53qGpD9Lt"></path><path d="M81.24 61.82L81.33 61.83L81.42 61.84L81.51 61.85L81.6 61.87L81.69 61.88L81.78 61.9L81.87 61.92L81.96 61.95L82.04 61.97L82.13 62L82.21 62.03L82.3 62.07L82.38 62.1L82.46 62.14L82.55 62.18L82.63 62.22L82.7 62.27L82.78 62.32L82.86 62.37L82.93 62.42L83.01 62.47L83.08 62.53L83.15 62.59L83.22 62.65L83.28 62.71L83.35 62.78L108.69 89.33L161.47 89.33L163.24 89.36L165 89.46L166.74 89.62L168.45 89.84L170.15 90.13L171.82 90.47L173.47 90.87L175.09 91.33L176.68 91.85L178.25 92.42L179.79 93.04L181.29 93.72L182.77 94.44L184.21 95.22L185.61 96.04L186.98 96.91L188.32 97.83L189.61 98.8L190.86 99.8L192.07 100.85L193.24 101.94L194.37 103.07L195.45 104.24L196.48 105.44L197.46 106.69L198.4 107.96L199.28 109.27L200.11 110.62L200.89 111.99L201.62 113.39L202.28 114.83L202.89 116.28L203.44 117.77L203.94 119.28L204.37 120.82L204.73 122.37L205.04 123.95L205.27 125.55L205.44 127.17L205.55 128.8L206.12 128.69L206.69 128.57L207.25 128.42L207.8 128.26L208.34 128.08L208.88 127.88L209.41 127.67L209.92 127.44L210.43 127.19L210.92 126.93L211.41 126.65L211.88 126.36L212.34 126.05L212.79 125.73L213.23 125.4L213.66 125.05L214.07 124.69L214.47 124.32L214.86 123.93L215.23 123.53L215.59 123.13L215.93 122.7L216.26 122.27L216.57 121.83L216.86 121.38L217.14 120.92L217.4 120.44L217.65 119.96L217.88 119.47L218.09 118.97L218.28 118.47L218.45 117.95L218.61 117.43L218.74 116.9L218.86 116.36L218.95 115.82L219.03 115.27L219.08 114.72L219.11 114.16L219.12 113.59L219.11 112.96L219.07 112.33L219 111.7L218.91 111.09L218.79 110.48L218.64 109.88L218.47 109.29L218.28 108.71L218.06 108.14L217.82 107.57L217.55 107.03L217.27 106.49L216.96 105.96L216.63 105.45L216.28 104.95L215.91 104.46L215.53 103.99L215.12 103.53L214.69 103.08L214.25 102.66L213.79 102.24L213.31 101.85L212.82 101.47L212.31 101.11L211.79 100.76L211.25 100.44L210.7 100.13L210.14 99.85L209.56 99.58L208.97 99.34L208.37 99.11L207.75 98.91L207.13 98.73L206.49 98.57L205.85 98.43L205.2 98.32L204.54 98.23L203.87 98.17L203.19 98.13L202.51 98.12L202.38 98.12L202.25 98.11L202.13 98.1L202.01 98.08L201.89 98.06L201.77 98.03L201.65 98.01L201.53 97.97L201.42 97.93L201.31 97.89L201.2 97.85L201.09 97.8L200.99 97.74L200.88 97.69L200.78 97.63L200.69 97.56L200.59 97.5L200.5 97.43L200.41 97.35L200.33 97.28L200.25 97.2L200.17 97.12L200.09 97.03L200.02 96.94L199.95 96.85L199.89 96.76L199.83 96.67L199.77 96.57L199.72 96.47L199.67 96.37L199.62 96.26L199.58 96.16L199.55 96.05L199.52 95.94L199.49 95.83L199.47 95.72L199.45 95.6L199.44 95.49L199.43 95.37L199.43 95.25L199.43 95.13L199.44 95.02L199.45 94.9L199.47 94.79L199.49 94.67L199.52 94.56L199.55 94.45L199.58 94.35L199.62 94.24L199.67 94.14L199.72 94.03L199.77 93.93L199.83 93.84L199.89 93.74L199.95 93.65L200.02 93.56L200.09 93.47L200.17 93.39L200.25 93.3L200.33 93.23L200.41 93.15L200.5 93.08L200.59 93.01L200.69 92.94L200.78 92.88L200.88 92.82L200.99 92.76L201.09 92.71L201.2 92.66L201.31 92.61L201.42 92.57L201.53 92.53L201.65 92.5L201.77 92.47L201.89 92.44L202.01 92.42L202.13 92.41L202.25 92.4L202.38 92.39L202.51 92.39L203.44 92.4L204.37 92.46L205.29 92.54L206.19 92.66L207.09 92.82L207.97 93L208.84 93.22L209.7 93.47L210.54 93.75L211.36 94.06L212.17 94.39L212.96 94.76L213.74 95.15L214.49 95.57L215.23 96.01L215.95 96.48L216.64 96.98L217.32 97.5L217.97 98.04L218.6 98.6L219.21 99.19L219.79 99.8L220.35 100.43L220.88 101.08L221.38 101.74L221.86 102.43L222.31 103.13L222.73 103.86L223.13 104.59L223.49 105.35L223.82 106.11L224.12 106.9L224.38 107.69L224.62 108.5L224.82 109.32L224.98 110.16L225.11 111L225.2 111.86L225.26 112.72L225.28 113.59L225.26 114.39L225.22 115.19L225.14 115.97L225.03 116.75L224.89 117.52L224.72 118.27L224.52 119.02L224.3 119.76L224.04 120.49L223.76 121.2L223.46 121.9L223.12 122.59L222.77 123.27L222.38 123.93L221.98 124.58L221.54 125.21L221.09 125.83L220.61 126.43L220.12 127.02L219.6 127.59L219.06 128.14L218.49 128.68L217.91 129.19L217.31 129.69L216.7 130.16L216.06 130.62L215.41 131.05L214.74 131.47L214.05 131.86L213.35 132.23L212.63 132.58L211.9 132.91L211.15 133.21L210.39 133.48L209.62 133.73L208.83 133.96L208.04 134.16L207.23 134.33L206.41 134.48L205.58 134.6L205.58 157.92L205.56 159.35L205.48 160.77L205.35 162.18L205.17 163.58L204.94 164.96L204.66 166.33L204.33 167.69L203.95 169.03L203.53 170.35L203.06 171.65L202.55 172.93L201.99 174.2L201.38 175.44L200.74 176.66L200.05 177.86L199.33 179.03L198.56 180.18L197.75 181.31L196.9 182.41L196.02 183.48L195.1 184.53L194.14 185.54L193.14 186.53L192.12 187.49L191.05 188.41L189.96 189.3L188.83 190.16L187.67 190.99L186.48 191.78L185.26 192.53L184.01 193.25L182.73 193.93L181.42 194.57L180.09 195.17L178.73 195.73L177.35 196.25L175.94 196.73L174.51 197.17L173.05 197.56L171.58 197.9L169.44 211.82L169.42 211.92L169.4 212.02L169.38 212.13L169.35 212.23L169.31 212.33L169.28 212.42L169.23 212.52L169.19 212.61L169.14 212.71L169.09 212.8L169.04 212.88L168.98 212.97L168.92 213.05L168.85 213.13L168.79 213.21L168.72 213.29L168.65 213.37L168.57 213.44L168.49 213.51L168.41 213.58L168.33 213.64L168.24 213.7L168.16 213.76L168.07 213.82L167.98 213.87L167.88 213.92L167.79 213.97L167.69 214.01L167.59 214.05L167.49 214.09L167.38 214.12L167.28 214.16L167.17 214.18L167.07 214.21L166.96 214.23L166.85 214.25L166.74 214.26L166.62 214.27L166.51 214.27L166.4 214.28L146.7 214.28L146.59 214.27L146.47 214.27L146.36 214.26L146.25 214.25L146.14 214.23L146.03 214.21L145.92 214.18L145.82 214.16L145.71 214.12L145.61 214.09L145.51 214.05L145.41 214.01L145.31 213.97L145.21 213.92L145.12 213.87L145.03 213.82L144.94 213.76L144.85 213.7L144.77 213.64L144.68 213.57L144.6 213.51L144.53 213.44L144.45 213.37L144.38 213.29L144.31 213.21L144.24 213.13L144.18 213.05L144.12 212.97L144.06 212.88L144.01 212.8L143.95 212.71L143.91 212.61L143.86 212.52L143.82 212.42L143.78 212.33L143.75 212.23L143.72 212.13L143.69 212.02L143.67 211.92L143.65 211.82L141.69 198.99L112.32 198.99L110.35 211.82L110.34 211.92L110.31 212.02L110.29 212.13L110.26 212.23L110.22 212.33L110.19 212.42L110.15 212.52L110.1 212.61L110.05 212.71L110 212.8L109.95 212.88L109.89 212.97L109.83 213.05L109.77 213.13L109.7 213.21L109.63 213.29L109.56 213.37L109.48 213.44L109.4 213.51L109.32 213.58L109.24 213.64L109.16 213.7L109.07 213.76L108.98 213.82L108.89 213.87L108.79 213.92L108.7 213.97L108.6 214.01L108.5 214.05L108.4 214.09L108.3 214.12L108.19 214.16L108.09 214.18L107.98 214.21L107.87 214.23L107.76 214.25L107.65 214.26L107.54 214.27L107.42 214.27L107.31 214.28L87.61 214.28L87.5 214.27L87.38 214.27L87.27 214.26L87.16 214.25L87.05 214.23L86.94 214.21L86.83 214.18L86.73 214.16L86.62 214.12L86.52 214.09L86.42 214.05L86.32 214.01L86.22 213.97L86.13 213.92L86.03 213.87L85.94 213.82L85.85 213.76L85.76 213.7L85.68 213.64L85.59 213.57L85.51 213.51L85.44 213.44L85.36 213.37L85.29 213.29L85.22 213.21L85.15 213.13L85.09 213.05L85.03 212.97L84.97 212.88L84.92 212.8L84.87 212.71L84.82 212.61L84.77 212.52L84.73 212.42L84.69 212.33L84.66 212.23L84.63 212.13L84.61 212.02L84.58 211.92L84.56 211.82L82.58 198.86L81.14 198.73L79.73 198.57L78.32 198.36L76.93 198.11L75.55 197.82L74.19 197.49L72.84 197.12L71.51 196.71L70.2 196.26L68.91 195.78L67.63 195.26L66.38 194.7L65.15 194.11L63.94 193.49L62.76 192.82L61.6 192.13L60.46 191.4L59.35 190.65L58.26 189.85L57.2 189.03L56.17 188.18L55.17 187.3L54.2 186.39L53.26 185.45L52.34 184.49L51.47 183.5L50.62 182.48L49.81 181.43L49.03 180.36L48.29 179.27L47.58 178.15L46.91 177.01L46.28 175.85L45.68 174.67L45.13 173.46L44.62 172.23L44.14 170.99L43.71 169.72L43.33 168.44L42.98 167.14L31.3 165.33L31.19 165.31L31.08 165.29L30.97 165.26L30.87 165.23L30.76 165.2L30.66 165.16L30.56 165.12L30.46 165.08L30.37 165.03L30.27 164.99L30.18 164.93L30.09 164.88L30 164.82L29.92 164.76L29.83 164.7L29.75 164.64L29.68 164.57L29.6 164.5L29.53 164.43L29.46 164.35L29.39 164.28L29.33 164.2L29.26 164.12L29.21 164.03L29.15 163.95L29.1 163.86L29.05 163.78L29 163.69L28.96 163.59L28.92 163.5L28.89 163.41L28.85 163.31L28.82 163.21L28.8 163.12L28.78 163.02L28.76 162.91L28.75 162.81L28.74 162.71L28.73 162.61L28.73 162.5L28.73 138.05L28.73 137.94L28.74 137.84L28.75 137.74L28.76 137.63L28.78 137.53L28.8 137.43L28.82 137.33L28.85 137.24L28.89 137.14L28.92 137.05L28.96 136.95L29 136.86L29.05 136.77L29.1 136.68L29.15 136.6L29.21 136.51L29.26 136.43L29.33 136.35L29.39 136.27L29.46 136.19L29.53 136.12L29.6 136.05L29.68 135.98L29.75 135.91L29.83 135.85L29.92 135.78L30 135.72L30.09 135.67L30.18 135.61L30.27 135.56L30.37 135.51L30.46 135.47L30.56 135.43L30.66 135.39L30.76 135.35L30.87 135.32L30.97 135.29L31.08 135.26L31.19 135.24L31.3 135.22L41.86 133.58L41.86 130.41L41.89 128.9L41.97 127.42L42.12 125.94L42.32 124.48L42.57 123.04L42.88 121.62L43.23 120.21L43.64 118.82L44.11 117.45L44.62 116.11L45.17 114.78L45.78 113.48L46.43 112.2L47.13 110.94L47.87 109.71L48.66 108.51L49.49 107.34L50.36 106.19L51.27 105.07L52.22 103.99L53.21 102.93L54.23 101.9L55.3 100.91L56.39 99.96L57.53 99.03L58.69 98.15L59.89 97.3L61.12 96.48L62.38 95.71L63.67 94.98L64.99 94.28L66.33 93.63L67.71 93.02L69.1 92.45L70.53 91.93L71.97 91.45L73.44 91.02L74.93 90.63L76.44 90.3L77.97 90.01L77.97 64.68L77.97 64.59L77.97 64.51L77.98 64.42L77.99 64.33L78 64.24L78.02 64.16L78.04 64.07L78.06 63.99L78.08 63.91L78.11 63.82L78.14 63.74L78.17 63.66L78.21 63.58L78.24 63.5L78.28 63.43L78.32 63.35L78.37 63.27L78.41 63.2L78.46 63.13L78.51 63.06L78.57 62.99L78.62 62.92L78.68 62.85L78.74 62.79L78.8 62.73L78.86 62.66L78.93 62.6L79 62.55L79.07 62.49L79.14 62.44L79.21 62.38L79.29 62.33L79.36 62.28L79.44 62.24L79.52 62.19L79.61 62.15L79.69 62.11L79.78 62.07L79.86 62.04L79.95 62.01L80.04 61.98L80.13 61.95L80.22 61.92L80.31 61.9L80.41 61.88L80.5 61.86L80.59 61.85L80.68 61.84L80.77 61.83L80.87 61.82L80.96 61.82L81.05 61.82L81.14 61.82L81.24 61.82ZM90.28 208.54L104.64 208.54L106.1 198.99L88.82 198.99L90.28 208.54ZM164.47 198.89L164.09 198.92L163.72 198.94L163.34 198.95L162.97 198.97L162.6 198.98L162.22 198.99L161.85 198.99L161.47 198.99L147.9 198.99L149.37 208.54L163.73 208.54L165.22 198.84L164.84 198.87L164.47 198.89ZM84.41 95.09L82.86 95.18L81.33 95.32L79.82 95.52L78.33 95.78L76.86 96.09L75.41 96.45L73.99 96.87L72.59 97.33L71.21 97.84L69.86 98.4L68.54 99.01L67.25 99.67L65.99 100.36L64.76 101.1L63.57 101.89L62.41 102.71L61.28 103.58L60.19 104.48L59.14 105.42L58.13 106.4L57.16 107.42L56.23 108.46L55.35 109.54L54.51 110.66L53.71 111.8L52.96 112.97L52.26 114.18L51.6 115.4L51 116.66L50.45 117.94L49.95 119.25L49.51 120.57L49.12 121.92L48.79 123.29L48.51 124.68L48.3 126.09L48.14 127.51L48.05 128.95L48.01 130.4L48.01 157.92L48.01 158.07L48.02 158.23L48.02 158.39L48.02 158.54L48.02 158.7L48.03 158.86L48.03 159.01L48.04 159.17L48.04 159.33L48.05 159.48L48.06 159.64L48.07 159.79L48.08 159.95L48.09 160.11L48.1 160.26L48.11 160.42L48.12 160.58L48.13 160.73L48.15 160.89L48.16 161.04L48.18 161.2L48.19 161.36L48.21 161.51L48.23 161.67L48.24 161.82L48.26 161.98L48.28 162.13L48.3 162.29L48.32 162.44L48.34 162.6L48.37 162.75L48.39 162.91L48.41 163.06L48.44 163.22L48.46 163.37L48.49 163.52L48.52 163.68L48.54 163.83L48.57 163.98L48.6 164.14L48.86 165.37L49.17 166.59L49.51 167.79L49.91 168.97L50.34 170.14L50.82 171.28L51.34 172.4L51.89 173.51L52.49 174.59L53.12 175.64L53.79 176.68L54.5 177.69L55.24 178.67L56.02 179.63L56.83 180.56L57.67 181.47L58.55 182.35L59.45 183.2L60.39 184.02L61.35 184.81L62.34 185.57L63.36 186.3L64.41 186.99L65.48 187.66L66.57 188.29L67.69 188.88L68.83 189.45L70 189.97L71.18 190.46L72.38 190.92L73.61 191.33L74.85 191.71L76.1 192.04L77.38 192.34L78.67 192.6L79.97 192.82L81.29 192.99L82.62 193.12L83.96 193.21L85.32 193.25L85.42 193.25L85.58 193.26L85.64 193.26L85.68 193.26L85.71 193.26L85.76 193.26L85.79 193.26L85.83 193.26L85.87 193.26L85.93 193.26L85.97 193.26L161.47 193.26L161.64 193.26L161.81 193.26L161.99 193.26L162.16 193.25L162.33 193.25L162.5 193.25L162.67 193.24L162.84 193.24L163.01 193.23L163.19 193.22L163.36 193.22L163.53 193.21L163.7 193.2L163.87 193.19L164.04 193.18L164.21 193.17L164.38 193.16L164.56 193.14L164.73 193.13L164.9 193.12L165.07 193.1L165.24 193.09L165.41 193.07L165.58 193.05L165.75 193.04L165.92 193.02L166.09 193L166.26 192.98L166.43 192.96L166.6 192.94L166.77 192.92L166.94 192.9L167.11 192.87L167.28 192.85L167.44 192.82L167.61 192.8L167.78 192.77L167.95 192.75L168.12 192.72L168.29 192.69L169.63 192.44L170.95 192.15L172.26 191.81L173.54 191.44L174.81 191.02L176.04 190.57L177.26 190.08L178.45 189.55L179.62 188.98L180.76 188.38L181.88 187.74L182.97 187.07L184.03 186.37L185.07 185.63L186.07 184.86L187.04 184.06L187.99 183.23L188.9 182.38L189.78 181.49L190.62 180.58L191.44 179.64L192.21 178.67L192.96 177.68L193.66 176.67L194.33 175.63L194.96 174.58L195.56 173.5L196.11 172.4L196.63 171.28L197.1 170.14L197.53 168.98L197.92 167.81L198.27 166.62L198.57 165.42L198.83 164.2L199.04 162.96L199.21 161.72L199.33 160.46L199.4 159.19L199.43 157.92L199.43 157.6L199.43 156.37L199.43 154.91L199.43 153.04L199.43 150.76L199.43 148.06L199.43 145.76L199.43 141.4L199.43 137.45L199.43 131.93L199.43 130.4L199.4 128.95L199.3 127.51L199.15 126.09L198.93 124.68L198.66 123.29L198.32 121.92L197.93 120.57L197.49 119.25L196.99 117.94L196.44 116.66L195.84 115.4L195.19 114.18L194.48 112.97L193.73 111.8L192.94 110.66L192.1 109.54L191.21 108.46L190.28 107.42L189.31 106.4L188.3 105.42L187.25 104.48L186.16 103.58L185.03 102.71L183.87 101.89L182.68 101.1L181.45 100.36L180.19 99.67L178.9 99.01L177.58 98.4L176.23 97.84L174.86 97.33L173.46 96.87L172.03 96.45L170.58 96.09L169.11 95.78L167.62 95.52L166.11 95.32L164.58 95.18L163.03 95.09L161.47 95.06L85.97 95.06L84.41 95.09ZM34.88 160.07L42 161.18L41.98 160.88L41.96 160.59L41.94 160.29L41.92 159.99L41.9 159.7L41.89 159.4L41.88 159.1L41.87 158.81L41.86 158.51L41.86 158.21L41.86 157.92L41.86 139.39L34.88 140.47L34.88 160.07ZM100.45 89.33L84.12 72.22L84.12 89.33L100.45 89.33Z" id="bxqjMHxZI"></path><path d="M73.97 120.18L75.28 120.51L76.53 120.97L77.72 121.54L78.83 122.22L79.85 123L80.79 123.87L81.63 124.83L82.36 125.86L82.97 126.97L83.46 128.13L83.82 129.35L84.05 130.62L84.12 131.93L84.05 133.24L83.82 134.51L83.46 135.73L82.97 136.9L82.36 138L81.63 139.04L80.79 139.99L79.85 140.86L78.83 141.64L77.72 142.32L76.53 142.9L75.28 143.35L73.97 143.69L72.6 143.9L71.2 143.97L69.79 143.9L68.43 143.69L67.12 143.35L65.86 142.9L64.68 142.32L63.57 141.64L62.54 140.86L61.61 139.99L60.77 139.04L60.04 138L59.42 136.9L58.93 135.73L58.57 134.51L58.35 133.24L58.27 131.93L58.35 130.62L58.57 129.35L58.93 128.13L59.42 126.97L60.04 125.86L60.77 124.83L61.61 123.87L62.54 123L63.57 122.22L64.68 121.54L65.86 120.97L67.12 120.51L68.43 120.18L69.79 119.97L71.2 119.9L72.6 119.97L73.97 120.18ZM68.57 126.12L67.42 126.71L66.41 127.48L65.59 128.41L64.96 129.48L64.57 130.66L64.43 131.93L64.57 133.2L64.96 134.38L65.59 135.46L66.41 136.39L67.42 137.16L68.57 137.74L69.84 138.11L71.2 138.24L72.56 138.11L73.83 137.74L74.98 137.16L75.98 136.39L76.81 135.46L77.44 134.38L77.83 133.2L77.97 131.93L77.83 130.66L77.44 129.48L76.81 128.41L75.98 127.48L74.98 126.71L73.83 126.12L72.56 125.76L71.2 125.63L69.84 125.76L68.57 126.12Z" id="cBLy9QtwN"></path><path d="M156.86 107.68L157.02 107.7L157.17 107.73L157.32 107.76L157.46 107.8L157.61 107.84L157.75 107.9L157.88 107.95L158.01 108.02L158.14 108.08L158.27 108.16L158.39 108.24L158.51 108.32L158.62 108.41L158.72 108.51L158.83 108.61L158.92 108.71L159.01 108.82L159.1 108.93L159.18 109.05L159.25 109.17L159.32 109.29L159.38 109.42L159.44 109.55L159.49 109.68L159.53 109.82L159.56 109.96L159.59 110.1L159.61 110.24L159.62 110.39L159.63 110.54L159.63 125.82L159.62 125.97L159.61 126.11L159.59 126.26L159.56 126.4L159.53 126.54L159.49 126.67L159.44 126.81L159.38 126.94L159.32 127.06L159.25 127.19L159.18 127.31L159.1 127.42L159.01 127.53L158.92 127.64L158.83 127.75L158.72 127.85L158.62 127.94L158.51 128.03L158.39 128.12L158.27 128.2L158.14 128.27L158.01 128.34L157.88 128.4L157.75 128.46L157.61 128.51L157.46 128.56L157.32 128.6L157.17 128.63L157.02 128.65L156.86 128.67L156.71 128.68L156.55 128.69L100.74 128.69L100.58 128.68L100.43 128.67L100.27 128.65L100.12 128.63L99.97 128.6L99.83 128.56L99.68 128.51L99.54 128.46L99.41 128.4L99.27 128.34L99.15 128.27L99.02 128.2L98.9 128.12L98.78 128.03L98.67 127.94L98.57 127.85L98.46 127.75L98.37 127.64L98.28 127.53L98.19 127.42L98.11 127.31L98.04 127.19L97.97 127.06L97.91 126.94L97.85 126.81L97.8 126.67L97.76 126.54L97.73 126.4L97.7 126.26L97.68 126.11L97.67 125.97L97.66 125.82L97.66 110.54L97.67 110.39L97.68 110.24L97.7 110.1L97.73 109.96L97.76 109.82L97.8 109.68L97.85 109.55L97.91 109.42L97.97 109.29L98.04 109.17L98.11 109.05L98.19 108.93L98.28 108.82L98.37 108.71L98.46 108.61L98.57 108.51L98.67 108.41L98.78 108.32L98.9 108.24L99.02 108.16L99.15 108.08L99.27 108.02L99.41 107.95L99.54 107.9L99.68 107.84L99.83 107.8L99.97 107.76L100.12 107.73L100.27 107.7L100.43 107.68L100.58 107.67L100.74 107.67L156.55 107.67L156.71 107.67L156.86 107.68ZM103.82 122.95L153.47 122.95L153.47 113.4L103.82 113.4L103.82 122.95Z" id="a7ebaKVzvP"></path></defs><g><g><g><g><filter id="shadow7662807" x="88.95" y="19.25" width="82.68" height="78.64" filterUnits="userSpaceOnUse" primitiveUnits="userSpaceOnUse"><feFlood></feFlood><feComposite in2="SourceAlpha" operator="in"></feComposite><feGaussianBlur stdDeviation="1.73"></feGaussianBlur><feOffset dx="0" dy="0" result="afterOffset"></feOffset><feFlood flood-color="#000000" flood-opacity="0.9"></feFlood><feComposite in2="afterOffset" operator="in"></feComposite><feMorphology operator="dilate" radius="1"></feMorphology><feComposite in2="SourceAlpha" operator="out"></feComposite></filter><path d="M133.03 31.37L134.37 31.51L135.7 31.72L137.01 31.97L138.29 32.28L139.55 32.65L140.79 33.06L142 33.52L143.18 34.03L144.33 34.59L145.45 35.19L146.54 35.84L147.6 36.53L148.63 37.26L149.61 38.03L150.56 38.84L151.47 39.69L152.34 40.57L153.17 41.49L153.96 42.45L154.7 43.43L155.39 44.45L156.04 45.49L156.64 46.57L157.19 47.67L157.68 48.79L158.13 49.94L158.52 51.12L158.85 52.31L159.12 53.53L159.34 54.76L159.5 56.02L159.59 57.29L159.63 58.57L159.59 59.85L159.5 61.12L159.34 62.38L159.12 63.61L158.85 64.83L158.52 66.02L158.13 67.2L157.68 68.35L157.19 69.47L156.64 70.57L156.04 71.65L155.39 72.69L154.7 73.71L153.96 74.69L153.17 75.65L152.34 76.57L151.47 77.45L150.56 78.3L149.61 79.11L148.63 79.88L147.6 80.61L146.54 81.3L145.45 81.95L144.33 82.55L143.18 83.11L142 83.62L140.79 84.08L139.55 84.5L138.29 84.86L137.01 85.17L135.7 85.42L134.37 85.63L133.03 85.77L131.67 85.86L130.29 85.89L128.91 85.86L127.54 85.77L126.2 85.63L124.87 85.42L123.57 85.17L122.28 84.86L121.02 84.5L119.79 84.08L118.58 83.62L117.39 83.11L116.24 82.55L115.12 81.95L114.03 81.3L112.97 80.61L111.95 79.88L110.96 79.11L110.01 78.3L109.1 77.45L108.23 76.57L107.4 75.65L106.62 74.69L105.87 73.71L105.18 72.69L104.53 71.65L103.93 70.57L103.39 69.47L102.89 68.35L102.45 67.2L102.06 66.02L101.72 64.83L101.45 63.61L101.23 62.38L101.07 61.12L100.98 59.85L100.95 58.57L100.98 57.29L101.07 56.02L101.23 54.76L101.45 53.53L101.72 52.31L102.06 51.12L102.45 49.94L102.89 48.79L103.39 47.67L103.93 46.57L104.53 45.49L105.18 44.45L105.87 43.43L106.62 42.45L107.4 41.49L108.23 40.57L109.1 39.69L110.01 38.84L110.96 38.03L111.95 37.26L112.97 36.53L114.03 35.84L115.12 35.19L116.24 34.59L117.39 34.03L118.58 33.52L119.79 33.06L121.02 32.65L122.28 32.28L123.57 31.97L124.87 31.72L126.2 31.51L127.54 31.37L128.91 31.28L130.29 31.25L131.67 31.28L133.03 31.37ZM124.82 37.59L123.66 37.89L122.53 38.23L121.42 38.63L120.34 39.08L119.29 39.58L118.27 40.12L117.28 40.71L116.33 41.35L115.41 42.03L114.54 42.75L113.7 43.51L112.91 44.3L112.15 45.14L111.45 46L110.79 46.91L110.18 47.84L109.61 48.8L109.11 49.8L108.65 50.81L108.25 51.86L107.91 52.93L107.62 54.02L107.4 55.13L107.23 56.26L107.14 57.41L107.1 58.57L107.14 59.73L107.23 60.88L107.4 62.01L107.62 63.12L107.91 64.21L108.25 65.28L108.65 66.33L109.11 67.35L109.61 68.34L110.18 69.3L110.79 70.24L111.45 71.14L112.15 72.01L112.91 72.84L113.7 73.64L114.54 74.39L115.41 75.11L116.33 75.79L117.28 76.43L118.27 77.02L119.29 77.56L120.34 78.06L121.42 78.51L122.53 78.91L123.66 79.25L124.82 79.55L126 79.78L127.21 79.96L127.21 76.72L120.44 76.72L120.26 76.72L120.08 76.7L119.9 76.68L119.73 76.64L119.56 76.6L119.4 76.55L119.24 76.5L119.08 76.43L118.93 76.36L118.79 76.27L118.65 76.19L118.51 76.09L118.38 75.99L118.26 75.88L118.15 75.77L118.04 75.65L117.93 75.52L117.84 75.39L117.75 75.26L117.67 75.12L117.6 74.97L117.54 74.82L117.49 74.67L117.44 74.51L117.41 74.35L117.38 74.19L117.37 74.02L117.36 73.85L117.37 73.69L117.38 73.52L117.41 73.36L117.44 73.2L117.49 73.04L117.54 72.89L117.6 72.74L117.67 72.59L117.75 72.45L117.84 72.32L117.93 72.19L118.04 72.06L118.15 71.94L118.26 71.83L118.38 71.72L118.51 71.62L118.65 71.52L118.79 71.43L118.93 71.35L119.08 71.28L119.24 71.21L119.4 71.16L119.56 71.11L119.73 71.06L119.9 71.03L120.08 71.01L120.26 70.99L120.44 70.99L127.21 70.99L127.21 64.49L120.44 64.49L120.26 64.49L120.08 64.47L119.9 64.45L119.73 64.42L119.56 64.38L119.4 64.33L119.24 64.27L119.08 64.2L118.93 64.13L118.79 64.05L118.65 63.96L118.51 63.86L118.38 63.76L118.26 63.65L118.15 63.54L118.04 63.42L117.93 63.29L117.84 63.16L117.75 63.03L117.67 62.89L117.6 62.74L117.54 62.59L117.49 62.44L117.44 62.28L117.41 62.12L117.38 61.96L117.37 61.8L117.36 61.63L117.36 46.34L117.37 46.17L117.38 46.01L117.41 45.85L117.44 45.69L117.49 45.53L117.54 45.38L117.6 45.23L117.67 45.08L117.75 44.94L117.84 44.81L117.93 44.68L118.04 44.55L118.15 44.43L118.26 44.32L118.38 44.21L118.51 44.11L118.65 44.01L118.79 43.92L118.93 43.84L119.08 43.77L119.24 43.7L119.4 43.64L119.56 43.59L119.73 43.55L119.9 43.52L120.08 43.5L120.26 43.48L120.44 43.48L127.21 43.48L127.21 37.18L126 37.36L124.82 37.59ZM140.13 43.48L140.32 43.48L140.49 43.5L140.67 43.52L140.84 43.55L141.01 43.59L141.17 43.64L141.33 43.7L141.49 43.77L141.64 43.84L141.78 43.92L141.92 44.01L142.06 44.11L142.19 44.21L142.31 44.32L142.43 44.43L142.54 44.55L142.64 44.68L142.73 44.81L142.82 44.94L142.9 45.08L142.97 45.23L143.03 45.38L143.09 45.53L143.13 45.69L143.17 45.85L143.19 46.01L143.21 46.17L143.21 46.34L143.21 46.51L143.19 46.68L143.17 46.84L143.13 47L143.09 47.16L143.03 47.31L142.97 47.46L142.9 47.6L142.82 47.74L142.73 47.88L142.64 48.01L142.54 48.14L142.43 48.26L142.31 48.37L142.19 48.48L142.06 48.58L141.92 48.67L141.78 48.76L141.64 48.84L141.49 48.92L141.33 48.98L141.17 49.04L141.01 49.09L140.84 49.13L140.67 49.17L140.49 49.19L140.32 49.2L140.13 49.21L133.36 49.21L133.36 58.76L140.13 58.76L140.32 58.77L140.49 58.78L140.67 58.8L140.84 58.84L141.01 58.88L141.17 58.93L141.33 58.99L141.49 59.05L141.64 59.13L141.78 59.21L141.92 59.3L142.06 59.39L142.19 59.49L142.31 59.6L142.43 59.71L142.54 59.83L142.64 59.96L142.73 60.09L142.82 60.23L142.9 60.37L142.97 60.51L143.03 60.66L143.09 60.81L143.13 60.97L143.17 61.13L143.19 61.29L143.21 61.46L143.21 61.63L143.21 73.85L143.21 74.02L143.19 74.19L143.17 74.35L143.13 74.51L143.09 74.67L143.03 74.82L142.97 74.97L142.9 75.11L142.82 75.25L142.73 75.39L142.64 75.52L142.54 75.65L142.43 75.77L142.31 75.88L142.19 75.99L142.06 76.09L141.92 76.19L141.78 76.27L141.64 76.35L141.49 76.43L141.33 76.49L141.17 76.55L141.01 76.6L140.84 76.64L140.67 76.68L140.49 76.7L140.32 76.71L140.13 76.72L133.36 76.72L133.36 79.96L134.57 79.78L135.75 79.55L136.91 79.25L138.05 78.91L139.15 78.51L140.24 78.06L141.29 77.56L142.31 77.02L143.29 76.43L144.24 75.79L145.16 75.11L146.04 74.39L146.87 73.64L147.67 72.84L148.42 72L149.13 71.14L149.78 70.23L150.4 69.3L150.96 68.34L151.47 67.35L151.92 66.33L152.32 65.28L152.67 64.21L152.95 63.12L153.18 62.01L153.34 60.88L153.44 59.73L153.47 58.57L153.44 57.41L153.34 56.26L153.18 55.13L152.95 54.02L152.67 52.93L152.32 51.86L151.92 50.81L151.47 49.79L150.96 48.8L150.4 47.84L149.78 46.91L149.13 46L148.42 45.14L147.67 44.3L146.87 43.51L146.04 42.75L145.16 42.03L144.24 41.35L143.29 40.71L142.31 40.12L141.29 39.58L140.24 39.08L139.15 38.63L138.05 38.23L136.91 37.89L135.75 37.59L134.57 37.36L133.36 37.18L133.36 43.48L140.13 43.48ZM133.36 70.99L137.06 70.99L137.06 64.49L133.36 64.49L133.36 70.99ZM123.52 58.76L127.21 58.76L127.21 49.21L123.52 49.21L123.52 58.76Z" id="ccrkSEX7K" fill="white" fill-opacity="1" filter="url(#shadow7662807)"></path></g><g><filter id="shadow6018661" x="41.95" y="-27.75" width="176.68" height="172.64" filterUnits="userSpaceOnUse" primitiveUnits="userSpaceOnUse"><feFlood></feFlood><feComposite in2="SourceAlpha" operator="in"></feComposite><feGaussianBlur stdDeviation="5"></feGaussianBlur><feOffset dx="0" dy="0" result="afterOffset"></feOffset><feFlood flood-color="#98c1c8" flood-opacity="1"></feFlood><feComposite in2="afterOffset" operator="in"></feComposite><feMorphology operator="dilate" radius="4"></feMorphology><feComposite in2="SourceAlpha" operator="out"></feComposite></filter><path d="M133.03 31.37L134.37 31.51L135.7 31.72L137.01 31.97L138.29 32.28L139.55 32.65L140.79 33.06L142 33.52L143.18 34.03L144.33 34.59L145.45 35.19L146.54 35.84L147.6 36.53L148.63 37.26L149.61 38.03L150.56 38.84L151.47 39.69L152.34 40.57L153.17 41.49L153.96 42.45L154.7 43.43L155.39 44.45L156.04 45.49L156.64 46.57L157.19 47.67L157.68 48.79L158.13 49.94L158.52 51.12L158.85 52.31L159.12 53.53L159.34 54.76L159.5 56.02L159.59 57.29L159.63 58.57L159.59 59.85L159.5 61.12L159.34 62.38L159.12 63.61L158.85 64.83L158.52 66.02L158.13 67.2L157.68 68.35L157.19 69.47L156.64 70.57L156.04 71.65L155.39 72.69L154.7 73.71L153.96 74.69L153.17 75.65L152.34 76.57L151.47 77.45L150.56 78.3L149.61 79.11L148.63 79.88L147.6 80.61L146.54 81.3L145.45 81.95L144.33 82.55L143.18 83.11L142 83.62L140.79 84.08L139.55 84.5L138.29 84.86L137.01 85.17L135.7 85.42L134.37 85.63L133.03 85.77L131.67 85.86L130.29 85.89L128.91 85.86L127.54 85.77L126.2 85.63L124.87 85.42L123.57 85.17L122.28 84.86L121.02 84.5L119.79 84.08L118.58 83.62L117.39 83.11L116.24 82.55L115.12 81.95L114.03 81.3L112.97 80.61L111.95 79.88L110.96 79.11L110.01 78.3L109.1 77.45L108.23 76.57L107.4 75.65L106.62 74.69L105.87 73.71L105.18 72.69L104.53 71.65L103.93 70.57L103.39 69.47L102.89 68.35L102.45 67.2L102.06 66.02L101.72 64.83L101.45 63.61L101.23 62.38L101.07 61.12L100.98 59.85L100.95 58.57L100.98 57.29L101.07 56.02L101.23 54.76L101.45 53.53L101.72 52.31L102.06 51.12L102.45 49.94L102.89 48.79L103.39 47.67L103.93 46.57L104.53 45.49L105.18 44.45L105.87 43.43L106.62 42.45L107.4 41.49L108.23 40.57L109.1 39.69L110.01 38.84L110.96 38.03L111.95 37.26L112.97 36.53L114.03 35.84L115.12 35.19L116.24 34.59L117.39 34.03L118.58 33.52L119.79 33.06L121.02 32.65L122.28 32.28L123.57 31.97L124.87 31.72L126.2 31.51L127.54 31.37L128.91 31.28L130.29 31.25L131.67 31.28L133.03 31.37ZM124.82 37.59L123.66 37.89L122.53 38.23L121.42 38.63L120.34 39.08L119.29 39.58L118.27 40.12L117.28 40.71L116.33 41.35L115.41 42.03L114.54 42.75L113.7 43.51L112.91 44.3L112.15 45.14L111.45 46L110.79 46.91L110.18 47.84L109.61 48.8L109.11 49.8L108.65 50.81L108.25 51.86L107.91 52.93L107.62 54.02L107.4 55.13L107.23 56.26L107.14 57.41L107.1 58.57L107.14 59.73L107.23 60.88L107.4 62.01L107.62 63.12L107.91 64.21L108.25 65.28L108.65 66.33L109.11 67.35L109.61 68.34L110.18 69.3L110.79 70.24L111.45 71.14L112.15 72.01L112.91 72.84L113.7 73.64L114.54 74.39L115.41 75.11L116.33 75.79L117.28 76.43L118.27 77.02L119.29 77.56L120.34 78.06L121.42 78.51L122.53 78.91L123.66 79.25L124.82 79.55L126 79.78L127.21 79.96L127.21 76.72L120.44 76.72L120.26 76.72L120.08 76.7L119.9 76.68L119.73 76.64L119.56 76.6L119.4 76.55L119.24 76.5L119.08 76.43L118.93 76.36L118.79 76.27L118.65 76.19L118.51 76.09L118.38 75.99L118.26 75.88L118.15 75.77L118.04 75.65L117.93 75.52L117.84 75.39L117.75 75.26L117.67 75.12L117.6 74.97L117.54 74.82L117.49 74.67L117.44 74.51L117.41 74.35L117.38 74.19L117.37 74.02L117.36 73.85L117.37 73.69L117.38 73.52L117.41 73.36L117.44 73.2L117.49 73.04L117.54 72.89L117.6 72.74L117.67 72.59L117.75 72.45L117.84 72.32L117.93 72.19L118.04 72.06L118.15 71.94L118.26 71.83L118.38 71.72L118.51 71.62L118.65 71.52L118.79 71.43L118.93 71.35L119.08 71.28L119.24 71.21L119.4 71.16L119.56 71.11L119.73 71.06L119.9 71.03L120.08 71.01L120.26 70.99L120.44 70.99L127.21 70.99L127.21 64.49L120.44 64.49L120.26 64.49L120.08 64.47L119.9 64.45L119.73 64.42L119.56 64.38L119.4 64.33L119.24 64.27L119.08 64.2L118.93 64.13L118.79 64.05L118.65 63.96L118.51 63.86L118.38 63.76L118.26 63.65L118.15 63.54L118.04 63.42L117.93 63.29L117.84 63.16L117.75 63.03L117.67 62.89L117.6 62.74L117.54 62.59L117.49 62.44L117.44 62.28L117.41 62.12L117.38 61.96L117.37 61.8L117.36 61.63L117.36 46.34L117.37 46.17L117.38 46.01L117.41 45.85L117.44 45.69L117.49 45.53L117.54 45.38L117.6 45.23L117.67 45.08L117.75 44.94L117.84 44.81L117.93 44.68L118.04 44.55L118.15 44.43L118.26 44.32L118.38 44.21L118.51 44.11L118.65 44.01L118.79 43.92L118.93 43.84L119.08 43.77L119.24 43.7L119.4 43.64L119.56 43.59L119.73 43.55L119.9 43.52L120.08 43.5L120.26 43.48L120.44 43.48L127.21 43.48L127.21 37.18L126 37.36L124.82 37.59ZM140.13 43.48L140.32 43.48L140.49 43.5L140.67 43.52L140.84 43.55L141.01 43.59L141.17 43.64L141.33 43.7L141.49 43.77L141.64 43.84L141.78 43.92L141.92 44.01L142.06 44.11L142.19 44.21L142.31 44.32L142.43 44.43L142.54 44.55L142.64 44.68L142.73 44.81L142.82 44.94L142.9 45.08L142.97 45.23L143.03 45.38L143.09 45.53L143.13 45.69L143.17 45.85L143.19 46.01L143.21 46.17L143.21 46.34L143.21 46.51L143.19 46.68L143.17 46.84L143.13 47L143.09 47.16L143.03 47.31L142.97 47.46L142.9 47.6L142.82 47.74L142.73 47.88L142.64 48.01L142.54 48.14L142.43 48.26L142.31 48.37L142.19 48.48L142.06 48.58L141.92 48.67L141.78 48.76L141.64 48.84L141.49 48.92L141.33 48.98L141.17 49.04L141.01 49.09L140.84 49.13L140.67 49.17L140.49 49.19L140.32 49.2L140.13 49.21L133.36 49.21L133.36 58.76L140.13 58.76L140.32 58.77L140.49 58.78L140.67 58.8L140.84 58.84L141.01 58.88L141.17 58.93L141.33 58.99L141.49 59.05L141.64 59.13L141.78 59.21L141.92 59.3L142.06 59.39L142.19 59.49L142.31 59.6L142.43 59.71L142.54 59.83L142.64 59.96L142.73 60.09L142.82 60.23L142.9 60.37L142.97 60.51L143.03 60.66L143.09 60.81L143.13 60.97L143.17 61.13L143.19 61.29L143.21 61.46L143.21 61.63L143.21 73.85L143.21 74.02L143.19 74.19L143.17 74.35L143.13 74.51L143.09 74.67L143.03 74.82L142.97 74.97L142.9 75.11L142.82 75.25L142.73 75.39L142.64 75.52L142.54 75.65L142.43 75.77L142.31 75.88L142.19 75.99L142.06 76.09L141.92 76.19L141.78 76.27L141.64 76.35L141.49 76.43L141.33 76.49L141.17 76.55L141.01 76.6L140.84 76.64L140.67 76.68L140.49 76.7L140.32 76.71L140.13 76.72L133.36 76.72L133.36 79.96L134.57 79.78L135.75 79.55L136.91 79.25L138.05 78.91L139.15 78.51L140.24 78.06L141.29 77.56L142.31 77.02L143.29 76.43L144.24 75.79L145.16 75.11L146.04 74.39L146.87 73.64L147.67 72.84L148.42 72L149.13 71.14L149.78 70.23L150.4 69.3L150.96 68.34L151.47 67.35L151.92 66.33L152.32 65.28L152.67 64.21L152.95 63.12L153.18 62.01L153.34 60.88L153.44 59.73L153.47 58.57L153.44 57.41L153.34 56.26L153.18 55.13L152.95 54.02L152.67 52.93L152.32 51.86L151.92 50.81L151.47 49.79L150.96 48.8L150.4 47.84L149.78 46.91L149.13 46L148.42 45.14L147.67 44.3L146.87 43.51L146.04 42.75L145.16 42.03L144.24 41.35L143.29 40.71L142.31 40.12L141.29 39.58L140.24 39.08L139.15 38.63L138.05 38.23L136.91 37.89L135.75 37.59L134.57 37.36L133.36 37.18L133.36 43.48L140.13 43.48ZM133.36 70.99L137.06 70.99L137.06 64.49L133.36 64.49L133.36 70.99ZM123.52 58.76L127.21 58.76L127.21 49.21L123.52 49.21L123.52 58.76Z" id="i28OcOjRVd" fill="white" fill-opacity="1" filter="url(#shadow6018661)"></path></g><use xlink:href="#f29FewLJJM" opacity="1" fill="#ffffff" fill-opacity="1"></use></g><g><g><filter id="shadow5450720" x="145.57" y="153.75" width="56.11" height="45.02" filterUnits="userSpaceOnUse" primitiveUnits="userSpaceOnUse"><feFlood></feFlood><feComposite in2="SourceAlpha" operator="in"></feComposite><feGaussianBlur stdDeviation="1.73"></feGaussianBlur><feOffset dx="0" dy="0" result="afterOffset"></feOffset><feFlood flood-color="#000000" flood-opacity="0.9"></feFlood><feComposite in2="afterOffset" operator="in"></feComposite><feMorphology operator="dilate" radius="1"></feMorphology><feComposite in2="SourceAlpha" operator="out"></feComposite></filter><path d="M183.82 167.38C179.58 175.68 170.49 181.03 160.65 181.03C158.95 181.03 157.57 182.32 157.57 183.9C157.57 185.48 158.95 186.76 160.65 186.76C172.85 186.76 184.12 180.12 189.38 169.85C190.11 168.42 189.46 166.71 187.92 166.03C186.39 165.35 184.55 165.95 183.82 167.38Z" id="akhsoc2W" fill="white" fill-opacity="1" filter="url(#shadow5450720)"></path></g><g><filter id="shadow7851338" x="98.57" y="106.75" width="150.11" height="139.02" filterUnits="userSpaceOnUse" primitiveUnits="userSpaceOnUse"><feFlood></feFlood><feComposite in2="SourceAlpha" operator="in"></feComposite><feGaussianBlur stdDeviation="5"></feGaussianBlur><feOffset dx="0" dy="0" result="afterOffset"></feOffset><feFlood flood-color="#98c1c8" flood-opacity="1"></feFlood><feComposite in2="afterOffset" operator="in"></feComposite><feMorphology operator="dilate" radius="4"></feMorphology><feComposite in2="SourceAlpha" operator="out"></feComposite></filter><path d="M183.82 167.38C179.58 175.68 170.49 181.03 160.65 181.03C158.95 181.03 157.57 182.32 157.57 183.9C157.57 185.48 158.95 186.76 160.65 186.76C172.85 186.76 184.12 180.12 189.38 169.85C190.11 168.42 189.46 166.71 187.92 166.03C186.39 165.35 184.55 165.95 183.82 167.38Z" id="bfsPopL18" fill="white" fill-opacity="1" filter="url(#shadow7851338)"></path></g><use xlink:href="#aRpDo6OPn" opacity="1" fill="#ffffff" fill-opacity="1"></use></g><g><g><filter id="shadow9641690" x="174.3" y="114.01" width="30.16" height="48.07" filterUnits="userSpaceOnUse" primitiveUnits="userSpaceOnUse"><feFlood></feFlood><feComposite in2="SourceAlpha" operator="in"></feComposite><feGaussianBlur stdDeviation="1.73"></feGaussianBlur><feOffset dx="0" dy="0" result="afterOffset"></feOffset><feFlood flood-color="#000000" flood-opacity="0.9"></feFlood><feComposite in2="afterOffset" operator="in"></feComposite><feMorphology operator="dilate" radius="1"></feMorphology><feComposite in2="SourceAlpha" operator="out"></feComposite></filter><path d="M186.3 128.88C186.3 130.71 186.3 145.38 186.3 147.22C186.3 148.8 187.67 150.08 189.37 150.08C191.07 150.08 192.45 148.8 192.45 147.22C192.45 145.38 192.45 130.71 192.45 128.88C192.45 127.29 191.07 126.01 189.37 126.01C187.68 126.01 186.3 127.29 186.3 128.88Z" id="d1lSobDWXn" fill="white" fill-opacity="1" filter="url(#shadow9641690)"></path></g><g><filter id="shadow15030325" x="127.3" y="67.01" width="124.16" height="142.07" filterUnits="userSpaceOnUse" primitiveUnits="userSpaceOnUse"><feFlood></feFlood><feComposite in2="SourceAlpha" operator="in"></feComposite><feGaussianBlur stdDeviation="5"></feGaussianBlur><feOffset dx="0" dy="0" result="afterOffset"></feOffset><feFlood flood-color="#98c1c8" flood-opacity="1"></feFlood><feComposite in2="afterOffset" operator="in"></feComposite><feMorphology operator="dilate" radius="4"></feMorphology><feComposite in2="SourceAlpha" operator="out"></feComposite></filter><path d="M186.3 128.88C186.3 130.71 186.3 145.38 186.3 147.22C186.3 148.8 187.67 150.08 189.37 150.08C191.07 150.08 192.45 148.8 192.45 147.22C192.45 145.38 192.45 130.71 192.45 128.88C192.45 127.29 191.07 126.01 189.37 126.01C187.68 126.01 186.3 127.29 186.3 128.88Z" id="cZmkTKUP2" fill="white" fill-opacity="1" filter="url(#shadow15030325)"></path></g><use xlink:href="#i53qGpD9Lt" opacity="1" fill="#ffffff" fill-opacity="1"></use></g><g><g><filter id="shadow10332339" x="16.73" y="49.82" width="220.55" height="176.46" filterUnits="userSpaceOnUse" primitiveUnits="userSpaceOnUse"><feFlood></feFlood><feComposite in2="SourceAlpha" operator="in"></feComposite><feGaussianBlur stdDeviation="1.73"></feGaussianBlur><feOffset dx="0" dy="0" result="afterOffset"></feOffset><feFlood flood-color="#000000" flood-opacity="0.9"></feFlood><feComposite in2="afterOffset" operator="in"></feComposite><feMorphology operator="dilate" radius="1"></feMorphology><feComposite in2="SourceAlpha" operator="out"></feComposite></filter><path d="M81.24 61.82L81.33 61.83L81.42 61.84L81.51 61.85L81.6 61.87L81.69 61.88L81.78 61.9L81.87 61.92L81.96 61.95L82.04 61.97L82.13 62L82.21 62.03L82.3 62.07L82.38 62.1L82.46 62.14L82.55 62.18L82.63 62.22L82.7 62.27L82.78 62.32L82.86 62.37L82.93 62.42L83.01 62.47L83.08 62.53L83.15 62.59L83.22 62.65L83.28 62.71L83.35 62.78L108.69 89.33L161.47 89.33L163.24 89.36L165 89.46L166.74 89.62L168.45 89.84L170.15 90.13L171.82 90.47L173.47 90.87L175.09 91.33L176.68 91.85L178.25 92.42L179.79 93.04L181.29 93.72L182.77 94.44L184.21 95.22L185.61 96.04L186.98 96.91L188.32 97.83L189.61 98.8L190.86 99.8L192.07 100.85L193.24 101.94L194.37 103.07L195.45 104.24L196.48 105.44L197.46 106.69L198.4 107.96L199.28 109.27L200.11 110.62L200.89 111.99L201.62 113.39L202.28 114.83L202.89 116.28L203.44 117.77L203.94 119.28L204.37 120.82L204.73 122.37L205.04 123.95L205.27 125.55L205.44 127.17L205.55 128.8L206.12 128.69L206.69 128.57L207.25 128.42L207.8 128.26L208.34 128.08L208.88 127.88L209.41 127.67L209.92 127.44L210.43 127.19L210.92 126.93L211.41 126.65L211.88 126.36L212.34 126.05L212.79 125.73L213.23 125.4L213.66 125.05L214.07 124.69L214.47 124.32L214.86 123.93L215.23 123.53L215.59 123.13L215.93 122.7L216.26 122.27L216.57 121.83L216.86 121.38L217.14 120.92L217.4 120.44L217.65 119.96L217.88 119.47L218.09 118.97L218.28 118.47L218.45 117.95L218.61 117.43L218.74 116.9L218.86 116.36L218.95 115.82L219.03 115.27L219.08 114.72L219.11 114.16L219.12 113.59L219.11 112.96L219.07 112.33L219 111.7L218.91 111.09L218.79 110.48L218.64 109.88L218.47 109.29L218.28 108.71L218.06 108.14L217.82 107.57L217.55 107.03L217.27 106.49L216.96 105.96L216.63 105.45L216.28 104.95L215.91 104.46L215.53 103.99L215.12 103.53L214.69 103.08L214.25 102.66L213.79 102.24L213.31 101.85L212.82 101.47L212.31 101.11L211.79 100.76L211.25 100.44L210.7 100.13L210.14 99.85L209.56 99.58L208.97 99.34L208.37 99.11L207.75 98.91L207.13 98.73L206.49 98.57L205.85 98.43L205.2 98.32L204.54 98.23L203.87 98.17L203.19 98.13L202.51 98.12L202.38 98.12L202.25 98.11L202.13 98.1L202.01 98.08L201.89 98.06L201.77 98.03L201.65 98.01L201.53 97.97L201.42 97.93L201.31 97.89L201.2 97.85L201.09 97.8L200.99 97.74L200.88 97.69L200.78 97.63L200.69 97.56L200.59 97.5L200.5 97.43L200.41 97.35L200.33 97.28L200.25 97.2L200.17 97.12L200.09 97.03L200.02 96.94L199.95 96.85L199.89 96.76L199.83 96.67L199.77 96.57L199.72 96.47L199.67 96.37L199.62 96.26L199.58 96.16L199.55 96.05L199.52 95.94L199.49 95.83L199.47 95.72L199.45 95.6L199.44 95.49L199.43 95.37L199.43 95.25L199.43 95.13L199.44 95.02L199.45 94.9L199.47 94.79L199.49 94.67L199.52 94.56L199.55 94.45L199.58 94.35L199.62 94.24L199.67 94.14L199.72 94.03L199.77 93.93L199.83 93.84L199.89 93.74L199.95 93.65L200.02 93.56L200.09 93.47L200.17 93.39L200.25 93.3L200.33 93.23L200.41 93.15L200.5 93.08L200.59 93.01L200.69 92.94L200.78 92.88L200.88 92.82L200.99 92.76L201.09 92.71L201.2 92.66L201.31 92.61L201.42 92.57L201.53 92.53L201.65 92.5L201.77 92.47L201.89 92.44L202.01 92.42L202.13 92.41L202.25 92.4L202.38 92.39L202.51 92.39L203.44 92.4L204.37 92.46L205.29 92.54L206.19 92.66L207.09 92.82L207.97 93L208.84 93.22L209.7 93.47L210.54 93.75L211.36 94.06L212.17 94.39L212.96 94.76L213.74 95.15L214.49 95.57L215.23 96.01L215.95 96.48L216.64 96.98L217.32 97.5L217.97 98.04L218.6 98.6L219.21 99.19L219.79 99.8L220.35 100.43L220.88 101.08L221.38 101.74L221.86 102.43L222.31 103.13L222.73 103.86L223.13 104.59L223.49 105.35L223.82 106.11L224.12 106.9L224.38 107.69L224.62 108.5L224.82 109.32L224.98 110.16L225.11 111L225.2 111.86L225.26 112.72L225.28 113.59L225.26 114.39L225.22 115.19L225.14 115.97L225.03 116.75L224.89 117.52L224.72 118.27L224.52 119.02L224.3 119.76L224.04 120.49L223.76 121.2L223.46 121.9L223.12 122.59L222.77 123.27L222.38 123.93L221.98 124.58L221.54 125.21L221.09 125.83L220.61 126.43L220.12 127.02L219.6 127.59L219.06 128.14L218.49 128.68L217.91 129.19L217.31 129.69L216.7 130.16L216.06 130.62L215.41 131.05L214.74 131.47L214.05 131.86L213.35 132.23L212.63 132.58L211.9 132.91L211.15 133.21L210.39 133.48L209.62 133.73L208.83 133.96L208.04 134.16L207.23 134.33L206.41 134.48L205.58 134.6L205.58 157.92L205.56 159.35L205.48 160.77L205.35 162.18L205.17 163.58L204.94 164.96L204.66 166.33L204.33 167.69L203.95 169.03L203.53 170.35L203.06 171.65L202.55 172.93L201.99 174.2L201.38 175.44L200.74 176.66L200.05 177.86L199.33 179.03L198.56 180.18L197.75 181.31L196.9 182.41L196.02 183.48L195.1 184.53L194.14 185.54L193.14 186.53L192.12 187.49L191.05 188.41L189.96 189.3L188.83 190.16L187.67 190.99L186.48 191.78L185.26 192.53L184.01 193.25L182.73 193.93L181.42 194.57L180.09 195.17L178.73 195.73L177.35 196.25L175.94 196.73L174.51 197.17L173.05 197.56L171.58 197.9L169.44 211.82L169.42 211.92L169.4 212.02L169.38 212.13L169.35 212.23L169.31 212.33L169.28 212.42L169.23 212.52L169.19 212.61L169.14 212.71L169.09 212.8L169.04 212.88L168.98 212.97L168.92 213.05L168.85 213.13L168.79 213.21L168.72 213.29L168.65 213.37L168.57 213.44L168.49 213.51L168.41 213.58L168.33 213.64L168.24 213.7L168.16 213.76L168.07 213.82L167.98 213.87L167.88 213.92L167.79 213.97L167.69 214.01L167.59 214.05L167.49 214.09L167.38 214.12L167.28 214.16L167.17 214.18L167.07 214.21L166.96 214.23L166.85 214.25L166.74 214.26L166.62 214.27L166.51 214.27L166.4 214.28L146.7 214.28L146.59 214.27L146.47 214.27L146.36 214.26L146.25 214.25L146.14 214.23L146.03 214.21L145.92 214.18L145.82 214.16L145.71 214.12L145.61 214.09L145.51 214.05L145.41 214.01L145.31 213.97L145.21 213.92L145.12 213.87L145.03 213.82L144.94 213.76L144.85 213.7L144.77 213.64L144.68 213.57L144.6 213.51L144.53 213.44L144.45 213.37L144.38 213.29L144.31 213.21L144.24 213.13L144.18 213.05L144.12 212.97L144.06 212.88L144.01 212.8L143.95 212.71L143.91 212.61L143.86 212.52L143.82 212.42L143.78 212.33L143.75 212.23L143.72 212.13L143.69 212.02L143.67 211.92L143.65 211.82L141.69 198.99L112.32 198.99L110.35 211.82L110.34 211.92L110.31 212.02L110.29 212.13L110.26 212.23L110.22 212.33L110.19 212.42L110.15 212.52L110.1 212.61L110.05 212.71L110 212.8L109.95 212.88L109.89 212.97L109.83 213.05L109.77 213.13L109.7 213.21L109.63 213.29L109.56 213.37L109.48 213.44L109.4 213.51L109.32 213.58L109.24 213.64L109.16 213.7L109.07 213.76L108.98 213.82L108.89 213.87L108.79 213.92L108.7 213.97L108.6 214.01L108.5 214.05L108.4 214.09L108.3 214.12L108.19 214.16L108.09 214.18L107.98 214.21L107.87 214.23L107.76 214.25L107.65 214.26L107.54 214.27L107.42 214.27L107.31 214.28L87.61 214.28L87.5 214.27L87.38 214.27L87.27 214.26L87.16 214.25L87.05 214.23L86.94 214.21L86.83 214.18L86.73 214.16L86.62 214.12L86.52 214.09L86.42 214.05L86.32 214.01L86.22 213.97L86.13 213.92L86.03 213.87L85.94 213.82L85.85 213.76L85.76 213.7L85.68 213.64L85.59 213.57L85.51 213.51L85.44 213.44L85.36 213.37L85.29 213.29L85.22 213.21L85.15 213.13L85.09 213.05L85.03 212.97L84.97 212.88L84.92 212.8L84.87 212.71L84.82 212.61L84.77 212.52L84.73 212.42L84.69 212.33L84.66 212.23L84.63 212.13L84.61 212.02L84.58 211.92L84.56 211.82L82.58 198.86L81.14 198.73L79.73 198.57L78.32 198.36L76.93 198.11L75.55 197.82L74.19 197.49L72.84 197.12L71.51 196.71L70.2 196.26L68.91 195.78L67.63 195.26L66.38 194.7L65.15 194.11L63.94 193.49L62.76 192.82L61.6 192.13L60.46 191.4L59.35 190.65L58.26 189.85L57.2 189.03L56.17 188.18L55.17 187.3L54.2 186.39L53.26 185.45L52.34 184.49L51.47 183.5L50.62 182.48L49.81 181.43L49.03 180.36L48.29 179.27L47.58 178.15L46.91 177.01L46.28 175.85L45.68 174.67L45.13 173.46L44.62 172.23L44.14 170.99L43.71 169.72L43.33 168.44L42.98 167.14L31.3 165.33L31.19 165.31L31.08 165.29L30.97 165.26L30.87 165.23L30.76 165.2L30.66 165.16L30.56 165.12L30.46 165.08L30.37 165.03L30.27 164.99L30.18 164.93L30.09 164.88L30 164.82L29.92 164.76L29.83 164.7L29.75 164.64L29.68 164.57L29.6 164.5L29.53 164.43L29.46 164.35L29.39 164.28L29.33 164.2L29.26 164.12L29.21 164.03L29.15 163.95L29.1 163.86L29.05 163.78L29 163.69L28.96 163.59L28.92 163.5L28.89 163.41L28.85 163.31L28.82 163.21L28.8 163.12L28.78 163.02L28.76 162.91L28.75 162.81L28.74 162.71L28.73 162.61L28.73 162.5L28.73 138.05L28.73 137.94L28.74 137.84L28.75 137.74L28.76 137.63L28.78 137.53L28.8 137.43L28.82 137.33L28.85 137.24L28.89 137.14L28.92 137.05L28.96 136.95L29 136.86L29.05 136.77L29.1 136.68L29.15 136.6L29.21 136.51L29.26 136.43L29.33 136.35L29.39 136.27L29.46 136.19L29.53 136.12L29.6 136.05L29.68 135.98L29.75 135.91L29.83 135.85L29.92 135.78L30 135.72L30.09 135.67L30.18 135.61L30.27 135.56L30.37 135.51L30.46 135.47L30.56 135.43L30.66 135.39L30.76 135.35L30.87 135.32L30.97 135.29L31.08 135.26L31.19 135.24L31.3 135.22L41.86 133.58L41.86 130.41L41.89 128.9L41.97 127.42L42.12 125.94L42.32 124.48L42.57 123.04L42.88 121.62L43.23 120.21L43.64 118.82L44.11 117.45L44.62 116.11L45.17 114.78L45.78 113.48L46.43 112.2L47.13 110.94L47.87 109.71L48.66 108.51L49.49 107.34L50.36 106.19L51.27 105.07L52.22 103.99L53.21 102.93L54.23 101.9L55.3 100.91L56.39 99.96L57.53 99.03L58.69 98.15L59.89 97.3L61.12 96.48L62.38 95.71L63.67 94.98L64.99 94.28L66.33 93.63L67.71 93.02L69.1 92.45L70.53 91.93L71.97 91.45L73.44 91.02L74.93 90.63L76.44 90.3L77.97 90.01L77.97 64.68L77.97 64.59L77.97 64.51L77.98 64.42L77.99 64.33L78 64.24L78.02 64.16L78.04 64.07L78.06 63.99L78.08 63.91L78.11 63.82L78.14 63.74L78.17 63.66L78.21 63.58L78.24 63.5L78.28 63.43L78.32 63.35L78.37 63.27L78.41 63.2L78.46 63.13L78.51 63.06L78.57 62.99L78.62 62.92L78.68 62.85L78.74 62.79L78.8 62.73L78.86 62.66L78.93 62.6L79 62.55L79.07 62.49L79.14 62.44L79.21 62.38L79.29 62.33L79.36 62.28L79.44 62.24L79.52 62.19L79.61 62.15L79.69 62.11L79.78 62.07L79.86 62.04L79.95 62.01L80.04 61.98L80.13 61.95L80.22 61.92L80.31 61.9L80.41 61.88L80.5 61.86L80.59 61.85L80.68 61.84L80.77 61.83L80.87 61.82L80.96 61.82L81.05 61.82L81.14 61.82L81.24 61.82ZM90.28 208.54L104.64 208.54L106.1 198.99L88.82 198.99L90.28 208.54ZM164.47 198.89L164.09 198.92L163.72 198.94L163.34 198.95L162.97 198.97L162.6 198.98L162.22 198.99L161.85 198.99L161.47 198.99L147.9 198.99L149.37 208.54L163.73 208.54L165.22 198.84L164.84 198.87L164.47 198.89ZM84.41 95.09L82.86 95.18L81.33 95.32L79.82 95.52L78.33 95.78L76.86 96.09L75.41 96.45L73.99 96.87L72.59 97.33L71.21 97.84L69.86 98.4L68.54 99.01L67.25 99.67L65.99 100.36L64.76 101.1L63.57 101.89L62.41 102.71L61.28 103.58L60.19 104.48L59.14 105.42L58.13 106.4L57.16 107.42L56.23 108.46L55.35 109.54L54.51 110.66L53.71 111.8L52.96 112.97L52.26 114.18L51.6 115.4L51 116.66L50.45 117.94L49.95 119.25L49.51 120.57L49.12 121.92L48.79 123.29L48.51 124.68L48.3 126.09L48.14 127.51L48.05 128.95L48.01 130.4L48.01 157.92L48.01 158.07L48.02 158.23L48.02 158.39L48.02 158.54L48.02 158.7L48.03 158.86L48.03 159.01L48.04 159.17L48.04 159.33L48.05 159.48L48.06 159.64L48.07 159.79L48.08 159.95L48.09 160.11L48.1 160.26L48.11 160.42L48.12 160.58L48.13 160.73L48.15 160.89L48.16 161.04L48.18 161.2L48.19 161.36L48.21 161.51L48.23 161.67L48.24 161.82L48.26 161.98L48.28 162.13L48.3 162.29L48.32 162.44L48.34 162.6L48.37 162.75L48.39 162.91L48.41 163.06L48.44 163.22L48.46 163.37L48.49 163.52L48.52 163.68L48.54 163.83L48.57 163.98L48.6 164.14L48.86 165.37L49.17 166.59L49.51 167.79L49.91 168.97L50.34 170.14L50.82 171.28L51.34 172.4L51.89 173.51L52.49 174.59L53.12 175.64L53.79 176.68L54.5 177.69L55.24 178.67L56.02 179.63L56.83 180.56L57.67 181.47L58.55 182.35L59.45 183.2L60.39 184.02L61.35 184.81L62.34 185.57L63.36 186.3L64.41 186.99L65.48 187.66L66.57 188.29L67.69 188.88L68.83 189.45L70 189.97L71.18 190.46L72.38 190.92L73.61 191.33L74.85 191.71L76.1 192.04L77.38 192.34L78.67 192.6L79.97 192.82L81.29 192.99L82.62 193.12L83.96 193.21L85.32 193.25L85.42 193.25L85.58 193.26L85.64 193.26L85.68 193.26L85.71 193.26L85.76 193.26L85.79 193.26L85.83 193.26L85.87 193.26L85.93 193.26L85.97 193.26L161.47 193.26L161.64 193.26L161.81 193.26L161.99 193.26L162.16 193.25L162.33 193.25L162.5 193.25L162.67 193.24L162.84 193.24L163.01 193.23L163.19 193.22L163.36 193.22L163.53 193.21L163.7 193.2L163.87 193.19L164.04 193.18L164.21 193.17L164.38 193.16L164.56 193.14L164.73 193.13L164.9 193.12L165.07 193.1L165.24 193.09L165.41 193.07L165.58 193.05L165.75 193.04L165.92 193.02L166.09 193L166.26 192.98L166.43 192.96L166.6 192.94L166.77 192.92L166.94 192.9L167.11 192.87L167.28 192.85L167.44 192.82L167.61 192.8L167.78 192.77L167.95 192.75L168.12 192.72L168.29 192.69L169.63 192.44L170.95 192.15L172.26 191.81L173.54 191.44L174.81 191.02L176.04 190.57L177.26 190.08L178.45 189.55L179.62 188.98L180.76 188.38L181.88 187.74L182.97 187.07L184.03 186.37L185.07 185.63L186.07 184.86L187.04 184.06L187.99 183.23L188.9 182.38L189.78 181.49L190.62 180.58L191.44 179.64L192.21 178.67L192.96 177.68L193.66 176.67L194.33 175.63L194.96 174.58L195.56 173.5L196.11 172.4L196.63 171.28L197.1 170.14L197.53 168.98L197.92 167.81L198.27 166.62L198.57 165.42L198.83 164.2L199.04 162.96L199.21 161.72L199.33 160.46L199.4 159.19L199.43 157.92L199.43 157.6L199.43 156.37L199.43 154.91L199.43 153.04L199.43 150.76L199.43 148.06L199.43 145.76L199.43 141.4L199.43 137.45L199.43 131.93L199.43 130.4L199.4 128.95L199.3 127.51L199.15 126.09L198.93 124.68L198.66 123.29L198.32 121.92L197.93 120.57L197.49 119.25L196.99 117.94L196.44 116.66L195.84 115.4L195.19 114.18L194.48 112.97L193.73 111.8L192.94 110.66L192.1 109.54L191.21 108.46L190.28 107.42L189.31 106.4L188.3 105.42L187.25 104.48L186.16 103.58L185.03 102.71L183.87 101.89L182.68 101.1L181.45 100.36L180.19 99.67L178.9 99.01L177.58 98.4L176.23 97.84L174.86 97.33L173.46 96.87L172.03 96.45L170.58 96.09L169.11 95.78L167.62 95.52L166.11 95.32L164.58 95.18L163.03 95.09L161.47 95.06L85.97 95.06L84.41 95.09ZM34.88 160.07L42 161.18L41.98 160.88L41.96 160.59L41.94 160.29L41.92 159.99L41.9 159.7L41.89 159.4L41.88 159.1L41.87 158.81L41.86 158.51L41.86 158.21L41.86 157.92L41.86 139.39L34.88 140.47L34.88 160.07ZM100.45 89.33L84.12 72.22L84.12 89.33L100.45 89.33Z" id="axoRkdBG3" fill="white" fill-opacity="1" filter="url(#shadow10332339)"></path></g><g><filter id="shadow4788811" x="-30.27" y="2.82" width="314.55" height="270.46" filterUnits="userSpaceOnUse" primitiveUnits="userSpaceOnUse"><feFlood></feFlood><feComposite in2="SourceAlpha" operator="in"></feComposite><feGaussianBlur stdDeviation="5"></feGaussianBlur><feOffset dx="0" dy="0" result="afterOffset"></feOffset><feFlood flood-color="#98c1c8" flood-opacity="1"></feFlood><feComposite in2="afterOffset" operator="in"></feComposite><feMorphology operator="dilate" radius="4"></feMorphology><feComposite in2="SourceAlpha" operator="out"></feComposite></filter><path d="M81.24 61.82L81.33 61.83L81.42 61.84L81.51 61.85L81.6 61.87L81.69 61.88L81.78 61.9L81.87 61.92L81.96 61.95L82.04 61.97L82.13 62L82.21 62.03L82.3 62.07L82.38 62.1L82.46 62.14L82.55 62.18L82.63 62.22L82.7 62.27L82.78 62.32L82.86 62.37L82.93 62.42L83.01 62.47L83.08 62.53L83.15 62.59L83.22 62.65L83.28 62.71L83.35 62.78L108.69 89.33L161.47 89.33L163.24 89.36L165 89.46L166.74 89.62L168.45 89.84L170.15 90.13L171.82 90.47L173.47 90.87L175.09 91.33L176.68 91.85L178.25 92.42L179.79 93.04L181.29 93.72L182.77 94.44L184.21 95.22L185.61 96.04L186.98 96.91L188.32 97.83L189.61 98.8L190.86 99.8L192.07 100.85L193.24 101.94L194.37 103.07L195.45 104.24L196.48 105.44L197.46 106.69L198.4 107.96L199.28 109.27L200.11 110.62L200.89 111.99L201.62 113.39L202.28 114.83L202.89 116.28L203.44 117.77L203.94 119.28L204.37 120.82L204.73 122.37L205.04 123.95L205.27 125.55L205.44 127.17L205.55 128.8L206.12 128.69L206.69 128.57L207.25 128.42L207.8 128.26L208.34 128.08L208.88 127.88L209.41 127.67L209.92 127.44L210.43 127.19L210.92 126.93L211.41 126.65L211.88 126.36L212.34 126.05L212.79 125.73L213.23 125.4L213.66 125.05L214.07 124.69L214.47 124.32L214.86 123.93L215.23 123.53L215.59 123.13L215.93 122.7L216.26 122.27L216.57 121.83L216.86 121.38L217.14 120.92L217.4 120.44L217.65 119.96L217.88 119.47L218.09 118.97L218.28 118.47L218.45 117.95L218.61 117.43L218.74 116.9L218.86 116.36L218.95 115.82L219.03 115.27L219.08 114.72L219.11 114.16L219.12 113.59L219.11 112.96L219.07 112.33L219 111.7L218.91 111.09L218.79 110.48L218.64 109.88L218.47 109.29L218.28 108.71L218.06 108.14L217.82 107.57L217.55 107.03L217.27 106.49L216.96 105.96L216.63 105.45L216.28 104.95L215.91 104.46L215.53 103.99L215.12 103.53L214.69 103.08L214.25 102.66L213.79 102.24L213.31 101.85L212.82 101.47L212.31 101.11L211.79 100.76L211.25 100.44L210.7 100.13L210.14 99.85L209.56 99.58L208.97 99.34L208.37 99.11L207.75 98.91L207.13 98.73L206.49 98.57L205.85 98.43L205.2 98.32L204.54 98.23L203.87 98.17L203.19 98.13L202.51 98.12L202.38 98.12L202.25 98.11L202.13 98.1L202.01 98.08L201.89 98.06L201.77 98.03L201.65 98.01L201.53 97.97L201.42 97.93L201.31 97.89L201.2 97.85L201.09 97.8L200.99 97.74L200.88 97.69L200.78 97.63L200.69 97.56L200.59 97.5L200.5 97.43L200.41 97.35L200.33 97.28L200.25 97.2L200.17 97.12L200.09 97.03L200.02 96.94L199.95 96.85L199.89 96.76L199.83 96.67L199.77 96.57L199.72 96.47L199.67 96.37L199.62 96.26L199.58 96.16L199.55 96.05L199.52 95.94L199.49 95.83L199.47 95.72L199.45 95.6L199.44 95.49L199.43 95.37L199.43 95.25L199.43 95.13L199.44 95.02L199.45 94.9L199.47 94.79L199.49 94.67L199.52 94.56L199.55 94.45L199.58 94.35L199.62 94.24L199.67 94.14L199.72 94.03L199.77 93.93L199.83 93.84L199.89 93.74L199.95 93.65L200.02 93.56L200.09 93.47L200.17 93.39L200.25 93.3L200.33 93.23L200.41 93.15L200.5 93.08L200.59 93.01L200.69 92.94L200.78 92.88L200.88 92.82L200.99 92.76L201.09 92.71L201.2 92.66L201.31 92.61L201.42 92.57L201.53 92.53L201.65 92.5L201.77 92.47L201.89 92.44L202.01 92.42L202.13 92.41L202.25 92.4L202.38 92.39L202.51 92.39L203.44 92.4L204.37 92.46L205.29 92.54L206.19 92.66L207.09 92.82L207.97 93L208.84 93.22L209.7 93.47L210.54 93.75L211.36 94.06L212.17 94.39L212.96 94.76L213.74 95.15L214.49 95.57L215.23 96.01L215.95 96.48L216.64 96.98L217.32 97.5L217.97 98.04L218.6 98.6L219.21 99.19L219.79 99.8L220.35 100.43L220.88 101.08L221.38 101.74L221.86 102.43L222.31 103.13L222.73 103.86L223.13 104.59L223.49 105.35L223.82 106.11L224.12 106.9L224.38 107.69L224.62 108.5L224.82 109.32L224.98 110.16L225.11 111L225.2 111.86L225.26 112.72L225.28 113.59L225.26 114.39L225.22 115.19L225.14 115.97L225.03 116.75L224.89 117.52L224.72 118.27L224.52 119.02L224.3 119.76L224.04 120.49L223.76 121.2L223.46 121.9L223.12 122.59L222.77 123.27L222.38 123.93L221.98 124.58L221.54 125.21L221.09 125.83L220.61 126.43L220.12 127.02L219.6 127.59L219.06 128.14L218.49 128.68L217.91 129.19L217.31 129.69L216.7 130.16L216.06 130.62L215.41 131.05L214.74 131.47L214.05 131.86L213.35 132.23L212.63 132.58L211.9 132.91L211.15 133.21L210.39 133.48L209.62 133.73L208.83 133.96L208.04 134.16L207.23 134.33L206.41 134.48L205.58 134.6L205.58 157.92L205.56 159.35L205.48 160.77L205.35 162.18L205.17 163.58L204.94 164.96L204.66 166.33L204.33 167.69L203.95 169.03L203.53 170.35L203.06 171.65L202.55 172.93L201.99 174.2L201.38 175.44L200.74 176.66L200.05 177.86L199.33 179.03L198.56 180.18L197.75 181.31L196.9 182.41L196.02 183.48L195.1 184.53L194.14 185.54L193.14 186.53L192.12 187.49L191.05 188.41L189.96 189.3L188.83 190.16L187.67 190.99L186.48 191.78L185.26 192.53L184.01 193.25L182.73 193.93L181.42 194.57L180.09 195.17L178.73 195.73L177.35 196.25L175.94 196.73L174.51 197.17L173.05 197.56L171.58 197.9L169.44 211.82L169.42 211.92L169.4 212.02L169.38 212.13L169.35 212.23L169.31 212.33L169.28 212.42L169.23 212.52L169.19 212.61L169.14 212.71L169.09 212.8L169.04 212.88L168.98 212.97L168.92 213.05L168.85 213.13L168.79 213.21L168.72 213.29L168.65 213.37L168.57 213.44L168.49 213.51L168.41 213.58L168.33 213.64L168.24 213.7L168.16 213.76L168.07 213.82L167.98 213.87L167.88 213.92L167.79 213.97L167.69 214.01L167.59 214.05L167.49 214.09L167.38 214.12L167.28 214.16L167.17 214.18L167.07 214.21L166.96 214.23L166.85 214.25L166.74 214.26L166.62 214.27L166.51 214.27L166.4 214.28L146.7 214.28L146.59 214.27L146.47 214.27L146.36 214.26L146.25 214.25L146.14 214.23L146.03 214.21L145.92 214.18L145.82 214.16L145.71 214.12L145.61 214.09L145.51 214.05L145.41 214.01L145.31 213.97L145.21 213.92L145.12 213.87L145.03 213.82L144.94 213.76L144.85 213.7L144.77 213.64L144.68 213.57L144.6 213.51L144.53 213.44L144.45 213.37L144.38 213.29L144.31 213.21L144.24 213.13L144.18 213.05L144.12 212.97L144.06 212.88L144.01 212.8L143.95 212.71L143.91 212.61L143.86 212.52L143.82 212.42L143.78 212.33L143.75 212.23L143.72 212.13L143.69 212.02L143.67 211.92L143.65 211.82L141.69 198.99L112.32 198.99L110.35 211.82L110.34 211.92L110.31 212.02L110.29 212.13L110.26 212.23L110.22 212.33L110.19 212.42L110.15 212.52L110.1 212.61L110.05 212.71L110 212.8L109.95 212.88L109.89 212.97L109.83 213.05L109.77 213.13L109.7 213.21L109.63 213.29L109.56 213.37L109.48 213.44L109.4 213.51L109.32 213.58L109.24 213.64L109.16 213.7L109.07 213.76L108.98 213.82L108.89 213.87L108.79 213.92L108.7 213.97L108.6 214.01L108.5 214.05L108.4 214.09L108.3 214.12L108.19 214.16L108.09 214.18L107.98 214.21L107.87 214.23L107.76 214.25L107.65 214.26L107.54 214.27L107.42 214.27L107.31 214.28L87.61 214.28L87.5 214.27L87.38 214.27L87.27 214.26L87.16 214.25L87.05 214.23L86.94 214.21L86.83 214.18L86.73 214.16L86.62 214.12L86.52 214.09L86.42 214.05L86.32 214.01L86.22 213.97L86.13 213.92L86.03 213.87L85.94 213.82L85.85 213.76L85.76 213.7L85.68 213.64L85.59 213.57L85.51 213.51L85.44 213.44L85.36 213.37L85.29 213.29L85.22 213.21L85.15 213.13L85.09 213.05L85.03 212.97L84.97 212.88L84.92 212.8L84.87 212.71L84.82 212.61L84.77 212.52L84.73 212.42L84.69 212.33L84.66 212.23L84.63 212.13L84.61 212.02L84.58 211.92L84.56 211.82L82.58 198.86L81.14 198.73L79.73 198.57L78.32 198.36L76.93 198.11L75.55 197.82L74.19 197.49L72.84 197.12L71.51 196.71L70.2 196.26L68.91 195.78L67.63 195.26L66.38 194.7L65.15 194.11L63.94 193.49L62.76 192.82L61.6 192.13L60.46 191.4L59.35 190.65L58.26 189.85L57.2 189.03L56.17 188.18L55.17 187.3L54.2 186.39L53.26 185.45L52.34 184.49L51.47 183.5L50.62 182.48L49.81 181.43L49.03 180.36L48.29 179.27L47.58 178.15L46.91 177.01L46.28 175.85L45.68 174.67L45.13 173.46L44.62 172.23L44.14 170.99L43.71 169.72L43.33 168.44L42.98 167.14L31.3 165.33L31.19 165.31L31.08 165.29L30.97 165.26L30.87 165.23L30.76 165.2L30.66 165.16L30.56 165.12L30.46 165.08L30.37 165.03L30.27 164.99L30.18 164.93L30.09 164.88L30 164.82L29.92 164.76L29.83 164.7L29.75 164.64L29.68 164.57L29.6 164.5L29.53 164.43L29.46 164.35L29.39 164.28L29.33 164.2L29.26 164.12L29.21 164.03L29.15 163.95L29.1 163.86L29.05 163.78L29 163.69L28.96 163.59L28.92 163.5L28.89 163.41L28.85 163.31L28.82 163.21L28.8 163.12L28.78 163.02L28.76 162.91L28.75 162.81L28.74 162.71L28.73 162.61L28.73 162.5L28.73 138.05L28.73 137.94L28.74 137.84L28.75 137.74L28.76 137.63L28.78 137.53L28.8 137.43L28.82 137.33L28.85 137.24L28.89 137.14L28.92 137.05L28.96 136.95L29 136.86L29.05 136.77L29.1 136.68L29.15 136.6L29.21 136.51L29.26 136.43L29.33 136.35L29.39 136.27L29.46 136.19L29.53 136.12L29.6 136.05L29.68 135.98L29.75 135.91L29.83 135.85L29.92 135.78L30 135.72L30.09 135.67L30.18 135.61L30.27 135.56L30.37 135.51L30.46 135.47L30.56 135.43L30.66 135.39L30.76 135.35L30.87 135.32L30.97 135.29L31.08 135.26L31.19 135.24L31.3 135.22L41.86 133.58L41.86 130.41L41.89 128.9L41.97 127.42L42.12 125.94L42.32 124.48L42.57 123.04L42.88 121.62L43.23 120.21L43.64 118.82L44.11 117.45L44.62 116.11L45.17 114.78L45.78 113.48L46.43 112.2L47.13 110.94L47.87 109.71L48.66 108.51L49.49 107.34L50.36 106.19L51.27 105.07L52.22 103.99L53.21 102.93L54.23 101.9L55.3 100.91L56.39 99.96L57.53 99.03L58.69 98.15L59.89 97.3L61.12 96.48L62.38 95.71L63.67 94.98L64.99 94.28L66.33 93.63L67.71 93.02L69.1 92.45L70.53 91.93L71.97 91.45L73.44 91.02L74.93 90.63L76.44 90.3L77.97 90.01L77.97 64.68L77.97 64.59L77.97 64.51L77.98 64.42L77.99 64.33L78 64.24L78.02 64.16L78.04 64.07L78.06 63.99L78.08 63.91L78.11 63.82L78.14 63.74L78.17 63.66L78.21 63.58L78.24 63.5L78.28 63.43L78.32 63.35L78.37 63.27L78.41 63.2L78.46 63.13L78.51 63.06L78.57 62.99L78.62 62.92L78.68 62.85L78.74 62.79L78.8 62.73L78.86 62.66L78.93 62.6L79 62.55L79.07 62.49L79.14 62.44L79.21 62.38L79.29 62.33L79.36 62.28L79.44 62.24L79.52 62.19L79.61 62.15L79.69 62.11L79.78 62.07L79.86 62.04L79.95 62.01L80.04 61.98L80.13 61.95L80.22 61.92L80.31 61.9L80.41 61.88L80.5 61.86L80.59 61.85L80.68 61.84L80.77 61.83L80.87 61.82L80.96 61.82L81.05 61.82L81.14 61.82L81.24 61.82ZM90.28 208.54L104.64 208.54L106.1 198.99L88.82 198.99L90.28 208.54ZM164.47 198.89L164.09 198.92L163.72 198.94L163.34 198.95L162.97 198.97L162.6 198.98L162.22 198.99L161.85 198.99L161.47 198.99L147.9 198.99L149.37 208.54L163.73 208.54L165.22 198.84L164.84 198.87L164.47 198.89ZM84.41 95.09L82.86 95.18L81.33 95.32L79.82 95.52L78.33 95.78L76.86 96.09L75.41 96.45L73.99 96.87L72.59 97.33L71.21 97.84L69.86 98.4L68.54 99.01L67.25 99.67L65.99 100.36L64.76 101.1L63.57 101.89L62.41 102.71L61.28 103.58L60.19 104.48L59.14 105.42L58.13 106.4L57.16 107.42L56.23 108.46L55.35 109.54L54.51 110.66L53.71 111.8L52.96 112.97L52.26 114.18L51.6 115.4L51 116.66L50.45 117.94L49.95 119.25L49.51 120.57L49.12 121.92L48.79 123.29L48.51 124.68L48.3 126.09L48.14 127.51L48.05 128.95L48.01 130.4L48.01 157.92L48.01 158.07L48.02 158.23L48.02 158.39L48.02 158.54L48.02 158.7L48.03 158.86L48.03 159.01L48.04 159.17L48.04 159.33L48.05 159.48L48.06 159.64L48.07 159.79L48.08 159.95L48.09 160.11L48.1 160.26L48.11 160.42L48.12 160.58L48.13 160.73L48.15 160.89L48.16 161.04L48.18 161.2L48.19 161.36L48.21 161.51L48.23 161.67L48.24 161.82L48.26 161.98L48.28 162.13L48.3 162.29L48.32 162.44L48.34 162.6L48.37 162.75L48.39 162.91L48.41 163.06L48.44 163.22L48.46 163.37L48.49 163.52L48.52 163.68L48.54 163.83L48.57 163.98L48.6 164.14L48.86 165.37L49.17 166.59L49.51 167.79L49.91 168.97L50.34 170.14L50.82 171.28L51.34 172.4L51.89 173.51L52.49 174.59L53.12 175.64L53.79 176.68L54.5 177.69L55.24 178.67L56.02 179.63L56.83 180.56L57.67 181.47L58.55 182.35L59.45 183.2L60.39 184.02L61.35 184.81L62.34 185.57L63.36 186.3L64.41 186.99L65.48 187.66L66.57 188.29L67.69 188.88L68.83 189.45L70 189.97L71.18 190.46L72.38 190.92L73.61 191.33L74.85 191.71L76.1 192.04L77.38 192.34L78.67 192.6L79.97 192.82L81.29 192.99L82.62 193.12L83.96 193.21L85.32 193.25L85.42 193.25L85.58 193.26L85.64 193.26L85.68 193.26L85.71 193.26L85.76 193.26L85.79 193.26L85.83 193.26L85.87 193.26L85.93 193.26L85.97 193.26L161.47 193.26L161.64 193.26L161.81 193.26L161.99 193.26L162.16 193.25L162.33 193.25L162.5 193.25L162.67 193.24L162.84 193.24L163.01 193.23L163.19 193.22L163.36 193.22L163.53 193.21L163.7 193.2L163.87 193.19L164.04 193.18L164.21 193.17L164.38 193.16L164.56 193.14L164.73 193.13L164.9 193.12L165.07 193.1L165.24 193.09L165.41 193.07L165.58 193.05L165.75 193.04L165.92 193.02L166.09 193L166.26 192.98L166.43 192.96L166.6 192.94L166.77 192.92L166.94 192.9L167.11 192.87L167.28 192.85L167.44 192.82L167.61 192.8L167.78 192.77L167.95 192.75L168.12 192.72L168.29 192.69L169.63 192.44L170.95 192.15L172.26 191.81L173.54 191.44L174.81 191.02L176.04 190.57L177.26 190.08L178.45 189.55L179.62 188.98L180.76 188.38L181.88 187.74L182.97 187.07L184.03 186.37L185.07 185.63L186.07 184.86L187.04 184.06L187.99 183.23L188.9 182.38L189.78 181.49L190.62 180.58L191.44 179.64L192.21 178.67L192.96 177.68L193.66 176.67L194.33 175.63L194.96 174.58L195.56 173.5L196.11 172.4L196.63 171.28L197.1 170.14L197.53 168.98L197.92 167.81L198.27 166.62L198.57 165.42L198.83 164.2L199.04 162.96L199.21 161.72L199.33 160.46L199.4 159.19L199.43 157.92L199.43 157.6L199.43 156.37L199.43 154.91L199.43 153.04L199.43 150.76L199.43 148.06L199.43 145.76L199.43 141.4L199.43 137.45L199.43 131.93L199.43 130.4L199.4 128.95L199.3 127.51L199.15 126.09L198.93 124.68L198.66 123.29L198.32 121.92L197.93 120.57L197.49 119.25L196.99 117.94L196.44 116.66L195.84 115.4L195.19 114.18L194.48 112.97L193.73 111.8L192.94 110.66L192.1 109.54L191.21 108.46L190.28 107.42L189.31 106.4L188.3 105.42L187.25 104.48L186.16 103.58L185.03 102.71L183.87 101.89L182.68 101.1L181.45 100.36L180.19 99.67L178.9 99.01L177.58 98.4L176.23 97.84L174.86 97.33L173.46 96.87L172.03 96.45L170.58 96.09L169.11 95.78L167.62 95.52L166.11 95.32L164.58 95.18L163.03 95.09L161.47 95.06L85.97 95.06L84.41 95.09ZM34.88 160.07L42 161.18L41.98 160.88L41.96 160.59L41.94 160.29L41.92 159.99L41.9 159.7L41.89 159.4L41.88 159.1L41.87 158.81L41.86 158.51L41.86 158.21L41.86 157.92L41.86 139.39L34.88 140.47L34.88 160.07ZM100.45 89.33L84.12 72.22L84.12 89.33L100.45 89.33Z" id="a2bl4OeRlI" fill="white" fill-opacity="1" filter="url(#shadow4788811)"></path></g><use xlink:href="#bxqjMHxZI" opacity="1" fill="#ffffff" fill-opacity="1"></use></g><g><g><filter id="shadow1768994" x="46.27" y="107.9" width="49.85" height="48.07" filterUnits="userSpaceOnUse" primitiveUnits="userSpaceOnUse"><feFlood></feFlood><feComposite in2="SourceAlpha" operator="in"></feComposite><feGaussianBlur stdDeviation="1.73"></feGaussianBlur><feOffset dx="0" dy="0" result="afterOffset"></feOffset><feFlood flood-color="#000000" flood-opacity="0.9"></feFlood><feComposite in2="afterOffset" operator="in"></feComposite><feMorphology operator="dilate" radius="1"></feMorphology><feComposite in2="SourceAlpha" operator="out"></feComposite></filter><path d="M73.97 120.18L75.28 120.51L76.53 120.97L77.72 121.54L78.83 122.22L79.85 123L80.79 123.87L81.63 124.83L82.36 125.86L82.97 126.97L83.46 128.13L83.82 129.35L84.05 130.62L84.12 131.93L84.05 133.24L83.82 134.51L83.46 135.73L82.97 136.9L82.36 138L81.63 139.04L80.79 139.99L79.85 140.86L78.83 141.64L77.72 142.32L76.53 142.9L75.28 143.35L73.97 143.69L72.6 143.9L71.2 143.97L69.79 143.9L68.43 143.69L67.12 143.35L65.86 142.9L64.68 142.32L63.57 141.64L62.54 140.86L61.61 139.99L60.77 139.04L60.04 138L59.42 136.9L58.93 135.73L58.57 134.51L58.35 133.24L58.27 131.93L58.35 130.62L58.57 129.35L58.93 128.13L59.42 126.97L60.04 125.86L60.77 124.83L61.61 123.87L62.54 123L63.57 122.22L64.68 121.54L65.86 120.97L67.12 120.51L68.43 120.18L69.79 119.97L71.2 119.9L72.6 119.97L73.97 120.18ZM68.57 126.12L67.42 126.71L66.41 127.48L65.59 128.41L64.96 129.48L64.57 130.66L64.43 131.93L64.57 133.2L64.96 134.38L65.59 135.46L66.41 136.39L67.42 137.16L68.57 137.74L69.84 138.11L71.2 138.24L72.56 138.11L73.83 137.74L74.98 137.16L75.98 136.39L76.81 135.46L77.44 134.38L77.83 133.2L77.97 131.93L77.83 130.66L77.44 129.48L76.81 128.41L75.98 127.48L74.98 126.71L73.83 126.12L72.56 125.76L71.2 125.63L69.84 125.76L68.57 126.12Z" id="b24Xv4ZOww" fill="white" fill-opacity="1" filter="url(#shadow1768994)"></path></g><g><filter id="shadow10294557" x="-0.73" y="60.9" width="143.85" height="142.07" filterUnits="userSpaceOnUse" primitiveUnits="userSpaceOnUse"><feFlood></feFlood><feComposite in2="SourceAlpha" operator="in"></feComposite><feGaussianBlur stdDeviation="5"></feGaussianBlur><feOffset dx="0" dy="0" result="afterOffset"></feOffset><feFlood flood-color="#98c1c8" flood-opacity="1"></feFlood><feComposite in2="afterOffset" operator="in"></feComposite><feMorphology operator="dilate" radius="4"></feMorphology><feComposite in2="SourceAlpha" operator="out"></feComposite></filter><path d="M73.97 120.18L75.28 120.51L76.53 120.97L77.72 121.54L78.83 122.22L79.85 123L80.79 123.87L81.63 124.83L82.36 125.86L82.97 126.97L83.46 128.13L83.82 129.35L84.05 130.62L84.12 131.93L84.05 133.24L83.82 134.51L83.46 135.73L82.97 136.9L82.36 138L81.63 139.04L80.79 139.99L79.85 140.86L78.83 141.64L77.72 142.32L76.53 142.9L75.28 143.35L73.97 143.69L72.6 143.9L71.2 143.97L69.79 143.9L68.43 143.69L67.12 143.35L65.86 142.9L64.68 142.32L63.57 141.64L62.54 140.86L61.61 139.99L60.77 139.04L60.04 138L59.42 136.9L58.93 135.73L58.57 134.51L58.35 133.24L58.27 131.93L58.35 130.62L58.57 129.35L58.93 128.13L59.42 126.97L60.04 125.86L60.77 124.83L61.61 123.87L62.54 123L63.57 122.22L64.68 121.54L65.86 120.97L67.12 120.51L68.43 120.18L69.79 119.97L71.2 119.9L72.6 119.97L73.97 120.18ZM68.57 126.12L67.42 126.71L66.41 127.48L65.59 128.41L64.96 129.48L64.57 130.66L64.43 131.93L64.57 133.2L64.96 134.38L65.59 135.46L66.41 136.39L67.42 137.16L68.57 137.74L69.84 138.11L71.2 138.24L72.56 138.11L73.83 137.74L74.98 137.16L75.98 136.39L76.81 135.46L77.44 134.38L77.83 133.2L77.97 131.93L77.83 130.66L77.44 129.48L76.81 128.41L75.98 127.48L74.98 126.71L73.83 126.12L72.56 125.76L71.2 125.63L69.84 125.76L68.57 126.12Z" id="c4m7BONSGN" fill="white" fill-opacity="1" filter="url(#shadow10294557)"></path></g><use xlink:href="#cBLy9QtwN" opacity="1" fill="#ffffff" fill-opacity="1"></use></g><g><g><filter id="shadow2180300" x="85.66" y="95.67" width="85.96" height="45.02" filterUnits="userSpaceOnUse" primitiveUnits="userSpaceOnUse"><feFlood></feFlood><feComposite in2="SourceAlpha" operator="in"></feComposite><feGaussianBlur stdDeviation="1.73"></feGaussianBlur><feOffset dx="0" dy="0" result="afterOffset"></feOffset><feFlood flood-color="#000000" flood-opacity="0.9"></feFlood><feComposite in2="afterOffset" operator="in"></feComposite><feMorphology operator="dilate" radius="1"></feMorphology><feComposite in2="SourceAlpha" operator="out"></feComposite></filter><path d="M156.86 107.68L157.02 107.7L157.17 107.73L157.32 107.76L157.46 107.8L157.61 107.84L157.75 107.9L157.88 107.95L158.01 108.02L158.14 108.08L158.27 108.16L158.39 108.24L158.51 108.32L158.62 108.41L158.72 108.51L158.83 108.61L158.92 108.71L159.01 108.82L159.1 108.93L159.18 109.05L159.25 109.17L159.32 109.29L159.38 109.42L159.44 109.55L159.49 109.68L159.53 109.82L159.56 109.96L159.59 110.1L159.61 110.24L159.62 110.39L159.63 110.54L159.63 125.82L159.62 125.97L159.61 126.11L159.59 126.26L159.56 126.4L159.53 126.54L159.49 126.67L159.44 126.81L159.38 126.94L159.32 127.06L159.25 127.19L159.18 127.31L159.1 127.42L159.01 127.53L158.92 127.64L158.83 127.75L158.72 127.85L158.62 127.94L158.51 128.03L158.39 128.12L158.27 128.2L158.14 128.27L158.01 128.34L157.88 128.4L157.75 128.46L157.61 128.51L157.46 128.56L157.32 128.6L157.17 128.63L157.02 128.65L156.86 128.67L156.71 128.68L156.55 128.69L100.74 128.69L100.58 128.68L100.43 128.67L100.27 128.65L100.12 128.63L99.97 128.6L99.83 128.56L99.68 128.51L99.54 128.46L99.41 128.4L99.27 128.34L99.15 128.27L99.02 128.2L98.9 128.12L98.78 128.03L98.67 127.94L98.57 127.85L98.46 127.75L98.37 127.64L98.28 127.53L98.19 127.42L98.11 127.31L98.04 127.19L97.97 127.06L97.91 126.94L97.85 126.81L97.8 126.67L97.76 126.54L97.73 126.4L97.7 126.26L97.68 126.11L97.67 125.97L97.66 125.82L97.66 110.54L97.67 110.39L97.68 110.24L97.7 110.1L97.73 109.96L97.76 109.82L97.8 109.68L97.85 109.55L97.91 109.42L97.97 109.29L98.04 109.17L98.11 109.05L98.19 108.93L98.28 108.82L98.37 108.71L98.46 108.61L98.57 108.51L98.67 108.41L98.78 108.32L98.9 108.24L99.02 108.16L99.15 108.08L99.27 108.02L99.41 107.95L99.54 107.9L99.68 107.84L99.83 107.8L99.97 107.76L100.12 107.73L100.27 107.7L100.43 107.68L100.58 107.67L100.74 107.67L156.55 107.67L156.71 107.67L156.86 107.68ZM103.82 122.95L153.47 122.95L153.47 113.4L103.82 113.4L103.82 122.95Z" id="b48EaI81xu" fill="white" fill-opacity="1" filter="url(#shadow2180300)"></path></g><g><filter id="shadow61884" x="38.66" y="48.67" width="179.96" height="139.02" filterUnits="userSpaceOnUse" primitiveUnits="userSpaceOnUse"><feFlood></feFlood><feComposite in2="SourceAlpha" operator="in"></feComposite><feGaussianBlur stdDeviation="5"></feGaussianBlur><feOffset dx="0" dy="0" result="afterOffset"></feOffset><feFlood flood-color="#98c1c8" flood-opacity="1"></feFlood><feComposite in2="afterOffset" operator="in"></feComposite><feMorphology operator="dilate" radius="4"></feMorphology><feComposite in2="SourceAlpha" operator="out"></feComposite></filter><path d="M156.86 107.68L157.02 107.7L157.17 107.73L157.32 107.76L157.46 107.8L157.61 107.84L157.75 107.9L157.88 107.95L158.01 108.02L158.14 108.08L158.27 108.16L158.39 108.24L158.51 108.32L158.62 108.41L158.72 108.51L158.83 108.61L158.92 108.71L159.01 108.82L159.1 108.93L159.18 109.05L159.25 109.17L159.32 109.29L159.38 109.42L159.44 109.55L159.49 109.68L159.53 109.82L159.56 109.96L159.59 110.1L159.61 110.24L159.62 110.39L159.63 110.54L159.63 125.82L159.62 125.97L159.61 126.11L159.59 126.26L159.56 126.4L159.53 126.54L159.49 126.67L159.44 126.81L159.38 126.94L159.32 127.06L159.25 127.19L159.18 127.31L159.1 127.42L159.01 127.53L158.92 127.64L158.83 127.75L158.72 127.85L158.62 127.94L158.51 128.03L158.39 128.12L158.27 128.2L158.14 128.27L158.01 128.34L157.88 128.4L157.75 128.46L157.61 128.51L157.46 128.56L157.32 128.6L157.17 128.63L157.02 128.65L156.86 128.67L156.71 128.68L156.55 128.69L100.74 128.69L100.58 128.68L100.43 128.67L100.27 128.65L100.12 128.63L99.97 128.6L99.83 128.56L99.68 128.51L99.54 128.46L99.41 128.4L99.27 128.34L99.15 128.27L99.02 128.2L98.9 128.12L98.78 128.03L98.67 127.94L98.57 127.85L98.46 127.75L98.37 127.64L98.28 127.53L98.19 127.42L98.11 127.31L98.04 127.19L97.97 127.06L97.91 126.94L97.85 126.81L97.8 126.67L97.76 126.54L97.73 126.4L97.7 126.26L97.68 126.11L97.67 125.97L97.66 125.82L97.66 110.54L97.67 110.39L97.68 110.24L97.7 110.1L97.73 109.96L97.76 109.82L97.8 109.68L97.85 109.55L97.91 109.42L97.97 109.29L98.04 109.17L98.11 109.05L98.19 108.93L98.28 108.82L98.37 108.71L98.46 108.61L98.57 108.51L98.67 108.41L98.78 108.32L98.9 108.24L99.02 108.16L99.15 108.08L99.27 108.02L99.41 107.95L99.54 107.9L99.68 107.84L99.83 107.8L99.97 107.76L100.12 107.73L100.27 107.7L100.43 107.68L100.58 107.67L100.74 107.67L156.55 107.67L156.71 107.67L156.86 107.68ZM103.82 122.95L153.47 122.95L153.47 113.4L103.82 113.4L103.82 122.95Z" id="c2lZyBqhfB" fill="white" fill-opacity="1" filter="url(#shadow61884)"></path></g><use xlink:href="#a7ebaKVzvP" opacity="1" fill="#ffffff" fill-opacity="1"></use></g></g></g></svg>